<?xml version="1.0" encoding="utf-8"?>
<!-- Generator: Adobe Illustrator 21.0.0, SVG Export Plug-In . SVG Version: 6.00 Build 0)  -->
<svg version="1.1" id="Capa_1" xmlns="http://www.w3.org/2000/svg" xmlns:xlink="http://www.w3.org/1999/xlink" x="0px" y="0px"
	 viewBox="0 0 50 50" style="enable-background:new 0 0 50 50;" xml:space="preserve">
<style type="text/css">
	.st0{fill:#434142;}
</style>
<g>
	<g>
		<path class="st0" d="M23.3,16.7c6.8,0.8,11.7,4.4,15.4,10c-0.5,0.3-0.9,0.5-1.4,0.8c-3.2,1.8-6.3,3.6-9.5,5.4
			c-1.9,1-3.7,2.1-5.6,3.1C22.1,36,22,36.1,21.8,36c-0.2-0.1-0.2-0.3-0.2-0.5c0.6-6.2,1.1-12.4,1.7-18.6
			C23.3,16.9,23.3,16.8,23.3,16.7z M29.1,22.8c1.2-0.4,1.8-1.7,1.4-3c-0.4-1.2-1.7-1.8-2.9-1.4c-1.2,0.4-1.8,1.8-1.4,2.9
			C26.6,22.6,27.9,23.2,29.1,22.8z M25.9,32.7c1.2-0.4,1.8-1.8,1.4-3c-0.4-1.2-1.7-1.8-2.9-1.4c-1.2,0.4-1.8,1.8-1.4,3
			C23.4,32.5,24.7,33.1,25.9,32.7z M27.4,26.8c0.6-0.2,0.9-0.9,0.6-1.4c-0.2-0.6-0.8-0.8-1.4-0.6c-0.6,0.2-0.9,0.8-0.7,1.4
			C26.2,26.8,26.8,27.1,27.4,26.8z M33.6,25.2c0.6-0.2,0.9-0.8,0.7-1.4c-0.2-0.6-0.8-0.9-1.4-0.7c-0.6,0.2-0.9,0.8-0.7,1.4
			C32.4,25.2,33.1,25.5,33.6,25.2z M32.5,29c0.6-0.2,0.9-0.8,0.7-1.4c-0.2-0.6-0.8-0.9-1.4-0.7c-0.6,0.2-0.9,0.8-0.7,1.4
			C31.3,28.9,32,29.2,32.5,29z"/>
		<path class="st0" d="M24,12.7c0.1,0,0.2,0,0.3,0c5.1,0.9,9.5,3.1,13.2,6.6c1.5,1.5,2.8,3.1,3.9,5c0.3,0.4,0.2,0.7-0.2,0.9
			c-0.4,0.3-0.8,0.5-1.2,0.8c-0.3,0.2-0.6,0.1-0.8-0.2c-2.9-4.8-7.2-7.7-12.5-9.3c-0.9-0.3-1.8-0.4-2.7-0.6
			c-0.4-0.1-0.6-0.3-0.5-0.7c0.1-0.7,0.1-1.3,0.2-2C23.6,13,23.7,12.8,24,12.7z"/>
	</g>
	<g>
		<path class="st0" d="M14.1,10.9c1.6-0.1,3.1-0.2,4.7-0.3c0.3,0,0.4,0,0.5,0.3c0.5,1,0.7,2,0.9,3c0.2,0.9,0.3,1.8,0.3,2.7
			c0,1.2-0.1,2.4-0.3,3.5c-0.4,2.2-0.8,4.5-1.3,6.7c-0.2,1.1-0.4,2.1-0.4,3.2c0,1.6,0.2,3.2,1,4.7c0.3,0.6,0.7,1.2,0.8,1.9
			c0.1,0.4,0.1,0.8,0.1,1.1c-0.1,0.7-0.6,1.2-1.3,1.3c-2.1,0.1-4.2,0.3-6.3,0.4c-0.8,0.1-1.5-0.6-1.6-1.4c-0.1-0.7,0.1-1.4,0.3-2.1
			c0.2-0.7,0.5-1.5,0.7-2.2c0.3-1.5,0.2-2.9-0.2-4.4c-0.5-1.8-1.1-3.6-1.7-5.4c-0.5-1.6-1.1-3.2-1.5-4.8c-0.6-2.5-0.6-4.9,0-7.4
			c0,0,0-0.1,0-0.1c0.1-0.5,0.2-0.5,0.6-0.5C11.1,11.1,12.6,11,14.1,10.9z M12.6,35.5c1.4,0.3,5.2,0.1,6.4-0.4
			c-0.1-0.2-0.2-0.4-0.3-0.5c-0.1-0.2-0.2-0.4-0.2-0.6c-0.7-1.8-0.8-3.7-0.5-5.6c0.3-1.9,0.7-3.8,1.1-5.8c0.4-2,0.8-4,0.8-6.1
			c0-0.6-0.1-1.2-0.1-1.8c-3.5,0.2-7,0.5-10.5,0.7c0,0,0,0.1,0,0.1c0,1.2,0.2,2.4,0.4,3.6c0.4,1.6,0.9,3.2,1.5,4.8
			c0.6,1.8,1.3,3.6,1.8,5.4c0.4,1.5,0.5,3.1,0.2,4.7C12.9,34.5,12.7,35,12.6,35.5z M19.5,13.9c-0.2-0.9-0.4-1.7-0.7-2.5
			c-0.1-0.1-0.1-0.2-0.2-0.1c-1.2,0.1-2.4,0.2-3.6,0.2c-1.7,0.1-3.4,0.2-5.1,0.3c-0.1,0-0.2,0.1-0.2,0.2c-0.1,0.4-0.2,0.7-0.2,1.1
			c-0.1,0.5-0.1,0.9-0.2,1.4C12.6,14.4,16.1,14.2,19.5,13.9z M16,38.5c1-0.1,2-0.1,3-0.2c0.5,0,0.8-0.4,0.8-0.9c0-0.5-0.2-1-0.4-1.5
			c-0.1-0.1-0.1-0.1-0.2-0.1c-1,0.3-2,0.5-3,0.6c-1.2,0.1-2.4,0.1-3.6-0.1c-0.1,0-0.2,0-0.2,0.1c-0.1,0.5-0.2,1-0.2,1.5
			c0,0.5,0.4,0.8,0.9,0.8C13.9,38.6,15,38.6,16,38.5z"/>
		<path class="st0" d="M12.6,35.5c0.1-0.5,0.3-1,0.4-1.6c0.3-1.6,0.2-3.1-0.2-4.7c-0.5-1.9-1.1-3.6-1.8-5.4
			c-0.5-1.6-1.1-3.2-1.5-4.8c-0.3-1.2-0.5-2.4-0.4-3.6c0,0,0-0.1,0-0.1c3.5-0.2,7-0.5,10.5-0.7c0,0.6,0.1,1.2,0.1,1.8
			c0,2.1-0.4,4.1-0.8,6.1c-0.4,1.9-0.8,3.8-1.1,5.8c-0.3,1.9-0.2,3.8,0.5,5.6c0.1,0.2,0.2,0.4,0.2,0.6c0.1,0.2,0.2,0.4,0.3,0.5
			C17.7,35.6,14,35.9,12.6,35.5z"/>
		<path class="st0" d="M16,38.5c-1,0.1-2,0.1-3,0.2c-0.5,0-0.9-0.3-0.9-0.8c0-0.5,0.1-1,0.2-1.5c0-0.1,0.1-0.1,0.2-0.1
			c1.2,0.2,2.4,0.2,3.6,0.1c1-0.1,2.1-0.3,3-0.6c0.1,0,0.2,0,0.2,0.1c0.2,0.5,0.4,1,0.4,1.5c0,0.5-0.3,0.9-0.8,0.9
			C18,38.4,17,38.4,16,38.5z"/>
	</g>
</g>
<g>
	<path class="st0" d="M178.7-20.7c-5.5,0.4-11,0.8-16.5,1.3c-0.4-5.8-0.9-11.6-1.3-17.4c0.7-0.1,1.4-0.1,2.3-0.2
		c0-0.4-0.1-0.8-0.1-1.1c-0.1-1.6,1-2.9,2.6-3c1.9-0.2,3.8-0.3,5.7-0.5c1.6-0.1,2.9,1.1,3,2.6c0,0.3,0.1,0.6,0.1,1.1
		c1-0.1,2-0.2,3-0.2C177.8-32.3,178.3-26.6,178.7-20.7z M172.3-37.8c0.1-1.6-0.2-1.9-1.7-1.8c-1.3,0.1-2.7,0.2-4,0.3
		c-1.5,0.1-1.8,0.5-1.4,2.1C167.5-37.5,169.9-37.7,172.3-37.8z"/>
	<path class="st0" d="M159.1-36.8c0.5,5.9,0.9,11.6,1.3,17.4c-1.1,0.1-2.1,0.2-3.2,0.2c-0.6,0-1.2-0.7-1.2-1.3
		c-0.3-3.9-0.6-7.8-0.9-11.7c-0.1-0.8-0.1-1.7-0.2-2.5c-0.1-1,0.4-1.7,1.4-1.8C157.2-36.7,158.1-36.7,159.1-36.8z"/>
	<path class="st0" d="M180.4-20.8c-0.5-5.9-0.9-11.6-1.3-17.4c1-0.1,1.9-0.2,2.8-0.2c0.7,0,1.3,0.7,1.3,1.4
		c0.4,4.8,0.7,9.6,1.1,14.4c0.1,0.8-0.4,1.4-1.1,1.6C182.3-20.9,181.4-20.9,180.4-20.8z"/>
</g>
<g>
	<path class="st0" d="M243.4-44.3c1,0.4,0.8,1.2,0.8,2c-4.4,0-8.7,0-13.1,0c-0.1-1.2-0.1-1.7,0.8-2
		C235.7-44.3,239.6-44.3,243.4-44.3z"/>
	<path class="st0" d="M241.3-37.6c0,7.1,0,14.1,0,21.2c-4.5-0.2-8.9-0.5-13.4-0.7c0-6.8,0-13.6,0-20.4
		C232.4-37.6,236.8-37.6,241.3-37.6z M228.5-28.3c4.1,0,8.2,0.1,12.3,0.1c0-1,0-1.9,0-2.9c-4.1,0-8.2,0-12.3,0
		C228.5-30.1,228.5-29.2,228.5-28.3z"/>
	<path class="st0" d="M241.6-37.6c2,0,4,0,6.1,0c0,0.1,0,0.2,0,0.3c0,6.3,0,12.7,0,19c0,0.2-0.1,0.3-0.3,0.3c-1.8,0.5-3.7,1-5.5,1.5
		c-0.1,0-0.2,0-0.3,0.1C241.6-23.5,241.6-30.6,241.6-37.6z M247.2-28.9c0-0.9,0-1.7,0-2.6c-1.8,0.1-3.5,0.3-5.3,0.4
		c0,0.9,0,1.8,0,2.8C243.7-28.5,245.5-28.7,247.2-28.9z"/>
	<path class="st0" d="M227.9-37.9c0.3-0.3,0.5-0.6,0.7-0.9c0.8-1,1.5-2,2.3-3c0.1-0.1,0.2-0.2,0.4-0.2c4.2,0,8.4,0,12.6,0
		c0.1,0,0.1,0,0.2,0c-0.1,0.1-0.1,0.2-0.1,0.2c-0.9,1.2-1.7,2.5-2.6,3.7c-0.1,0.1-0.2,0.2-0.3,0.2c-4.3,0-8.7,0-13,0
		C228-37.9,228-37.9,227.9-37.9z"/>
	<path class="st0" d="M244.3-42.1c1.1,1.4,2.2,2.7,3.3,4.1c-2,0-4,0-6.1,0C242.5-39.3,243.4-40.7,244.3-42.1z"/>
	<path class="st0" d="M247.2-28.9c-1.8,0.2-3.5,0.4-5.3,0.6c0-0.9,0-1.8,0-2.8c1.8-0.1,3.5-0.3,5.3-0.4
		C247.2-30.6,247.2-29.8,247.2-28.9z"/>
</g>
<g>
	<path class="st0" d="M126.6-41.2c0.7,2.7,2.9,3.8,4.6,3.7c1.8-0.1,4-1.5,4.3-4.3c0.3,0,0.7,0.1,1,0.1c2.4,0.3,4.5,1.3,6.2,3
		c1.3,1.2,2.6,2.5,3.9,3.8c0.2,0.2,0.3,0.4,0,0.7c-0.8,1.1-1.7,2.1-2.5,3.1c-0.3,0.3-0.4,0.3-0.7,0c-1.1-1.1-2.1-2.1-3.2-3.2
		c-0.1-0.1-0.2-0.3-0.4-0.2c-0.2,0.1-0.3,0.2-0.3,0.5c0.3,5.7,0.6,11.4,0.9,17c0,0.6,0,0.7-0.6,0.7c-5,0.3-9.9,0.5-14.9,0.8
		c-0.5,0-0.6-0.1-0.6-0.6c-0.3-5.7-0.6-11.5-1-17.2c0-0.1,0-0.3-0.1-0.4c-0.2-0.1-0.3-0.1-0.5,0.1c-0.9,1.2-1.9,2.4-2.9,3.6
		c-0.3,0.4-0.4,0.4-0.8,0c-0.9-0.9-1.9-1.9-2.8-2.8c-0.2-0.2-0.3-0.5-0.1-0.7c1.2-1.4,2.3-2.8,3.5-4.2c1.7-2,3.9-3.2,6.4-3.7
		C126.3-41.1,126.4-41.1,126.6-41.2z"/>
	<path class="st0" d="M130.4-41.4c0-0.4,0-0.8-0.1-1.2c0.5,0,0.9,0,1.2-0.5c0.1-0.2,0.2-0.5,0.2-0.8c0-0.6-0.5-1-1.1-1
		c-0.6,0-1,0.4-1.1,1.2c-0.1,0-0.2,0-0.3,0c-0.1,0-0.2,0-0.3,0c-0.1-0.7,0.4-1.5,1.1-1.8c0.8-0.3,1.6,0,2.1,0.7
		c0.7,1,0.3,2.3-0.8,2.8c-0.3,0.1-0.2,0.3-0.2,0.6c1.3-0.1,2.7-0.1,4-0.2c0,0.8,0,0.8-0.8,0.9c-2.3,0.1-4.5,0.2-6.8,0.4
		c-0.3,0-0.5-0.1-0.5-0.4c0-0.1-0.1-0.3-0.1-0.4C128.1-41.2,129.2-41.3,130.4-41.4z"/>
</g>
<g>
	<path class="st0" d="M89.2-15.9C89.1-15.9,89.1-15.9,89.2-15.9c-0.8-0.8-1.5-1.5-2.3-2.3c0.5-0.7,0.6-1.2,0.4-2
		c-0.2-0.9-0.7-1.6-1.5-2.2c-0.9-0.7-2.3-1.1-3.3-0.3c-0.8-0.8-1.5-1.5-2.2-2.2c5.3-5.3,10.7-10.7,16.1-16.1
		c0.2,0.3,0.5,0.6,0.8,0.8c0.2-0.2,0.4-0.4,0.6-0.6c-0.3-0.3-0.6-0.5-0.9-0.8c0.1-0.1,0.1-0.1,0.2-0.2c1.1-1.1,2.2-2.2,3.3-3.3
		c0.4,0.4,0.8,0.8,1.2,1.2c0.4,0.4,0.8,0.8,1.2,1.2c-0.7,0.4-1,1-0.9,1.8c0,1.6,1.6,3.3,3.2,3.4c0.6,0.1,1.2,0,1.6-0.5
		c0.1-0.1,0.2-0.3,0.4-0.5c0.1,0.1,0.1,0.2,0.2,0.3c0.7,0.7,1.4,1.4,2.1,2c0,0,0,0,0,0.1c-0.1,0.1-0.1,0.1-0.2,0.2
		c-6.6,6.6-13.1,13.1-19.7,19.7C89.3-16,89.2-16,89.2-15.9z M100.3-37.9c-0.4-0.4-0.9-0.9-1.3-1.3c-0.1,0.2-0.3,0.3-0.5,0.5
		c0.4,0.4,0.9,0.8,1.3,1.3C100-37.6,100.1-37.8,100.3-37.9z M103.8-33.5c0.4,0.4,0.9,0.9,1.3,1.3c0.1-0.2,0.3-0.3,0.4-0.5
		c-0.4-0.4-0.9-0.9-1.3-1.3C104.1-33.8,104-33.6,103.8-33.5z M102.9-35.3c-0.4-0.4-0.9-0.9-1.3-1.3c-0.2,0.1-0.3,0.3-0.5,0.4
		c0.4,0.4,0.9,0.9,1.3,1.3C102.6-35,102.8-35.1,102.9-35.3z"/>
</g>
<polygon class="st0" points="205.6,-43.1 209.7,-34.7 218.9,-33.4 212.3,-26.9 213.8,-17.7 205.6,-22 197.3,-17.7 198.9,-26.9 
	192.2,-33.4 201.4,-34.7 "/>
</svg>
