<?xml version="1.0" encoding="utf-8"?>
<!-- Generator: Adobe Illustrator 21.0.0, SVG Export Plug-In . SVG Version: 6.00 Build 0)  -->
<svg version="1.1" id="Capa_1" xmlns="http://www.w3.org/2000/svg" xmlns:xlink="http://www.w3.org/1999/xlink" x="0px" y="0px"
	 viewBox="0 0 50 50" style="enable-background:new 0 0 50 50;" xml:space="preserve">
<style type="text/css">
	.st0{fill:#434142;}
</style>
<g>
	<g>
		<path class="st0" d="M-48.6-14.7c6.8,0.8,11.7,4.4,15.4,10c-0.5,0.3-0.9,0.5-1.4,0.8c-3.2,1.8-6.3,3.6-9.5,5.4
			c-1.9,1-3.7,2.1-5.6,3.1c-0.1,0.1-0.3,0.2-0.5,0.1c-0.2-0.1-0.2-0.3-0.2-0.5c0.6-6.2,1.1-12.4,1.7-18.6
			C-48.6-14.5-48.6-14.6-48.6-14.7z M-42.7-8.6c1.2-0.4,1.8-1.7,1.4-3c-0.4-1.2-1.7-1.8-2.9-1.4c-1.2,0.4-1.8,1.8-1.4,2.9
			C-45.3-8.8-43.9-8.2-42.7-8.6z M-46,1.3c1.2-0.4,1.8-1.8,1.4-3c-0.4-1.2-1.7-1.8-2.9-1.4c-1.2,0.4-1.8,1.8-1.4,3
			C-48.5,1.1-47.2,1.7-46,1.3z M-44.5-4.6c0.6-0.2,0.9-0.9,0.6-1.4c-0.2-0.6-0.8-0.8-1.4-0.6c-0.6,0.2-0.9,0.8-0.7,1.4
			C-45.7-4.6-45.1-4.3-44.5-4.6z M-38.2-6.2c0.6-0.2,0.9-0.8,0.7-1.4c-0.2-0.6-0.8-0.9-1.4-0.7c-0.6,0.2-0.9,0.8-0.7,1.4
			C-39.4-6.2-38.8-5.9-38.2-6.2z M-39.3-2.4c0.6-0.2,0.9-0.8,0.7-1.4c-0.2-0.6-0.8-0.9-1.4-0.7c-0.6,0.2-0.9,0.8-0.7,1.4
			C-40.5-2.5-39.9-2.2-39.3-2.4z"/>
		<path class="st0" d="M-47.9-18.7c0.1,0,0.2,0,0.3,0c5.1,0.9,9.5,3.1,13.2,6.6c1.5,1.5,2.8,3.1,3.9,5c0.3,0.4,0.2,0.7-0.2,0.9
			c-0.4,0.3-0.8,0.5-1.2,0.8c-0.3,0.2-0.6,0.1-0.8-0.2c-2.9-4.8-7.2-7.7-12.5-9.3c-0.9-0.3-1.8-0.4-2.7-0.6
			c-0.4-0.1-0.6-0.3-0.5-0.7c0.1-0.7,0.1-1.3,0.2-2C-48.2-18.4-48.1-18.6-47.9-18.7z"/>
	</g>
	<g>
		<path class="st0" d="M-57.8-20.5c1.6-0.1,3.1-0.2,4.7-0.3c0.3,0,0.4,0,0.5,0.3c0.5,1,0.7,2,0.9,3c0.2,0.9,0.3,1.8,0.3,2.7
			c0,1.2-0.1,2.4-0.3,3.5c-0.4,2.2-0.8,4.5-1.3,6.7c-0.2,1.1-0.4,2.1-0.4,3.2c0,1.6,0.2,3.2,1,4.7c0.3,0.6,0.7,1.2,0.8,1.9
			c0.1,0.4,0.1,0.8,0.1,1.1c-0.1,0.7-0.6,1.2-1.3,1.3C-54.8,7.8-56.9,7.9-59,8c-0.8,0.1-1.5-0.6-1.6-1.4c-0.1-0.7,0.1-1.4,0.3-2.1
			c0.2-0.7,0.5-1.5,0.7-2.2c0.3-1.5,0.2-2.9-0.2-4.4c-0.5-1.8-1.1-3.6-1.7-5.4c-0.5-1.6-1.1-3.2-1.5-4.8c-0.6-2.5-0.6-4.9,0-7.4
			c0,0,0-0.1,0-0.1c0.1-0.5,0.2-0.5,0.6-0.5C-60.8-20.3-59.3-20.4-57.8-20.5z M-59.3,4.1c1.4,0.3,5.2,0.1,6.4-0.4
			c-0.1-0.2-0.2-0.4-0.3-0.5c-0.1-0.2-0.2-0.4-0.2-0.6c-0.7-1.8-0.8-3.7-0.5-5.6c0.3-1.9,0.7-3.8,1.1-5.8c0.4-2,0.8-4,0.8-6.1
			c0-0.6-0.1-1.2-0.1-1.8c-3.5,0.2-7,0.5-10.5,0.7c0,0,0,0.1,0,0.1c0,1.2,0.2,2.4,0.4,3.6c0.4,1.6,0.9,3.2,1.5,4.8
			c0.6,1.8,1.3,3.6,1.8,5.4c0.4,1.5,0.5,3.1,0.2,4.7C-59,3.1-59.2,3.6-59.3,4.1z M-52.4-17.5c-0.2-0.9-0.4-1.7-0.7-2.5
			c-0.1-0.1-0.1-0.2-0.2-0.1c-1.2,0.1-2.4,0.2-3.6,0.2c-1.7,0.1-3.4,0.2-5.1,0.3c-0.1,0-0.2,0.1-0.2,0.2c-0.1,0.4-0.2,0.7-0.2,1.1
			c-0.1,0.5-0.1,0.9-0.2,1.4C-59.2-17-55.8-17.2-52.4-17.5z M-55.9,7.1c1-0.1,2-0.1,3-0.2c0.5,0,0.8-0.4,0.8-0.9
			c0-0.5-0.2-1-0.4-1.5c-0.1-0.1-0.1-0.1-0.2-0.1c-1,0.3-2,0.5-3,0.6C-57,5.1-58.2,5-59.4,4.9c-0.1,0-0.2,0-0.2,0.1
			c-0.1,0.5-0.2,1-0.2,1.5c0,0.5,0.4,0.8,0.9,0.8C-57.9,7.2-56.9,7.2-55.9,7.1z"/>
		<path class="st0" d="M-59.3,4.1c0.1-0.5,0.3-1,0.4-1.6c0.3-1.6,0.2-3.1-0.2-4.7c-0.5-1.9-1.1-3.6-1.8-5.4
			c-0.5-1.6-1.1-3.2-1.5-4.8c-0.3-1.2-0.5-2.4-0.4-3.6c0,0,0-0.1,0-0.1c3.5-0.2,7-0.5,10.5-0.7c0,0.6,0.1,1.2,0.1,1.8
			c0,2.1-0.4,4.1-0.8,6.1C-53.2-6.9-53.6-5-53.9-3c-0.3,1.9-0.2,3.8,0.5,5.6c0.1,0.2,0.2,0.4,0.2,0.6c0.1,0.2,0.2,0.4,0.3,0.5
			C-54.1,4.2-57.9,4.5-59.3,4.1z"/>
		<path class="st0" d="M-55.9,7.1c-1,0.1-2,0.1-3,0.2c-0.5,0-0.9-0.3-0.9-0.8c0-0.5,0.1-1,0.2-1.5c0-0.1,0.1-0.1,0.2-0.1
			C-58.2,5-57,5.1-55.8,5c1-0.1,2.1-0.3,3-0.6c0.1,0,0.2,0,0.2,0.1c0.2,0.5,0.4,1,0.4,1.5c0,0.5-0.3,0.9-0.8,0.9
			C-53.9,7-54.9,7-55.9,7.1z"/>
	</g>
</g>
<g>
	<path class="st0" d="M34.1,34.7c-5.5,0.4-11,0.8-16.5,1.3c-0.4-5.8-0.9-11.6-1.3-17.4c0.7-0.1,1.4-0.1,2.3-0.2
		c0-0.4-0.1-0.8-0.1-1.1c-0.1-1.6,1-2.9,2.6-3c1.9-0.2,3.8-0.3,5.7-0.5c1.6-0.1,2.9,1.1,3,2.6c0,0.3,0.1,0.6,0.1,1.1
		c1-0.1,2-0.2,3-0.2C33.2,23.1,33.6,28.8,34.1,34.7z M27.7,17.6c0.1-1.6-0.2-1.9-1.7-1.8c-1.3,0.1-2.7,0.2-4,0.3
		c-1.5,0.1-1.8,0.5-1.4,2.1C22.9,17.9,25.3,17.7,27.7,17.6z"/>
	<path class="st0" d="M14.5,18.6c0.5,5.9,0.9,11.6,1.3,17.4c-1.1,0.1-2.1,0.2-3.2,0.2c-0.6,0-1.2-0.7-1.2-1.3
		c-0.3-3.9-0.6-7.8-0.9-11.7c-0.1-0.8-0.1-1.7-0.2-2.5c-0.1-1,0.4-1.7,1.4-1.8C12.6,18.7,13.5,18.7,14.5,18.6z"/>
	<path class="st0" d="M35.8,34.6c-0.5-5.9-0.9-11.6-1.3-17.4c1-0.1,1.9-0.2,2.8-0.2c0.7,0,1.3,0.7,1.3,1.4c0.4,4.8,0.7,9.6,1.1,14.4
		c0.1,0.8-0.4,1.4-1.1,1.6C37.7,34.5,36.8,34.5,35.8,34.6z"/>
</g>
<g>
	<path class="st0" d="M243.4-44.3c1,0.4,0.8,1.2,0.8,2c-4.4,0-8.7,0-13.1,0c-0.1-1.2-0.1-1.7,0.8-2
		C235.7-44.3,239.6-44.3,243.4-44.3z"/>
	<path class="st0" d="M241.3-37.6c0,7.1,0,14.1,0,21.2c-4.5-0.2-8.9-0.5-13.4-0.7c0-6.8,0-13.6,0-20.4
		C232.4-37.6,236.8-37.6,241.3-37.6z M228.5-28.3c4.1,0,8.2,0.1,12.3,0.1c0-1,0-1.9,0-2.9c-4.1,0-8.2,0-12.3,0
		C228.5-30.1,228.5-29.2,228.5-28.3z"/>
	<path class="st0" d="M241.6-37.6c2,0,4,0,6.1,0c0,0.1,0,0.2,0,0.3c0,6.3,0,12.7,0,19c0,0.2-0.1,0.3-0.3,0.3c-1.8,0.5-3.7,1-5.5,1.5
		c-0.1,0-0.2,0-0.3,0.1C241.6-23.5,241.6-30.6,241.6-37.6z M247.2-28.9c0-0.9,0-1.7,0-2.6c-1.8,0.1-3.5,0.3-5.3,0.4
		c0,0.9,0,1.8,0,2.8C243.7-28.5,245.5-28.7,247.2-28.9z"/>
	<path class="st0" d="M227.9-37.9c0.3-0.3,0.5-0.6,0.7-0.9c0.8-1,1.5-2,2.3-3c0.1-0.1,0.2-0.2,0.4-0.2c4.2,0,8.4,0,12.6,0
		c0.1,0,0.1,0,0.2,0c-0.1,0.1-0.1,0.2-0.1,0.2c-0.9,1.2-1.7,2.5-2.6,3.7c-0.1,0.1-0.2,0.2-0.3,0.2c-4.3,0-8.7,0-13,0
		C228-37.9,228-37.9,227.9-37.9z"/>
	<path class="st0" d="M244.3-42.1c1.1,1.4,2.2,2.7,3.3,4.1c-2,0-4,0-6.1,0C242.5-39.3,243.4-40.7,244.3-42.1z"/>
	<path class="st0" d="M247.2-28.9c-1.8,0.2-3.5,0.4-5.3,0.6c0-0.9,0-1.8,0-2.8c1.8-0.1,3.5-0.3,5.3-0.4
		C247.2-30.6,247.2-29.8,247.2-28.9z"/>
</g>
<g>
	<path class="st0" d="M64-53.9c0.7,2.7,2.9,3.8,4.6,3.7c1.8-0.1,4-1.5,4.3-4.3c0.3,0,0.7,0.1,1,0.1c2.4,0.3,4.5,1.3,6.2,3
		c1.3,1.2,2.6,2.5,3.9,3.8c0.2,0.2,0.3,0.4,0,0.7c-0.8,1.1-1.7,2.1-2.5,3.1c-0.3,0.3-0.4,0.3-0.7,0c-1.1-1.1-2.1-2.1-3.2-3.2
		c-0.1-0.1-0.2-0.3-0.4-0.2c-0.2,0.1-0.3,0.2-0.3,0.5c0.3,5.7,0.6,11.4,0.9,17c0,0.6,0,0.7-0.6,0.7c-5,0.3-9.9,0.5-14.9,0.8
		c-0.5,0-0.6-0.1-0.6-0.6c-0.3-5.7-0.6-11.5-1-17.2c0-0.1,0-0.3-0.1-0.4c-0.2-0.1-0.3-0.1-0.5,0.1c-0.9,1.2-1.9,2.4-2.9,3.6
		c-0.3,0.4-0.4,0.4-0.8,0c-0.9-0.9-1.9-1.9-2.8-2.8c-0.2-0.2-0.3-0.5-0.1-0.7c1.2-1.4,2.3-2.8,3.5-4.2c1.7-2,3.9-3.2,6.4-3.7
		C63.7-53.8,63.9-53.9,64-53.9z"/>
	<path class="st0" d="M67.8-54.1c0-0.4,0-0.8-0.1-1.2c0.5,0,0.9,0,1.2-0.5c0.1-0.2,0.2-0.5,0.2-0.8c0-0.6-0.5-1-1.1-1
		c-0.6,0-1,0.4-1.1,1.2c-0.1,0-0.2,0-0.3,0c-0.1,0-0.2,0-0.3,0c-0.1-0.7,0.4-1.5,1.1-1.8c0.8-0.3,1.6,0,2.1,0.7
		c0.7,1,0.3,2.3-0.8,2.8c-0.3,0.1-0.2,0.3-0.2,0.6c1.3-0.1,2.7-0.1,4-0.2c0,0.8,0,0.8-0.8,0.9c-2.3,0.1-4.5,0.2-6.8,0.4
		c-0.3,0-0.5-0.1-0.5-0.4c0-0.1-0.1-0.3-0.1-0.4C65.5-54,66.7-54,67.8-54.1z"/>
</g>
<g>
	<path class="st0" d="M17.2-20.8C17.2-20.8,17.2-20.8,17.2-20.8c-0.8-0.8-1.5-1.5-2.3-2.3c0.5-0.7,0.6-1.2,0.4-2
		c-0.2-0.9-0.7-1.6-1.5-2.2c-0.9-0.7-2.3-1.1-3.3-0.3c-0.8-0.8-1.5-1.5-2.2-2.2c5.3-5.3,10.7-10.7,16.1-16.1
		c0.2,0.3,0.5,0.6,0.8,0.8c0.2-0.2,0.4-0.4,0.6-0.6c-0.3-0.3-0.6-0.5-0.9-0.8c0.1-0.1,0.1-0.1,0.2-0.2c1.1-1.1,2.2-2.2,3.3-3.3
		c0.4,0.4,0.8,0.8,1.2,1.2c0.4,0.4,0.8,0.8,1.2,1.2c-0.7,0.4-1,1-0.9,1.8c0,1.6,1.6,3.3,3.2,3.4c0.6,0.1,1.2,0,1.6-0.5
		c0.1-0.1,0.2-0.3,0.4-0.5c0.1,0.1,0.1,0.2,0.2,0.3c0.7,0.7,1.4,1.4,2.1,2c0,0,0,0,0,0.1c-0.1,0.1-0.1,0.1-0.2,0.2
		C30.5-34.2,23.9-27.6,17.4-21C17.3-21,17.3-20.9,17.2-20.8z M28.4-42.9c-0.4-0.4-0.9-0.9-1.3-1.3c-0.1,0.2-0.3,0.3-0.5,0.5
		c0.4,0.4,0.9,0.8,1.3,1.3C28-42.5,28.2-42.7,28.4-42.9z M31.9-38.4c0.4,0.4,0.9,0.9,1.3,1.3c0.1-0.2,0.3-0.3,0.4-0.5
		c-0.4-0.4-0.9-0.9-1.3-1.3C32.2-38.7,32-38.5,31.9-38.4z M31-40.2c-0.4-0.4-0.9-0.9-1.3-1.3c-0.2,0.1-0.3,0.3-0.5,0.4
		c0.4,0.4,0.9,0.9,1.3,1.3C30.7-39.9,30.8-40.1,31-40.2z"/>
</g>
<polygon class="st0" points="205.6,-43.1 209.7,-34.7 218.9,-33.4 212.3,-26.9 213.8,-17.7 205.6,-22 197.3,-17.7 198.9,-26.9 
	192.2,-33.4 201.4,-34.7 "/>
</svg>
