<?xml version="1.0" encoding="utf-8"?>
<!-- Generator: Adobe Illustrator 22.0.0, SVG Export Plug-In . SVG Version: 6.00 Build 0)  -->
<svg version="1.1" id="Capa_1" xmlns="http://www.w3.org/2000/svg" xmlns:xlink="http://www.w3.org/1999/xlink" x="0px" y="0px"
	 viewBox="0 0 50 50" style="enable-background:new 0 0 50 50;" xml:space="preserve">
<style type="text/css">
	.st0{fill:url(#SVGID_1_);}
</style>
<linearGradient id="SVGID_1_" gradientUnits="userSpaceOnUse" x1="7.8384" y1="25" x2="42.1616" y2="25">
	<stop  offset="0" style="stop-color:#FD8725"/>
	<stop  offset="0.2499" style="stop-color:#FE772E"/>
	<stop  offset="0.7125" style="stop-color:#FF603B"/>
	<stop  offset="1" style="stop-color:#FF5740"/>
</linearGradient>
<path class="st0" d="M28,25l13.6-13.6c0.8-0.8,0.8-2.1,0-3s-2.1-0.8-3,0L25,22L11.4,8.5c-0.8-0.8-2.1-0.8-3,0s-0.8,2.1,0,3L22,25
	L8.5,38.6c-0.8,0.8-0.8,2.1,0,3c0.4,0.4,0.9,0.6,1.5,0.6c0.5,0,1.1-0.2,1.5-0.6L25,28l13.6,13.6c0.4,0.4,0.9,0.6,1.5,0.6
	c0.5,0,1.1-0.2,1.5-0.6c0.8-0.8,0.8-2.1,0-3L28,25z"/>
</svg>
