<?xml version="1.0" encoding="utf-8"?>
<!-- Generator: Adobe Illustrator 22.0.0, SVG Export Plug-In . SVG Version: 6.00 Build 0)  -->
<svg version="1.1" id="Capa_1" xmlns="http://www.w3.org/2000/svg" xmlns:xlink="http://www.w3.org/1999/xlink" x="0px" y="0px"
	 viewBox="0 0 50 50" style="enable-background:new 0 0 50 50;" xml:space="preserve">
<style type="text/css">
	.st0{fill:#FFFFFF;}
</style>
<path class="st0" d="M28,25l13.6-13.6c0.8-0.8,0.8-2.2,0-3c-0.8-0.8-2.2-0.8-3,0L25,22L11.4,8.4c-0.8-0.8-2.2-0.8-3,0
	c-0.8,0.8-0.8,2.2,0,3L22,25L8.4,38.6c-0.8,0.8-0.8,2.2,0,3c0.4,0.4,0.9,0.6,1.5,0.6s1.1-0.2,1.5-0.6L25,28l13.6,13.6
	c0.4,0.4,0.9,0.6,1.5,0.6s1.1-0.2,1.5-0.6c0.8-0.8,0.8-2.2,0-3L28,25z"/>
</svg>
