<?xml version="1.0" encoding="UTF-8" standalone="no"?>
<!-- Created with Inkscape (http://www.inkscape.org/) -->

<svg
   xmlns:dc="http://purl.org/dc/elements/1.1/"
   xmlns:cc="http://creativecommons.org/ns#"
   xmlns:rdf="http://www.w3.org/1999/02/22-rdf-syntax-ns#"
   xmlns:svg="http://www.w3.org/2000/svg"
   xmlns="http://www.w3.org/2000/svg"
   xmlns:sodipodi="http://sodipodi.sourceforge.net/DTD/sodipodi-0.dtd"
   xmlns:inkscape="http://www.inkscape.org/namespaces/inkscape"
   version="1.1"
   id="svg984"
   xml:space="preserve"
   width="700"
   height="400"
   viewBox="0 0 700 400"
   sodipodi:docname="Encabezado-texto3.svg"
   inkscape:version="0.92.3 (2405546, 2018-03-11)"
   inkscape:export-filename="/home/josher/proyects/WebsiteCEREBRO/img/Encabezado-texto1.png"
   inkscape:export-xdpi="0.120952"
   inkscape:export-ydpi="0.120952"><metadata
     id="metadata990"><rdf:RDF><cc:Work
         rdf:about=""><dc:format>image/svg+xml</dc:format><dc:type
           rdf:resource="http://purl.org/dc/dcmitype/StillImage" /><dc:title></dc:title></cc:Work></rdf:RDF></metadata><defs
     id="defs988"><clipPath
       clipPathUnits="userSpaceOnUse"
       id="clipPath1000"><path
         d="M 0,1080 H 1920 V 0 H 0 Z"
         id="path998"
         inkscape:connector-curvature="0" /></clipPath></defs><sodipodi:namedview
     pagecolor="#ffffff"
     bordercolor="#666666"
     borderopacity="1"
     objecttolerance="10"
     gridtolerance="10"
     guidetolerance="10"
     inkscape:pageopacity="0"
     inkscape:pageshadow="2"
     inkscape:window-width="1366"
     inkscape:window-height="717"
     id="namedview986"
     showgrid="false"
     inkscape:zoom="0.30390625"
     inkscape:cx="583.80611"
     inkscape:cy="611.33349"
     inkscape:window-x="0"
     inkscape:window-y="25"
     inkscape:window-maximized="1"
     inkscape:current-layer="g992" /><g
     id="g992"
     inkscape:groupmode="layer"
     inkscape:label="Encabezado-textos"
     transform="matrix(1.3333333,0,0,-1.3333333,0,400)"><g
       id="g1955"
       transform="matrix(1,0.08629483,0,1,-492.15551,473.49467)"><g
         transform="translate(796.4062,402.3789)"
         id="g1002"><path
           inkscape:connector-curvature="0"
           id="path1004"
           style="fill:#000000;fill-opacity:1;fill-rule:nonzero;stroke:none"
           d="m 0,0 c -1.805,0 -3.386,-0.278 -4.739,-0.827 -1.353,-0.553 -2.482,-1.204 -3.383,-1.956 -0.904,-0.752 -1.606,-1.579 -2.107,-2.484 -0.502,-0.902 -0.752,-1.705 -0.752,-2.406 v -3.61 c 0,-2.308 1.202,-4.162 3.61,-5.566 2.407,-1.405 5.415,-2.759 9.025,-4.062 3.611,-1.305 7.522,-2.734 11.735,-4.287 4.213,-1.556 8.124,-3.562 11.734,-6.017 3.61,-2.459 6.618,-5.542 9.026,-9.251 2.405,-3.713 3.61,-8.425 3.61,-14.141 v -6.318 c 0,-5.216 -0.978,-9.756 -2.934,-13.615 -1.955,-3.861 -4.641,-7.046 -8.047,-9.552 -3.411,-2.506 -7.399,-4.387 -11.96,-5.64 -4.565,-1.254 -9.454,-1.881 -14.668,-1.881 -5.315,0 -10.281,0.627 -14.892,1.881 -4.614,1.253 -8.651,3.134 -12.11,5.64 -3.46,2.506 -6.194,5.691 -8.199,9.552 -2.006,3.859 -3.008,8.399 -3.008,13.615 v 8.274 h 27.078 v -7.072 c 0,-0.702 0.224,-1.504 0.676,-2.406 0.452,-0.902 1.129,-1.729 2.032,-2.481 0.902,-0.753 2.03,-1.407 3.383,-1.956 1.356,-0.553 2.883,-0.828 4.589,-0.828 1.805,0 3.385,0.275 4.738,0.828 1.356,0.549 2.482,1.203 3.386,1.956 0.901,0.752 1.603,1.579 2.106,2.481 0.501,0.902 0.751,1.704 0.751,2.406 v 3.611 c 0,2.306 -1.203,4.161 -3.61,5.566 -2.405,1.403 -5.416,2.758 -9.026,4.062 -3.61,1.302 -7.522,2.731 -11.732,4.287 -4.213,1.553 -8.124,3.559 -11.734,6.017 -3.611,2.457 -6.621,5.54 -9.026,9.252 -2.408,3.709 -3.611,8.424 -3.611,14.141 v 6.318 c 0,5.213 0.978,9.752 2.934,13.614 1.956,3.859 4.637,7.044 8.048,9.552 3.409,2.506 7.394,4.386 11.959,5.642 4.563,1.253 9.452,1.881 14.666,1.881 5.316,0 10.279,-0.628 14.893,-1.881 4.611,-1.256 8.65,-3.136 12.11,-5.642 3.459,-2.508 6.191,-5.693 8.198,-9.552 2.007,-3.862 3.01,-8.401 3.01,-13.614 v -8.273 H 10.68 v 7.069 c 0,1.604 -0.927,3.284 -2.783,5.04 C 6.041,-0.88 3.409,0 0,0" /></g><path
         inkscape:connector-curvature="0"
         id="path1006"
         style="fill:#000000;fill-opacity:1;fill-rule:nonzero;stroke:none"
         d="m 868.011,319.791 h -24.069 v 78.375 h 24.069 z m 0,83.791 h -24.069 v 13.237 h 24.069 z" /><g
         transform="translate(907.4224,378.9111)"
         id="g1008"><path
           inkscape:connector-curvature="0"
           id="path1010"
           style="fill:#000000;fill-opacity:1;fill-rule:nonzero;stroke:none"
           d="m 0,0 v -38.661 c 0,-0.902 0.301,-1.579 0.902,-2.031 0.602,-0.451 1.204,-0.677 1.805,-0.677 0.501,0 1.077,0.226 1.73,0.677 0.652,0.452 0.979,1.129 0.979,2.031 v 20.459 h 20.609 v -21.361 c 0,-3.611 -0.677,-6.77 -2.032,-9.478 -1.353,-2.708 -3.184,-4.99 -5.49,-6.844 -2.308,-1.857 -4.942,-3.235 -7.899,-4.137 -2.959,-0.903 -6.092,-1.355 -9.401,-1.355 -3.712,0 -7.096,0.452 -10.154,1.355 -3.061,0.902 -5.717,2.28 -7.974,4.137 -2.255,1.854 -4.011,4.136 -5.264,6.844 -1.256,2.708 -1.88,5.867 -1.88,9.478 V 0 h -8.275 v 19.255 h 8.275 V 33.546 H 0 V 19.255 H 26.025 V 0 Z" /></g><path
         inkscape:connector-curvature="0"
         id="path1012"
         style="fill:#000000;fill-opacity:1;fill-rule:nonzero;stroke:none"
         d="m 966.841,319.791 h -24.069 v 78.375 h 24.069 z m 0,83.791 h -24.069 v 13.237 h 24.069 z" /><g
         transform="translate(1005.8008,335.4365)"
         id="g1014"><path
           inkscape:connector-curvature="0"
           id="path1016"
           style="fill:#000000;fill-opacity:1;fill-rule:nonzero;stroke:none"
           d="m 0,0 c 1.104,0 2.231,0.274 3.386,0.827 1.151,0.55 1.728,1.679 1.728,3.385 v 38.661 c 0,1.704 -0.577,2.832 -1.728,3.384 -1.155,0.551 -2.282,0.828 -3.386,0.828 -1.105,0 -2.233,-0.277 -3.386,-0.828 -1.153,-0.552 -1.728,-1.68 -1.728,-3.384 V 4.212 c 0,-1.706 0.575,-2.835 1.728,-3.385 C -2.233,0.274 -1.105,0 0,0 m 0,64.986 c 4.813,0 9.025,-0.676 12.636,-2.031 3.61,-1.353 6.643,-3.184 9.102,-5.49 2.456,-2.309 4.31,-4.99 5.566,-8.048 1.252,-3.062 1.88,-6.345 1.88,-9.854 V 7.521 c 0,-3.511 -0.628,-6.795 -1.88,-9.853 -1.256,-3.061 -3.11,-5.743 -5.566,-8.049 -2.459,-2.307 -5.492,-4.136 -9.102,-5.49 C 9.025,-17.225 4.813,-17.902 0,-17.902 c -4.812,0 -9.025,0.677 -12.636,2.031 -3.61,1.354 -6.645,3.183 -9.101,5.49 -2.459,2.306 -4.313,4.988 -5.567,8.049 -1.256,3.058 -1.88,6.342 -1.88,9.853 v 32.042 c 0,3.509 0.624,6.792 1.88,9.854 1.254,3.058 3.108,5.739 5.567,8.048 2.456,2.306 5.491,4.137 9.101,5.49 3.611,1.355 7.824,2.031 12.636,2.031" /></g><g
         transform="translate(1089.7832,381.0176)"
         id="g1018"><path
           inkscape:connector-curvature="0"
           id="path1020"
           style="fill:#000000;fill-opacity:1;fill-rule:nonzero;stroke:none"
           d="M 0,0 C -1.708,0 -3.187,-0.452 -4.437,-1.354 -5.693,-2.258 -6.319,-3.61 -6.319,-5.416 v -33.245 c 0,-1.406 0.526,-2.659 1.58,-3.761 1.052,-1.105 2.633,-1.655 4.739,-1.655 1.703,0 3.084,0.55 4.136,1.655 1.054,1.102 1.58,2.355 1.58,3.761 v 33.245 c 0,1.806 -0.602,3.158 -1.805,4.062 C 2.706,-0.452 1.401,0 0,0 M 29.785,37.307 V -61.227 H 5.415 v 6.168 c -2.106,-2.808 -4.49,-4.839 -7.146,-6.092 -2.658,-1.252 -5.392,-1.88 -8.199,-1.88 -3.411,0 -6.393,0.677 -8.949,2.031 -2.558,1.353 -4.689,3.208 -6.395,5.565 -1.705,2.355 -2.985,5.039 -3.835,8.048 -0.853,3.009 -1.28,6.167 -1.28,9.478 v 30.387 c 0,3.509 0.326,6.894 0.979,10.154 0.65,3.258 1.779,6.116 3.385,8.575 1.603,2.456 3.735,4.438 6.393,5.941 2.655,1.505 5.99,2.257 10.004,2.257 2.907,0 5.79,-0.552 8.649,-1.654 2.858,-1.105 5.041,-2.96 6.544,-5.566 v 25.122 z" /></g><g
         transform="translate(1164.998,377.707)"
         id="g1022"><path
           inkscape:connector-curvature="0"
           id="path1024"
           style="fill:#000000;fill-opacity:1;fill-rule:nonzero;stroke:none"
           d="m 0,0 c 0,1.204 -0.552,2.431 -1.654,3.686 -1.106,1.253 -2.408,1.88 -3.912,1.88 -1.805,0 -3.26,-0.627 -4.364,-1.88 C -11.032,2.431 -11.584,1.204 -11.584,0 V -9.928 H 0 Z m 16.999,-52.274 c -4.716,-5.265 -12.035,-7.899 -21.963,-7.899 -10.432,0 -18.153,2.532 -23.167,7.598 -5.016,5.062 -7.522,13.012 -7.522,23.843 v 18.653 c 0,4.913 0.501,9.402 1.504,13.465 1.002,4.06 2.683,7.521 5.04,10.38 2.356,2.857 5.492,5.062 9.403,6.618 3.909,1.553 8.773,2.332 14.592,2.332 5.114,0 9.526,-0.779 13.238,-2.332 3.708,-1.556 6.743,-3.587 9.1,-6.092 2.354,-2.509 4.086,-5.292 5.19,-8.35 1.104,-3.059 1.655,-6.143 1.655,-9.251 v -20.308 h -35.653 v -14.442 c 0,-1.706 0.728,-2.96 2.183,-3.76 1.451,-0.804 2.783,-1.203 3.986,-1.203 1.302,0 2.606,0.399 3.911,1.203 1.303,0.8 1.956,2.054 1.956,3.76 v 7.823 h 23.617 c 0,-9.428 -2.357,-16.774 -7.07,-22.038" /></g><g
         transform="translate(745.1216,279.5342)"
         id="g1026"><path
           inkscape:connector-curvature="0"
           id="path1028"
           style="fill:#000000;fill-opacity:1;fill-rule:nonzero;stroke:none"
           d="m 0,0 c -2.059,0 -3.883,-0.284 -5.474,-0.848 -1.596,-0.566 -2.93,-1.233 -4.009,-2.004 -1.078,-0.77 -1.902,-1.619 -2.467,-2.544 -0.565,-0.925 -0.848,-1.749 -0.848,-2.466 v -53.344 c 0,-0.72 0.283,-1.541 0.848,-2.466 0.565,-0.925 1.361,-1.773 2.391,-2.544 1.026,-0.771 2.311,-1.441 3.854,-2.004 1.542,-0.566 3.337,-0.847 5.396,-0.847 2.055,0 3.878,0.281 5.472,0.847 1.593,0.563 2.93,1.233 4.008,2.004 1.081,0.771 1.903,1.619 2.468,2.544 0.563,0.925 0.848,1.746 0.848,2.466 v 53.344 c 0,1.643 -1.107,3.365 -3.316,5.165 C 6.96,-0.9 3.904,0 0,0 m 0.152,-93.89 c -5.652,0 -10.945,0.643 -15.878,1.928 -4.935,1.285 -9.25,3.213 -12.95,5.781 -3.7,2.568 -6.607,5.831 -8.711,9.789 -2.109,3.955 -3.161,8.608 -3.161,13.954 v 55.809 c 0,5.343 1.027,9.994 3.083,13.952 2.054,3.955 4.906,7.22 8.556,9.79 3.648,2.568 7.913,4.494 12.798,5.782 4.881,1.284 10.098,1.927 15.648,1.927 5.65,0 10.945,-0.643 15.878,-1.927 4.935,-1.288 9.252,-3.214 12.952,-5.782 3.7,-2.57 6.602,-5.835 8.711,-9.79 2.104,-3.958 3.159,-8.609 3.159,-13.952 v -55.809 c 0,-5.346 -1.029,-9.999 -3.083,-13.954 -2.056,-3.958 -4.909,-7.221 -8.556,-9.789 -3.65,-2.568 -7.916,-4.496 -12.796,-5.781 -4.883,-1.285 -10.098,-1.928 -15.65,-1.928" /></g><g
         transform="translate(804.3213,275.2168)"
         id="g1030"><path
           inkscape:connector-curvature="0"
           id="path1032"
           style="fill:#000000;fill-opacity:1;fill-rule:nonzero;stroke:none"
           d="m 0,0 v 3.7 c 0,3.803 0.771,7.144 2.313,10.022 1.541,2.876 3.674,5.241 6.397,7.091 2.723,1.85 5.959,3.239 9.714,4.164 3.75,0.924 7.784,1.387 12.102,1.387 h 8.171 V 8.942 H 33.763 C 30.78,8.942 28.521,8.402 26.98,7.324 25.439,6.245 24.667,4.215 24.667,1.234 V 0 h 14.03 V -18.499 H 24.667 V -80.322 H 0 v 61.823 H -10.483 V 0 Z" /></g><g
         transform="translate(886.4927,254.25)"
         id="g1034"><path
           inkscape:connector-curvature="0"
           id="path1036"
           style="fill:#000000;fill-opacity:1;fill-rule:nonzero;stroke:none"
           d="m 0,0 c 0,1.233 -0.565,2.491 -1.696,3.777 -1.133,1.285 -2.467,1.927 -4.009,1.927 -1.85,0 -3.341,-0.642 -4.471,-1.927 C -11.307,2.491 -11.872,1.233 -11.872,0 V -10.175 H 0 Z m 17.421,-53.574 c -4.832,-5.396 -12.334,-8.094 -22.508,-8.094 -10.691,0 -18.604,2.595 -23.744,7.785 -5.141,5.19 -7.708,13.336 -7.708,24.437 v 19.117 c 0,5.034 0.513,9.636 1.541,13.799 1.026,4.162 2.75,7.708 5.165,10.637 2.416,2.929 5.628,5.189 9.637,6.783 4.007,1.592 8.991,2.39 14.954,2.39 5.242,0 9.763,-0.798 13.568,-2.39 3.8,-1.594 6.911,-3.676 9.326,-6.244 2.413,-2.57 4.187,-5.422 5.319,-8.556 1.131,-3.136 1.696,-6.297 1.696,-9.482 v -20.812 h -36.539 v -14.8 c 0,-1.749 0.746,-3.034 2.237,-3.854 1.487,-0.825 2.852,-1.234 4.085,-1.234 1.335,0 2.672,0.409 4.008,1.234 1.335,0.82 2.005,2.105 2.005,3.854 v 8.016 h 24.204 c 0,-9.661 -2.415,-17.19 -7.246,-22.586" /></g><g
         transform="translate(971.4395,232.9746)"
         id="g1038"><path
           inkscape:connector-curvature="0"
           id="path1040"
           style="fill:#000000;fill-opacity:1;fill-rule:nonzero;stroke:none"
           d="m 0,0 h -19.271 v 20.659 c 0,0.821 -0.385,1.465 -1.157,1.927 -0.769,0.463 -1.463,0.693 -2.08,0.693 -0.515,0 -1.157,-0.23 -1.929,-0.693 -0.769,-0.462 -1.154,-1.106 -1.154,-1.927 V -38.08 h -24.667 v 80.322 h 21.428 v -5.857 c 2.055,2.876 4.087,4.932 6.091,6.167 2.003,1.233 4.907,1.849 8.709,1.849 2.776,0 5.063,-0.489 6.861,-1.463 1.798,-0.979 3.239,-2.263 4.317,-3.855 1.079,-1.595 1.824,-3.47 2.235,-5.627 C -0.206,31.297 0,28.984 0,26.518 Z" /></g><g
         transform="translate(1009.5176,255.4834)"
         id="g1042"><path
           inkscape:connector-curvature="0"
           id="path1044"
           style="fill:#000000;fill-opacity:1;fill-rule:nonzero;stroke:none"
           d="m 0,0 v -39.621 c 0,-0.925 0.309,-1.619 0.927,-2.082 0.615,-0.462 1.232,-0.693 1.849,-0.693 0.513,0 1.103,0.231 1.772,0.693 0.668,0.463 1.003,1.157 1.003,2.082 v 20.967 h 21.121 v -21.892 c 0,-3.7 -0.693,-6.938 -2.08,-9.714 -1.39,-2.774 -3.266,-5.113 -5.629,-7.013 -2.365,-1.904 -5.063,-3.316 -8.093,-4.241 -3.033,-0.924 -6.244,-1.387 -9.635,-1.387 -3.804,0 -7.274,0.463 -10.406,1.387 -3.138,0.925 -5.859,2.337 -8.172,4.241 -2.313,1.9 -4.113,4.239 -5.395,7.013 -1.287,2.776 -1.929,6.014 -1.929,9.714 V 0 h -8.479 v 19.733 h 8.479 V 34.381 H 0 V 19.733 H 26.672 V 0 Z" /></g><g
         transform="translate(1080.5889,227.1162)"
         id="g1046"><path
           inkscape:connector-curvature="0"
           id="path1048"
           style="fill:#000000;fill-opacity:1;fill-rule:nonzero;stroke:none"
           d="m 0,0 c -1.85,-0.515 -3.571,-0.874 -5.165,-1.079 -1.593,-0.207 -3.006,-0.567 -4.239,-1.079 -1.233,-0.516 -2.21,-1.337 -2.928,-2.467 -0.722,-1.133 -1.08,-2.878 -1.08,-5.242 0,-3.494 1.695,-5.241 5.089,-5.241 1.849,0 3.7,0.616 5.55,1.849 1.849,1.235 2.773,3.084 2.773,5.55 z m -35.149,23.588 c 0,9.25 2.698,16.034 8.093,20.351 5.396,4.316 12.616,6.475 21.66,6.475 3.701,0 7.27,-0.362 10.716,-1.079 3.442,-0.721 6.5,-1.851 9.174,-3.392 2.669,-1.542 4.828,-3.547 6.474,-6.012 1.643,-2.467 2.468,-5.396 2.468,-8.788 v -51.647 c 0,-0.925 0.099,-1.954 0.308,-3.084 0.204,-1.133 0.461,-2.262 0.77,-3.392 0.308,-1.131 0.617,-2.185 0.925,-3.16 0.309,-0.978 0.564,-1.672 0.77,-2.082 H 2.931 c -0.722,0.925 -1.311,2.005 -1.774,3.239 -0.463,1.232 -0.847,2.413 -1.157,3.546 -2.158,-2.572 -4.856,-4.73 -8.093,-6.476 -3.237,-1.746 -6.656,-2.621 -10.252,-2.621 -4.009,0 -7.246,0.694 -9.714,2.081 -2.466,1.389 -4.369,3.211 -5.704,5.473 -1.337,2.259 -2.234,4.779 -2.697,7.555 -0.463,2.776 -0.693,5.497 -0.693,8.171 0,4.726 0.512,8.557 1.541,11.485 1.026,2.93 2.413,5.216 4.163,6.862 1.745,1.642 3.723,2.799 5.934,3.468 2.209,0.668 4.446,1.129 6.706,1.387 2.259,0.255 4.496,0.437 6.707,0.54 2.209,0.101 4.187,0.409 5.935,0.925 1.439,0.513 2.826,1.284 4.163,2.312 C -0.669,16.752 0,17.984 0,19.426 v 7.246 c 0,2.158 -0.669,3.751 -2.004,4.779 -1.337,1.027 -2.569,1.541 -3.7,1.541 -1.133,0 -2.365,-0.514 -3.7,-1.541 -1.337,-1.028 -2.004,-2.621 -2.004,-4.779 v -9.867 h -23.741 z" /></g><g
         transform="translate(1151.9668,251.4746)"
         id="g1050"><path
           inkscape:connector-curvature="0"
           id="path1052"
           style="fill:#000000;fill-opacity:1;fill-rule:nonzero;stroke:none"
           d="M 0,0 C -0.102,1.543 -0.385,2.93 -0.848,4.163 -1.309,5.397 -2.056,6.399 -3.082,7.17 -4.11,7.94 -5.55,8.326 -7.399,8.326 c -2.057,0 -3.701,-0.617 -4.933,-1.849 -1.235,-1.234 -1.85,-2.88 -1.85,-4.934 0,-2.263 0.924,-3.932 2.774,-5.011 1.849,-1.08 4.186,-2.005 7.015,-2.775 2.826,-0.771 5.882,-1.618 9.174,-2.543 3.286,-0.926 6.345,-2.263 9.171,-4.009 2.826,-1.749 5.166,-4.14 7.016,-7.17 1.849,-3.032 2.776,-7.067 2.776,-12.102 0,-4.728 -0.722,-8.787 -2.159,-12.179 -1.441,-3.392 -3.47,-6.166 -6.089,-8.325 -2.622,-2.158 -5.759,-3.753 -9.404,-4.78 -3.651,-1.026 -7.738,-1.542 -12.257,-1.542 -10.793,0 -18.837,2.212 -24.128,6.629 -5.296,4.419 -7.941,11.819 -7.941,22.202 v 1.079 h 23.126 c 0,-1.749 0.102,-3.368 0.308,-4.857 0.205,-1.491 0.592,-2.801 1.157,-3.931 0.563,-1.131 1.334,-2.031 2.313,-2.698 0.976,-0.67 2.285,-1.003 3.931,-1.003 2.567,0 4.393,0.541 5.473,1.619 1.078,1.08 1.617,3.162 1.617,6.245 0,2.259 -0.949,3.931 -2.851,5.01 -1.902,1.078 -4.266,1.952 -7.092,2.621 -2.828,0.667 -5.91,1.412 -9.25,2.235 -3.341,0.822 -6.424,2.082 -9.25,3.777 -2.828,1.696 -5.191,4.086 -7.091,7.17 -1.904,3.083 -2.852,7.296 -2.852,12.642 0,3.904 0.639,7.477 1.926,10.715 1.285,3.237 3.29,6.012 6.013,8.324 2.722,2.313 6.113,4.086 10.176,5.32 4.059,1.233 8.865,1.85 14.415,1.85 4.007,0 7.785,-0.49 11.331,-1.465 3.545,-0.978 6.654,-2.57 9.328,-4.779 2.672,-2.211 4.802,-5.038 6.398,-8.48 C 22.483,7.888 23.28,3.7 23.28,-1.232 V -4.471 H 0.154 C 0.154,-3.032 0.103,-1.541 0,0" /></g><path
         inkscape:connector-curvature="0"
         id="path1054"
         style="fill:#000000;fill-opacity:1;fill-rule:nonzero;stroke:none"
         d="m 1192.513,213.087 h 24.667 V 188.42 h -24.667 z m -2.157,88.494 h 28.983 l -2.159,-80.015 h -24.667 z" /></g><g
       id="g1926"
       transform="matrix(1,0.08629483,0,1,-1034.5773,132.76785)"><g
         transform="translate(779.8467,535.0439)"
         id="g1056"><path
           inkscape:connector-curvature="0"
           id="path1058"
           style="fill:#000000;fill-opacity:1;fill-rule:nonzero;stroke:none"
           d="m 0,0 h 12.917 c 2.649,0 4.719,0.717 6.21,2.152 1.49,1.433 2.651,3.118 3.477,5.052 0.83,1.93 1.353,3.891 1.574,5.879 0.22,1.987 0.332,3.531 0.332,4.636 0,1.103 -0.112,2.676 -0.332,4.72 -0.221,2.041 -0.744,4.058 -1.574,6.045 -0.826,1.987 -2.015,3.698 -3.559,5.134 -1.547,1.434 -3.59,2.153 -6.128,2.153 L 0,35.771 Z m 11.923,62.434 c 10.046,0 17.886,-1.217 23.518,-3.644 5.63,-2.43 9.824,-5.687 12.586,-9.77 2.758,-4.087 4.442,-8.806 5.051,-14.16 0.605,-5.357 1.019,-10.959 1.24,-16.809 V 17.719 C 54.097,11.866 53.683,6.264 53.078,0.91 52.469,-4.446 50.785,-9.166 48.027,-13.249 45.265,-17.335 41.071,-20.593 35.441,-23.021 29.809,-25.45 21.969,-26.663 11.923,-26.663 H 0 V -59.122 H -29.81 V 62.434 Z" /></g><g
         transform="translate(882.1924,517.4893)"
         id="g1060"><path
           inkscape:connector-curvature="0"
           id="path1062"
           style="fill:#000000;fill-opacity:1;fill-rule:nonzero;stroke:none"
           d="m 0,0 c -1.987,-0.554 -3.837,-0.938 -5.548,-1.159 -1.712,-0.223 -3.23,-0.609 -4.554,-1.16 -1.324,-0.553 -2.375,-1.436 -3.146,-2.65 -0.774,-1.216 -1.16,-3.091 -1.16,-5.631 0,-3.754 1.822,-5.629 5.467,-5.629 1.987,0 3.974,0.662 5.962,1.987 C -0.993,-12.917 0,-10.93 0,-8.28 Z m -37.757,25.337 c 0,9.937 2.898,17.224 8.694,21.861 5.795,4.636 13.55,6.955 23.267,6.955 3.975,0 7.809,-0.388 11.51,-1.159 3.697,-0.774 6.982,-1.987 9.854,-3.643 2.868,-1.657 5.187,-3.809 6.954,-6.459 1.766,-2.649 2.651,-5.796 2.651,-9.44 v -55.477 c 0,-0.995 0.108,-2.1 0.332,-3.313 0.219,-1.217 0.495,-2.43 0.827,-3.644 0.331,-1.215 0.663,-2.347 0.994,-3.394 0.332,-1.051 0.605,-1.796 0.827,-2.236 H 3.148 c -0.775,0.994 -1.408,2.153 -1.906,3.478 -0.497,1.324 -0.91,2.592 -1.242,3.809 -2.319,-2.762 -5.217,-5.08 -8.694,-6.955 -3.477,-1.877 -7.15,-2.817 -11.013,-2.817 -4.306,0 -7.783,0.746 -10.433,2.237 -2.651,1.49 -4.693,3.448 -6.128,5.878 -1.436,2.427 -2.4,5.134 -2.898,8.116 -0.497,2.98 -0.744,5.904 -0.744,8.776 0,5.077 0.551,9.192 1.655,12.338 1.103,3.148 2.592,5.603 4.472,7.37 1.875,1.765 4,3.007 6.375,3.726 2.373,0.717 4.776,1.214 7.204,1.49 2.426,0.274 4.829,0.47 7.204,0.58 2.373,0.108 4.498,0.44 6.375,0.994 1.546,0.551 3.036,1.379 4.472,2.484 C -0.719,17.994 0,19.318 0,20.867 v 7.783 c 0,2.319 -0.719,4.029 -2.153,5.134 -1.436,1.102 -2.76,1.655 -3.974,1.655 -1.217,0 -2.541,-0.553 -3.975,-1.655 -1.436,-1.105 -2.153,-2.815 -2.153,-5.134 V 18.051 h -25.502 z" /></g><g
         transform="translate(958.8652,543.6548)"
         id="g1064"><path
           inkscape:connector-curvature="0"
           id="path1066"
           style="fill:#000000;fill-opacity:1;fill-rule:nonzero;stroke:none"
           d="m 0,0 c -0.11,1.657 -0.413,3.146 -0.911,4.472 -0.495,1.325 -1.298,2.402 -2.4,3.229 -1.105,0.828 -2.65,1.242 -4.638,1.242 -2.209,0 -3.974,-0.663 -5.299,-1.987 -1.326,-1.325 -1.986,-3.093 -1.986,-5.299 0,-2.43 0.992,-4.223 2.979,-5.383 1.987,-1.159 4.498,-2.153 7.536,-2.981 3.035,-0.828 6.319,-1.738 9.854,-2.732 3.531,-0.993 6.816,-2.43 9.852,-4.306 3.035,-1.879 5.548,-4.446 7.535,-7.702 1.988,-3.257 2.983,-7.591 2.983,-12.999 0,-5.079 -0.776,-9.44 -2.319,-13.083 -1.548,-3.643 -3.727,-6.624 -6.54,-8.942 -2.817,-2.32 -6.187,-4.032 -10.103,-5.134 -3.921,-1.103 -8.311,-1.657 -13.166,-1.657 -11.594,0 -20.234,2.376 -25.918,7.121 -5.688,4.746 -8.53,12.695 -8.53,23.848 v 1.159 h 24.842 c 0,-1.878 0.109,-3.617 0.331,-5.216 0.22,-1.603 0.635,-3.01 1.243,-4.224 0.604,-1.216 1.433,-2.18 2.484,-2.897 1.048,-0.72 2.454,-1.077 4.222,-1.077 2.758,0 4.72,0.58 5.88,1.738 1.158,1.16 1.737,3.395 1.737,6.708 0,2.428 -1.02,4.224 -3.064,5.383 -2.042,1.158 -4.581,2.095 -7.617,2.815 -3.038,0.717 -6.349,1.515 -9.936,2.401 -3.589,0.882 -6.9,2.235 -9.936,4.056 -3.038,1.823 -5.576,4.39 -7.617,7.702 -2.046,3.313 -3.064,7.838 -3.064,13.58 0,4.194 0.687,8.032 2.069,11.509 1.38,3.478 3.533,6.459 6.459,8.943 2.924,2.484 6.567,4.389 10.931,5.714 4.36,1.325 9.523,1.987 15.484,1.987 4.304,0 8.363,-0.526 12.172,-1.574 3.808,-1.05 7.147,-2.76 10.019,-5.134 2.87,-2.375 5.159,-5.41 6.873,-9.108 1.709,-3.7 2.567,-8.198 2.567,-13.496 V -4.802 H 0.166 C 0.166,-3.258 0.11,-1.656 0,0" /></g><g
         transform="translate(1031.8955,546.6353)"
         id="g1068"><path
           inkscape:connector-curvature="0"
           id="path1070"
           style="fill:#000000;fill-opacity:1;fill-rule:nonzero;stroke:none"
           d="m 0,0 c 0,1.325 -0.607,2.676 -1.821,4.058 -1.215,1.379 -2.649,2.07 -4.307,2.07 -1.987,0 -3.587,-0.691 -4.801,-2.07 C -12.146,2.676 -12.75,1.325 -12.75,0 V -10.929 H 0 Z m 18.714,-57.547 c -5.192,-5.796 -13.247,-8.696 -24.179,-8.696 -11.484,0 -19.984,2.787 -25.502,8.364 -5.522,5.574 -8.28,14.325 -8.28,26.249 v 20.535 c 0,5.408 0.551,10.35 1.655,14.822 1.103,4.471 2.952,8.281 5.549,11.427 2.592,3.146 6.043,5.573 10.349,7.286 4.306,1.71 9.661,2.567 16.064,2.567 5.63,0 10.487,-0.857 14.573,-2.567 4.084,-1.713 7.424,-3.949 10.021,-6.707 2.592,-2.761 4.497,-5.825 5.712,-9.191 1.214,-3.368 1.821,-6.764 1.821,-10.185 V -26 H -12.75 v -15.897 c 0,-1.879 0.799,-3.259 2.4,-4.141 1.6,-0.884 3.064,-1.325 4.388,-1.325 1.434,0 2.87,0.441 4.306,1.325 1.434,0.882 2.153,2.262 2.153,4.141 v 8.61 h 26 c 0,-10.379 -2.595,-18.464 -7.783,-24.26" /></g><g
         transform="translate(1098.7998,500.1006)"
         id="g1072"><path
           inkscape:connector-curvature="0"
           id="path1074"
           style="fill:#000000;fill-opacity:1;fill-rule:nonzero;stroke:none"
           d="m 0,0 c 1.215,0 2.457,0.302 3.728,0.91 1.267,0.607 1.903,1.849 1.903,3.728 v 42.56 c 0,1.876 -0.636,3.117 -1.903,3.726 -1.271,0.606 -2.513,0.91 -3.728,0.91 -1.216,0 -2.458,-0.304 -3.727,-0.91 -1.27,-0.609 -1.903,-1.85 -1.903,-3.726 V 4.638 C -5.63,2.759 -4.997,1.517 -3.727,0.91 -2.458,0.302 -1.216,0 0,0 m 0,71.542 c 5.299,0 9.937,-0.745 13.911,-2.236 3.975,-1.49 7.314,-3.506 10.021,-6.044 2.704,-2.541 4.745,-5.494 6.127,-8.86 1.378,-3.37 2.069,-6.985 2.069,-10.848 V 8.28 c 0,-3.866 -0.691,-7.48 -2.069,-10.846 -1.382,-3.371 -3.423,-6.324 -6.127,-8.862 -2.707,-2.54 -6.046,-4.553 -10.021,-6.044 -3.974,-1.49 -8.612,-2.236 -13.911,-2.236 -5.298,0 -9.936,0.746 -13.91,2.236 -3.975,1.491 -7.317,3.504 -10.021,6.044 -2.706,2.538 -4.747,5.491 -6.127,8.862 -1.382,3.366 -2.069,6.98 -2.069,10.846 v 35.274 c 0,3.863 0.687,7.478 2.069,10.848 1.38,3.366 3.421,6.319 6.127,8.86 2.704,2.538 6.046,4.554 10.021,6.044 3.974,1.491 8.612,2.236 13.91,2.236" /></g><path
         inkscape:connector-curvature="0"
         id="path1076"
         style="fill:#000000;fill-opacity:1;fill-rule:nonzero;stroke:none"
         d="m 1148.979,502.419 h 26.497 v -26.497 h -26.497 z m -2.32,95.059 h 31.135 l -2.318,-85.951 h -26.497 z" /><g
         transform="translate(849.7617,602.2593)"
         id="g1106"><path
           inkscape:connector-curvature="0"
           id="path1108"
           style="fill:#000000;fill-opacity:1;fill-rule:nonzero;stroke:none"
           d="M 0,0 10.231,43.907 H 26.088 L 10.572,-18.671 h -20.973 l -15.517,62.578 h 15.857 z" /></g><g
         transform="translate(896.2266,604.9873)"
         id="g1110"><path
           inkscape:connector-curvature="0"
           id="path1112"
           style="fill:#000000;fill-opacity:1;fill-rule:nonzero;stroke:none"
           d="m 0,0 c -1.023,-0.285 -1.976,-0.483 -2.856,-0.597 -0.882,-0.114 -1.663,-0.313 -2.345,-0.597 -0.682,-0.285 -1.222,-0.739 -1.619,-1.364 -0.399,-0.625 -0.597,-1.591 -0.597,-2.899 0,-1.932 0.938,-2.898 2.813,-2.898 1.023,0 2.046,0.341 3.069,1.023 C -0.511,-6.649 0,-5.626 0,-4.263 Z m -19.438,13.045 c 0,5.115 1.492,8.866 4.475,11.253 2.985,2.388 6.977,3.581 11.979,3.581 2.046,0 4.021,-0.2 5.925,-0.596 1.904,-0.399 3.595,-1.024 5.073,-1.876 1.477,-0.853 2.671,-1.961 3.581,-3.325 0.908,-1.365 1.364,-2.984 1.364,-4.86 v -28.561 c 0,-0.512 0.056,-1.08 0.171,-1.705 0.113,-0.626 0.256,-1.25 0.426,-1.876 0.171,-0.626 0.341,-1.208 0.511,-1.747 0.171,-0.541 0.312,-0.925 0.427,-1.151 H 1.62 c -0.398,0.511 -0.725,1.108 -0.98,1.79 -0.256,0.682 -0.469,1.335 -0.64,1.961 -1.193,-1.421 -2.686,-2.615 -4.476,-3.58 -1.791,-0.967 -3.68,-1.45 -5.67,-1.45 -2.216,0 -4.007,0.384 -5.371,1.151 -1.364,0.767 -2.416,1.776 -3.154,3.026 -0.739,1.25 -1.236,2.643 -1.492,4.178 -0.256,1.534 -0.383,3.04 -0.383,4.518 0,2.614 0.283,4.732 0.852,6.352 0.567,1.62 1.335,2.884 2.301,3.794 0.967,0.909 2.06,1.548 3.283,1.918 1.221,0.369 2.458,0.625 3.709,0.767 1.249,0.142 2.485,0.242 3.709,0.299 1.221,0.056 2.315,0.226 3.282,0.511 0.795,0.285 1.562,0.71 2.302,1.279 C -0.371,9.264 0,9.946 0,10.742 v 4.008 c 0,1.193 -0.371,2.074 -1.108,2.643 -0.74,0.567 -1.422,0.852 -2.047,0.852 -0.625,0 -1.307,-0.285 -2.046,-0.852 -0.739,-0.569 -1.108,-1.45 -1.108,-2.643 V 9.293 h -13.129 z" /></g><g
         transform="translate(956.8428,587.1689)"
         id="g1114"><path
           inkscape:connector-curvature="0"
           id="path1116"
           style="fill:#000000;fill-opacity:1;fill-rule:nonzero;stroke:none"
           d="m 0,0 v 30.181 c 0,1.023 -0.426,1.79 -1.279,2.302 -0.852,0.511 -1.591,0.767 -2.216,0.767 -0.626,0 -1.364,-0.271 -2.216,-0.81 C -6.564,31.899 -6.99,31.146 -6.99,30.181 V 0 h -13.642 v 30.181 c 0,1.023 -0.412,1.79 -1.236,2.302 -0.824,0.511 -1.549,0.767 -2.174,0.767 -0.626,0 -1.378,-0.271 -2.259,-0.81 -0.882,-0.541 -1.322,-1.294 -1.322,-2.259 V 0 h -13.641 v 44.419 h 13.044 v -4.178 c 1.137,1.591 2.601,2.827 4.391,3.709 1.791,0.881 3.737,1.321 5.841,1.321 2.216,0 4.19,-0.498 5.925,-1.492 1.732,-0.995 3.026,-2.288 3.879,-3.879 1.136,1.535 2.685,2.813 4.646,3.836 1.961,1.024 3.993,1.535 6.096,1.535 1.535,0 2.969,-0.242 4.305,-0.725 1.335,-0.483 2.516,-1.15 3.539,-2.003 1.023,-0.853 1.819,-1.862 2.387,-3.026 0.567,-1.166 0.853,-2.43 0.853,-3.794 L 13.642,0 Z" /></g><g
         transform="translate(992.1387,596.0352)"
         id="g1118"><path
           inkscape:connector-curvature="0"
           id="path1120"
           style="fill:#000000;fill-opacity:1;fill-rule:nonzero;stroke:none"
           d="M 0,0 C 0.625,0 1.265,0.156 1.918,0.469 2.571,0.781 2.899,1.42 2.899,2.388 v 21.911 c 0,0.965 -0.328,1.605 -0.981,1.918 -0.653,0.311 -1.293,0.469 -1.918,0.469 -0.626,0 -1.265,-0.158 -1.918,-0.469 -0.654,-0.313 -0.98,-0.953 -0.98,-1.918 V 2.388 c 0,-0.968 0.326,-1.607 0.98,-1.919 C -1.265,0.156 -0.626,0 0,0 m 0,36.832 c 2.729,0 5.116,-0.384 7.162,-1.152 2.046,-0.767 3.764,-1.805 5.157,-3.112 1.393,-1.308 2.444,-2.827 3.156,-4.561 0.71,-1.734 1.065,-3.595 1.065,-5.584 V 4.264 C 16.54,2.273 16.185,0.412 15.475,-1.321 14.763,-3.055 13.712,-4.575 12.319,-5.882 10.926,-7.191 9.208,-8.227 7.162,-8.994 5.116,-9.761 2.729,-10.145 0,-10.145 c -2.729,0 -5.115,0.384 -7.161,1.151 -2.047,0.767 -3.767,1.803 -5.158,3.112 -1.394,1.307 -2.445,2.827 -3.155,4.561 -0.712,1.733 -1.065,3.594 -1.065,5.585 v 18.159 c 0,1.989 0.353,3.85 1.065,5.584 0.71,1.734 1.761,3.253 3.155,4.561 1.391,1.307 3.111,2.345 5.158,3.112 2.046,0.768 4.432,1.152 7.161,1.152" /></g><g
         transform="translate(1034.3398,618.458)"
         id="g1122"><path
           inkscape:connector-curvature="0"
           id="path1124"
           style="fill:#000000;fill-opacity:1;fill-rule:nonzero;stroke:none"
           d="m 0,0 c -0.058,0.853 -0.213,1.62 -0.469,2.302 -0.256,0.682 -0.668,1.236 -1.236,1.663 -0.569,0.426 -1.364,0.639 -2.387,0.639 -1.137,0 -2.047,-0.341 -2.728,-1.023 -0.682,-0.682 -1.023,-1.592 -1.023,-2.728 0,-1.251 0.511,-2.175 1.534,-2.771 1.023,-0.597 2.315,-1.108 3.879,-1.535 1.563,-0.426 3.253,-0.895 5.074,-1.406 1.817,-0.512 3.508,-1.251 5.072,-2.217 1.562,-0.967 2.856,-2.289 3.88,-3.965 1.022,-1.677 1.534,-3.908 1.534,-6.692 0,-2.616 -0.399,-4.86 -1.193,-6.736 -0.797,-1.875 -1.919,-3.409 -3.369,-4.603 -1.449,-1.194 -3.183,-2.076 -5.2,-2.643 -2.018,-0.568 -4.277,-0.853 -6.778,-0.853 -5.968,0 -10.416,1.223 -13.343,3.666 -2.928,2.443 -4.391,6.536 -4.391,12.277 v 0.597 h 12.79 c 0,-0.968 0.055,-1.863 0.169,-2.686 0.114,-0.825 0.328,-1.549 0.64,-2.174 0.312,-0.626 0.738,-1.123 1.278,-1.492 0.54,-0.37 1.265,-0.554 2.175,-0.554 1.42,0 2.43,0.298 3.027,0.895 0.596,0.597 0.894,1.748 0.894,3.453 0,1.25 -0.525,2.174 -1.576,2.771 -1.053,0.597 -2.36,1.079 -3.922,1.449 -1.564,0.369 -3.269,0.781 -5.116,1.237 -1.848,0.454 -3.552,1.15 -5.115,2.088 -1.564,0.938 -2.871,2.26 -3.922,3.965 -1.052,1.705 -1.577,4.035 -1.577,6.991 0,2.159 0.354,4.135 1.065,5.925 0.71,1.79 1.819,3.326 3.325,4.604 1.506,1.279 3.381,2.259 5.627,2.941 2.245,0.682 4.903,1.024 7.972,1.024 2.217,0 4.306,-0.271 6.266,-0.811 1.961,-0.54 3.679,-1.421 5.159,-2.642 1.477,-1.223 2.656,-2.786 3.538,-4.689 0.88,-1.906 1.321,-4.221 1.321,-6.949 V -2.473 H 0.085 C 0.085,-1.677 0.056,-0.853 0,0" /></g><g
         transform="translate(1079.4844,621.8682)"
         id="g1126"><path
           inkscape:connector-curvature="0"
           id="path1128"
           style="fill:#000000;fill-opacity:1;fill-rule:nonzero;stroke:none"
           d="m 0,0 c -0.968,0 -1.806,-0.255 -2.516,-0.767 -0.711,-0.512 -1.065,-1.279 -1.065,-2.302 v -18.842 c 0,-0.797 0.298,-1.506 0.894,-2.131 0.598,-0.626 1.493,-0.938 2.687,-0.938 0.966,0 1.747,0.312 2.345,0.938 0.596,0.625 0.894,1.334 0.894,2.131 v 18.842 c 0,1.023 -0.341,1.79 -1.022,2.302 C 1.534,-0.255 0.795,0 0,0 M 16.88,21.144 V -34.699 H 3.068 v 3.495 c -1.193,-1.591 -2.544,-2.743 -4.049,-3.452 -1.506,-0.711 -3.055,-1.066 -4.646,-1.066 -1.934,0 -3.624,0.384 -5.073,1.151 -1.449,0.767 -2.657,1.818 -3.623,3.154 -0.968,1.335 -1.693,2.856 -2.175,4.561 -0.483,1.706 -0.724,3.496 -0.724,5.372 v 17.221 c 0,1.989 0.184,3.907 0.554,5.756 0.369,1.846 1.008,3.465 1.918,4.859 0.908,1.392 2.117,2.515 3.624,3.368 1.505,0.852 3.396,1.279 5.669,1.279 1.648,0 3.283,-0.314 4.902,-0.938 1.62,-0.626 2.857,-1.678 3.709,-3.155 v 14.238 z" /></g><g
         transform="translate(1122.1113,619.9927)"
         id="g1130"><path
           inkscape:connector-curvature="0"
           id="path1132"
           style="fill:#000000;fill-opacity:1;fill-rule:nonzero;stroke:none"
           d="m 0,0 c 0,0.682 -0.312,1.377 -0.937,2.089 -0.626,0.71 -1.365,1.065 -2.217,1.065 -1.024,0 -1.848,-0.355 -2.472,-1.065 C -6.253,1.377 -6.564,0.682 -6.564,0 V -5.627 H 0 Z m 9.635,-29.627 c -2.673,-2.984 -6.821,-4.476 -12.448,-4.476 -5.913,0 -10.289,1.436 -13.129,4.306 -2.843,2.869 -4.263,7.374 -4.263,13.513 v 10.572 c 0,2.784 0.283,5.328 0.852,7.63 0.568,2.302 1.52,4.263 2.857,5.883 1.334,1.62 3.111,2.869 5.328,3.751 2.216,0.881 4.973,1.322 8.27,1.322 2.898,0 5.399,-0.441 7.502,-1.322 C 6.706,10.67 8.426,9.519 9.763,8.1 c 1.334,-1.422 2.315,-2.999 2.941,-4.732 0.624,-1.735 0.938,-3.482 0.938,-5.243 v -11.51 H -6.564 v -8.185 c 0,-0.967 0.412,-1.677 1.236,-2.132 0.823,-0.455 1.577,-0.681 2.26,-0.681 0.737,0 1.476,0.226 2.216,0.681 0.738,0.455 1.108,1.165 1.108,2.132 v 4.434 h 13.386 c 0,-5.343 -1.336,-9.507 -4.007,-12.491" /></g></g><g
       id="g1899"
       transform="matrix(1,0.08629483,0,1,-695.46709,-720.37836)"><g
         transform="translate(798.9888,821.3926)"
         id="g1078"><path
           inkscape:connector-curvature="0"
           id="path1080"
           style="fill:#000000;fill-opacity:1;fill-rule:nonzero;stroke:none"
           d="M 0,0 13.423,57.607 H 34.229 L 13.871,-24.497 h -27.517 l -20.359,82.104 h 20.806 z" /></g><g
         transform="translate(859.9521,824.9717)"
         id="g1082"><path
           inkscape:connector-curvature="0"
           id="path1084"
           style="fill:#000000;fill-opacity:1;fill-rule:nonzero;stroke:none"
           d="m 0,0 c -1.342,-0.374 -2.592,-0.634 -3.747,-0.783 -1.157,-0.15 -2.182,-0.41 -3.076,-0.783 -0.895,-0.373 -1.604,-0.97 -2.126,-1.789 -0.523,-0.822 -0.783,-2.089 -0.783,-3.804 0,-2.536 1.231,-3.803 3.692,-3.803 1.342,0 2.684,0.447 4.026,1.342 C -0.671,-8.725 0,-7.382 0,-5.593 Z m -25.504,17.115 c 0,6.711 1.958,11.633 5.873,14.765 3.915,3.132 9.153,4.699 15.716,4.699 2.685,0 5.275,-0.263 7.774,-0.784 2.497,-0.523 4.716,-1.343 6.656,-2.461 1.938,-1.119 3.504,-2.572 4.698,-4.362 1.192,-1.79 1.789,-3.916 1.789,-6.376 v -37.473 c 0,-0.671 0.074,-1.418 0.225,-2.237 0.148,-0.822 0.335,-1.641 0.559,-2.461 0.224,-0.821 0.447,-1.586 0.671,-2.293 0.223,-0.71 0.409,-1.213 0.559,-1.51 H 2.125 c -0.522,0.671 -0.951,1.454 -1.286,2.349 -0.336,0.895 -0.615,1.751 -0.839,2.573 -1.565,-1.865 -3.524,-3.432 -5.873,-4.698 -2.349,-1.267 -4.828,-1.902 -7.438,-1.902 -2.908,0 -5.258,0.503 -7.047,1.51 -1.79,1.006 -3.171,2.33 -4.139,3.971 -0.97,1.639 -1.622,3.468 -1.958,5.481 -0.336,2.014 -0.503,3.989 -0.503,5.928 0,3.43 0.373,6.208 1.119,8.334 0.744,2.125 1.751,3.784 3.02,4.978 1.267,1.191 2.702,2.031 4.306,2.517 1.603,0.484 3.225,0.819 4.867,1.006 1.639,0.186 3.26,0.317 4.865,0.392 1.603,0.073 3.038,0.296 4.307,0.671 1.043,0.372 2.05,0.932 3.02,1.678 C -0.486,12.154 0,13.049 0,14.094 v 5.258 c 0,1.566 -0.486,2.721 -1.454,3.467 -0.97,0.745 -1.865,1.119 -2.685,1.119 -0.821,0 -1.715,-0.374 -2.684,-1.119 -0.97,-0.746 -1.454,-1.901 -1.454,-3.467 v -7.159 h -17.227 z" /></g><g
         transform="translate(939.4824,801.5933)"
         id="g1086"><path
           inkscape:connector-curvature="0"
           id="path1088"
           style="fill:#000000;fill-opacity:1;fill-rule:nonzero;stroke:none"
           d="m 0,0 v 39.598 c 0,1.343 -0.559,2.349 -1.678,3.021 -1.118,0.671 -2.089,1.006 -2.907,1.006 -0.822,0 -1.791,-0.355 -2.909,-1.062 -1.119,-0.71 -1.678,-1.698 -1.678,-2.965 V 0 H -27.07 v 39.598 c 0,1.343 -0.541,2.349 -1.622,3.021 -1.081,0.671 -2.033,1.006 -2.852,1.006 -0.822,0 -1.809,-0.355 -2.965,-1.062 -1.156,-0.71 -1.733,-1.698 -1.733,-2.965 V 0 h -17.897 v 58.279 h 17.114 v -5.481 c 1.491,2.087 3.412,3.708 5.761,4.866 2.349,1.155 4.902,1.733 7.662,1.733 2.908,0 5.498,-0.654 7.774,-1.958 2.274,-1.305 3.971,-3.002 5.09,-5.088 1.49,2.012 3.524,3.69 6.096,5.032 2.573,1.344 5.238,2.014 7.998,2.014 2.014,0 3.896,-0.318 5.649,-0.951 1.751,-0.633 3.299,-1.51 4.642,-2.628 1.342,-1.119 2.386,-2.443 3.132,-3.971 0.744,-1.53 1.119,-3.188 1.119,-4.978 L 17.898,0 Z" /></g><g
         transform="translate(985.792,813.2266)"
         id="g1090"><path
           inkscape:connector-curvature="0"
           id="path1092"
           style="fill:#000000;fill-opacity:1;fill-rule:nonzero;stroke:none"
           d="m 0,0 c 0.819,0 1.658,0.205 2.517,0.615 0.855,0.41 1.286,1.248 1.286,2.517 V 31.88 c 0,1.267 -0.431,2.106 -1.286,2.516 -0.859,0.41 -1.698,0.616 -2.517,0.616 -0.822,0 -1.66,-0.206 -2.518,-0.616 -0.857,-0.41 -1.286,-1.249 -1.286,-2.516 V 3.132 c 0,-1.269 0.429,-2.107 1.286,-2.517 C -1.66,0.205 -0.822,0 0,0 m 0,48.324 c 3.579,0 6.711,-0.504 9.396,-1.511 2.684,-1.007 4.939,-2.368 6.767,-4.083 1.826,-1.716 3.205,-3.71 4.139,-5.984 0.931,-2.275 1.398,-4.717 1.398,-7.327 V 5.593 c 0,-2.611 -0.467,-5.052 -1.398,-7.326 -0.934,-2.276 -2.313,-4.27 -4.139,-5.985 -1.828,-1.717 -4.083,-3.076 -6.767,-4.083 -2.685,-1.007 -5.817,-1.51 -9.396,-1.51 -3.58,0 -6.712,0.503 -9.396,1.51 -2.685,1.007 -4.942,2.366 -6.768,4.083 -1.828,1.715 -3.207,3.709 -4.139,5.985 -0.933,2.274 -1.398,4.715 -1.398,7.326 v 23.826 c 0,2.61 0.465,5.052 1.398,7.327 0.932,2.274 2.311,4.268 4.139,5.984 1.826,1.715 4.083,3.076 6.768,4.083 2.684,1.007 5.816,1.511 9.396,1.511" /></g><g
         transform="translate(1041.1602,842.6455)"
         id="g1094"><path
           inkscape:connector-curvature="0"
           id="path1096"
           style="fill:#000000;fill-opacity:1;fill-rule:nonzero;stroke:none"
           d="m 0,0 c -0.075,1.119 -0.279,2.125 -0.615,3.021 -0.336,0.894 -0.877,1.621 -1.621,2.181 -0.747,0.559 -1.791,0.839 -3.133,0.839 -1.492,0 -2.685,-0.448 -3.579,-1.343 -0.895,-0.895 -1.342,-2.088 -1.342,-3.579 0,-1.641 0.67,-2.853 2.013,-3.636 1.341,-0.782 3.037,-1.454 5.089,-2.013 2.05,-0.56 4.269,-1.175 6.656,-1.845 2.386,-0.672 4.603,-1.642 6.655,-2.909 2.051,-1.269 3.748,-3.003 5.09,-5.202 1.343,-2.2 2.014,-5.127 2.014,-8.781 0,-3.431 -0.523,-6.376 -1.567,-8.837 -1.045,-2.46 -2.516,-4.473 -4.418,-6.04 -1.902,-1.566 -4.178,-2.723 -6.823,-3.467 -2.648,-0.744 -5.612,-1.119 -8.894,-1.119 -7.829,0 -13.666,1.605 -17.505,4.81 -3.841,3.205 -5.761,8.575 -5.761,16.108 v 0.783 h 16.779 c 0,-1.27 0.073,-2.444 0.224,-3.524 0.148,-1.082 0.428,-2.032 0.839,-2.852 0.409,-0.822 0.968,-1.473 1.677,-1.958 0.708,-0.486 1.66,-0.727 2.853,-0.727 1.863,0 3.187,0.391 3.971,1.174 0.783,0.784 1.174,2.293 1.174,4.531 0,1.639 -0.69,2.853 -2.069,3.635 -1.381,0.783 -3.096,1.416 -5.145,1.902 -2.052,0.484 -4.29,1.024 -6.712,1.621 -2.424,0.597 -4.661,1.511 -6.711,2.741 -2.052,1.231 -3.767,2.965 -5.146,5.202 -1.381,2.237 -2.069,5.294 -2.069,9.173 0,2.833 0.464,5.424 1.397,7.773 0.932,2.35 2.387,4.363 4.364,6.041 1.974,1.678 4.435,2.964 7.382,3.859 2.946,0.895 6.432,1.343 10.458,1.343 2.909,0 5.65,-0.355 8.222,-1.064 2.573,-0.709 4.827,-1.864 6.768,-3.467 1.938,-1.604 3.485,-3.655 4.642,-6.152 1.155,-2.5 1.734,-5.537 1.734,-9.117 V -3.244 H 0.112 C 0.112,-2.201 0.073,-1.119 0,0" /></g><g
         transform="translate(1100.3906,847.1196)"
         id="g1098"><path
           inkscape:connector-curvature="0"
           id="path1100"
           style="fill:#000000;fill-opacity:1;fill-rule:nonzero;stroke:none"
           d="m 0,0 c -1.27,0 -2.369,-0.335 -3.3,-1.006 -0.933,-0.672 -1.398,-1.679 -1.398,-3.02 v -24.721 c 0,-1.046 0.39,-1.977 1.174,-2.797 0.783,-0.822 1.958,-1.23 3.524,-1.23 1.267,0 2.293,0.408 3.076,1.23 0.783,0.82 1.174,1.751 1.174,2.797 v 24.721 c 0,1.341 -0.447,2.348 -1.342,3.02 C 2.014,-0.335 1.043,0 0,0 M 22.147,27.741 V -45.526 H 4.026 v 4.586 c -1.565,-2.088 -3.339,-3.599 -5.313,-4.53 -1.977,-0.932 -4.009,-1.398 -6.096,-1.398 -2.536,0 -4.754,0.503 -6.656,1.51 -1.901,1.006 -3.486,2.385 -4.753,4.139 -1.27,1.751 -2.221,3.747 -2.854,5.984 -0.634,2.237 -0.95,4.586 -0.95,7.047 v 22.595 c 0,2.61 0.242,5.126 0.727,7.551 0.484,2.423 1.323,4.548 2.516,6.376 1.193,1.827 2.778,3.3 4.755,4.418 1.975,1.119 4.455,1.679 7.439,1.679 2.162,0 4.306,-0.411 6.431,-1.231 2.126,-0.822 3.748,-2.201 4.867,-4.139 v 18.68 z" /></g><g
         transform="translate(1156.3184,844.6592)"
         id="g1102"><path
           inkscape:connector-curvature="0"
           id="path1104"
           style="fill:#000000;fill-opacity:1;fill-rule:nonzero;stroke:none"
           d="M 0,0 C 0,0.895 -0.41,1.808 -1.23,2.741 -2.051,3.672 -3.02,4.138 -4.139,4.138 -5.48,4.138 -6.562,3.672 -7.382,2.741 -8.203,1.808 -8.612,0.895 -8.612,0 V -7.383 H 0 Z m 12.641,-38.872 c -3.506,-3.914 -8.949,-5.872 -16.332,-5.872 -7.756,0 -13.498,1.883 -17.226,5.649 -3.729,3.765 -5.593,9.676 -5.593,17.73 v 13.87 c 0,3.653 0.372,6.992 1.118,10.012 0.746,3.02 1.995,5.592 3.748,7.718 1.751,2.125 4.083,3.765 6.992,4.922 2.907,1.155 6.524,1.734 10.849,1.734 3.803,0 7.084,-0.579 9.844,-1.734 2.758,-1.157 5.014,-2.668 6.768,-4.53 1.751,-1.865 3.038,-3.935 3.859,-6.209 0.819,-2.275 1.229,-4.568 1.229,-6.879 V -17.562 H -8.612 V -28.3 c 0,-1.269 0.54,-2.201 1.622,-2.797 1.08,-0.598 2.069,-0.895 2.964,-0.895 0.967,0 1.938,0.297 2.909,0.895 0.968,0.596 1.453,1.528 1.453,2.797 v 5.817 h 17.561 c 0,-7.011 -1.751,-12.473 -5.256,-16.389" /></g><g
         transform="translate(745.0332,704.9492)"
         id="g1134"><path
           inkscape:connector-curvature="0"
           id="path1136"
           style="fill:#000000;fill-opacity:1;fill-rule:nonzero;stroke:none"
           d="m 0,0 c -6.304,0 -11.697,0.955 -16.179,2.863 -4.484,1.91 -8.147,4.528 -10.987,7.857 -2.842,3.33 -4.927,7.212 -6.259,11.653 -1.331,4.438 -1.997,9.189 -1.997,14.249 v 29.43 c 0,5.06 0.666,9.788 1.997,14.183 1.332,4.393 3.44,8.256 6.325,11.585 2.885,3.329 6.57,5.947 11.054,7.857 4.482,1.908 9.875,2.863 16.18,2.863 7.191,0 12.984,-1.111 17.379,-3.329 4.394,-2.22 7.833,-5.106 10.32,-8.656 2.484,-3.552 4.194,-7.48 5.126,-11.785 0.933,-4.308 1.487,-8.546 1.666,-12.718 H 10.654 c 0,0.886 -0.09,2.175 -0.266,3.862 -0.179,1.685 -0.6,3.373 -1.265,5.061 C 8.457,76.659 7.458,78.103 6.127,79.302 4.795,80.5 2.93,81.1 0.534,81.1 c -2.044,0 -3.797,-0.489 -5.261,-1.465 -1.464,-0.978 -2.71,-2.286 -3.729,-3.928 -1.021,-1.644 -1.776,-3.53 -2.263,-5.66 -0.49,-2.13 -0.733,-4.351 -0.733,-6.658 V 39.418 c 0,-2.397 0.243,-4.661 0.733,-6.792 0.487,-2.13 1.242,-4.041 2.263,-5.726 1.019,-1.687 2.265,-3.019 3.729,-3.994 1.464,-0.979 3.217,-1.466 5.261,-1.466 2.396,0 4.261,0.62 5.593,1.864 1.331,1.242 2.33,2.684 2.996,4.328 0.665,1.642 1.086,3.307 1.265,4.994 0.176,1.686 0.266,3.018 0.266,3.996 H 34.625 C 34.446,32.448 33.892,28.186 32.959,23.837 32.027,19.486 30.317,15.558 27.833,12.052 25.346,8.544 21.884,5.66 17.446,3.396 13.005,1.132 7.192,0 0,0" /></g><g
         transform="translate(812.1504,726.7886)"
         id="g1138"><path
           inkscape:connector-curvature="0"
           id="path1140"
           style="fill:#000000;fill-opacity:1;fill-rule:nonzero;stroke:none"
           d="M 0,0 C 0.976,0 1.975,0.244 2.996,0.732 4.015,1.22 4.528,2.219 4.528,3.729 v 34.225 c 0,1.508 -0.513,2.507 -1.532,2.996 -1.021,0.487 -2.02,0.732 -2.996,0.732 -0.978,0 -1.977,-0.245 -2.997,-0.732 -1.021,-0.489 -1.531,-1.488 -1.531,-2.996 V 3.729 c 0,-1.51 0.51,-2.509 1.531,-2.997 C -1.977,0.244 -0.978,0 0,0 m 0,57.53 c 4.261,0 7.99,-0.6 11.186,-1.799 3.196,-1.198 5.88,-2.819 8.056,-4.86 2.175,-2.044 3.817,-4.417 4.928,-7.124 1.109,-2.709 1.664,-5.616 1.664,-8.723 V 6.659 c 0,-3.108 -0.555,-6.015 -1.664,-8.722 -1.111,-2.709 -2.753,-5.084 -4.928,-7.125 -2.176,-2.044 -4.86,-3.663 -8.056,-4.861 C 7.99,-15.247 4.261,-15.847 0,-15.847 c -4.262,0 -7.99,0.6 -11.186,1.798 -3.197,1.198 -5.883,2.817 -8.057,4.861 -2.176,2.041 -3.819,4.416 -4.927,7.125 -1.112,2.707 -1.664,5.614 -1.664,8.722 v 28.365 c 0,3.107 0.552,6.014 1.664,8.723 1.108,2.707 2.751,5.08 4.927,7.124 2.174,2.041 4.86,3.662 8.057,4.86 C -7.99,56.93 -4.262,57.53 0,57.53" /></g><g
         transform="translate(911.0933,712.9395)"
         id="g1142"><path
           inkscape:connector-curvature="0"
           id="path1144"
           style="fill:#000000;fill-opacity:1;fill-rule:nonzero;stroke:none"
           d="m 0,0 v 47.142 c 0,1.598 -0.666,2.796 -1.998,3.596 -1.331,0.798 -2.486,1.198 -3.461,1.198 -0.978,0 -2.132,-0.423 -3.463,-1.265 -1.332,-0.845 -1.997,-2.021 -1.997,-3.529 V 0 h -21.308 v 47.142 c 0,1.598 -0.645,2.796 -1.931,3.596 -1.288,0.798 -2.42,1.198 -3.395,1.198 -0.979,0 -2.154,-0.423 -3.53,-1.265 -1.377,-0.845 -2.063,-2.021 -2.063,-3.529 V 0 h -21.307 v 69.381 h 20.374 v -6.525 c 1.775,2.484 4.062,4.415 6.858,5.793 2.797,1.375 5.837,2.063 9.123,2.063 3.461,0 6.545,-0.778 9.254,-2.33 2.707,-1.553 4.728,-3.574 6.06,-6.058 1.775,2.396 4.195,4.393 7.258,5.991 3.063,1.599 6.235,2.397 9.521,2.397 2.397,0 4.639,-0.378 6.725,-1.131 2.085,-0.755 3.928,-1.798 5.527,-3.129 1.598,-1.332 2.84,-2.909 3.729,-4.728 0.886,-1.821 1.332,-3.795 1.332,-5.926 L 21.308,0 Z" /></g><g
         transform="translate(968.7549,728.1206)"
         id="g1146"><path
           inkscape:connector-curvature="0"
           id="path1148"
           style="fill:#000000;fill-opacity:1;fill-rule:nonzero;stroke:none"
           d="m 0,0 c 1.508,0 2.817,0.4 3.929,1.198 1.108,0.8 1.664,1.998 1.664,3.596 v 29.431 c 0,1.242 -0.467,2.351 -1.398,3.329 C 3.263,38.53 1.864,39.018 0,39.018 c -1.511,0 -2.73,-0.488 -3.662,-1.464 -0.933,-0.978 -1.399,-2.087 -1.399,-3.329 V 4.794 c 0,-1.598 0.534,-2.796 1.598,-3.596 C -2.397,0.4 -1.244,0 0,0 M -26.367,-37.021 V 54.2 h 21.572 v -5.46 c 1.865,2.485 3.973,4.282 6.326,5.393 2.352,1.11 4.772,1.665 7.258,1.665 3.017,0 5.66,-0.599 7.923,-1.798 2.265,-1.199 4.149,-2.842 5.66,-4.927 1.509,-2.088 2.642,-4.461 3.396,-7.125 0.753,-2.663 1.131,-5.46 1.131,-8.389 V 6.658 c 0,-3.108 -0.288,-6.104 -0.865,-8.988 -0.578,-2.886 -1.576,-5.417 -2.995,-7.591 -1.423,-2.176 -3.309,-3.928 -5.66,-5.26 -2.354,-1.332 -5.307,-1.998 -8.857,-1.998 -2.575,0 -5.126,0.489 -7.657,1.465 -2.53,0.976 -4.461,2.617 -5.793,4.928 v -26.235 z" /></g><g
         transform="translate(1047.7246,745.832)"
         id="g1150"><path
           inkscape:connector-curvature="0"
           id="path1152"
           style="fill:#000000;fill-opacity:1;fill-rule:nonzero;stroke:none"
           d="m 0,0 h -16.646 v 17.845 c 0,0.71 -0.333,1.265 -1,1.664 -0.665,0.4 -1.264,0.6 -1.797,0.6 -0.446,0 -0.998,-0.2 -1.665,-0.6 -0.665,-0.399 -0.998,-0.954 -0.998,-1.664 v -50.738 h -21.307 v 69.382 h 18.51 v -5.06 c 1.774,2.484 3.529,4.26 5.26,5.326 1.732,1.065 4.239,1.598 7.525,1.598 2.396,0 4.371,-0.422 5.926,-1.266 1.551,-0.844 2.796,-1.953 3.728,-3.328 0.932,-1.378 1.574,-2.997 1.932,-4.862 C -0.18,27.034 0,25.036 0,22.906 Z" /></g><g
         transform="translate(1086.4746,740.7715)"
         id="g1154"><path
           inkscape:connector-curvature="0"
           id="path1156"
           style="fill:#000000;fill-opacity:1;fill-rule:nonzero;stroke:none"
           d="m 0,0 c -1.598,-0.444 -3.085,-0.755 -4.46,-0.932 -1.378,-0.179 -2.598,-0.489 -3.663,-0.933 -1.065,-0.444 -1.909,-1.154 -2.53,-2.13 -0.622,-0.977 -0.932,-2.486 -0.932,-4.528 0,-3.019 1.465,-4.527 4.395,-4.527 1.597,0 3.195,0.532 4.794,1.597 C -0.798,-10.386 0,-8.789 0,-6.658 Z m -30.362,20.375 c 0,7.99 2.331,13.85 6.991,17.578 4.662,3.73 10.897,5.594 18.711,5.594 3.195,0 6.279,-0.313 9.255,-0.932 2.973,-0.623 5.614,-1.599 7.924,-2.93 2.307,-1.332 4.171,-3.063 5.592,-5.193 1.419,-2.132 2.131,-4.662 2.131,-7.591 v -44.612 c 0,-0.8 0.088,-1.688 0.267,-2.664 0.177,-0.978 0.399,-1.953 0.665,-2.929 0.267,-0.978 0.533,-1.888 0.8,-2.73 0.265,-0.844 0.486,-1.444 0.666,-1.798 H 2.53 c -0.621,0.799 -1.132,1.731 -1.53,2.797 -0.4,1.065 -0.732,2.085 -1,3.063 -1.863,-2.22 -4.194,-4.085 -6.99,-5.593 -2.798,-1.509 -5.749,-2.265 -8.857,-2.265 -3.462,0 -6.258,0.6 -8.389,1.798 -2.131,1.199 -3.775,2.774 -4.928,4.728 -1.154,1.951 -1.931,4.128 -2.33,6.525 -0.4,2.397 -0.599,4.749 -0.599,7.058 0,4.082 0.443,7.391 1.331,9.921 0.887,2.53 2.086,4.505 3.596,5.926 1.509,1.419 3.217,2.418 5.127,2.997 1.908,0.576 3.84,0.975 5.793,1.198 1.952,0.221 3.883,0.377 5.793,0.467 1.907,0.087 3.616,0.352 5.127,0.798 1.242,0.444 2.44,1.109 3.596,1.997 C -0.578,14.47 0,15.535 0,16.779 v 6.26 c 0,1.864 -0.578,3.239 -1.73,4.128 -1.156,0.886 -2.221,1.332 -3.197,1.332 -0.977,0 -2.043,-0.446 -3.196,-1.332 -1.155,-0.889 -1.731,-2.264 -1.731,-4.128 v -8.523 h -20.508 z" /></g><g
         transform="translate(1148.1309,761.8125)"
         id="g1158"><path
           inkscape:connector-curvature="0"
           id="path1160"
           style="fill:#000000;fill-opacity:1;fill-rule:nonzero;stroke:none"
           d="m 0,0 c -0.09,1.332 -0.333,2.53 -0.732,3.596 -0.4,1.065 -1.044,1.93 -1.931,2.597 -0.889,0.665 -2.131,0.998 -3.73,0.998 -1.776,0 -3.195,-0.533 -4.26,-1.598 -1.066,-1.065 -1.598,-2.486 -1.598,-4.261 0,-1.955 0.799,-3.396 2.397,-4.329 1.597,-0.931 3.616,-1.731 6.059,-2.396 2.441,-0.667 5.081,-1.399 7.923,-2.197 2.841,-0.8 5.481,-1.954 7.924,-3.463 2.441,-1.511 4.462,-3.574 6.059,-6.193 1.598,-2.619 2.398,-6.104 2.398,-10.453 0,-4.085 -0.623,-7.591 -1.865,-10.521 -1.245,-2.929 -2.997,-5.326 -5.26,-7.191 -2.265,-1.864 -4.974,-3.241 -8.123,-4.128 -3.154,-0.886 -6.682,-1.332 -10.588,-1.332 -9.321,0 -16.27,1.911 -20.841,5.726 -4.573,3.817 -6.858,10.209 -6.858,19.177 v 0.932 h 19.975 c 0,-1.511 0.087,-2.909 0.268,-4.195 0.176,-1.288 0.509,-2.419 0.998,-3.395 0.486,-0.979 1.153,-1.754 1.997,-2.331 0.843,-0.579 1.975,-0.865 3.395,-0.865 2.219,0 3.796,0.466 4.728,1.398 0.933,0.932 1.398,2.73 1.398,5.393 0,1.951 -0.821,3.396 -2.462,4.328 -1.645,0.932 -3.686,1.685 -6.126,2.264 -2.444,0.577 -5.107,1.219 -7.991,1.931 -2.885,0.709 -5.549,1.798 -7.99,3.262 -2.442,1.465 -4.484,3.53 -6.126,6.193 -1.643,2.663 -2.463,6.303 -2.463,10.92 0,3.373 0.553,6.459 1.664,9.255 1.109,2.796 2.841,5.194 5.195,7.191 2.35,1.998 5.28,3.529 8.788,4.594 3.507,1.066 7.658,1.599 12.451,1.599 3.463,0 6.725,-0.423 9.788,-1.266 3.062,-0.844 5.747,-2.219 8.058,-4.128 2.306,-1.91 4.148,-4.351 5.525,-7.324 1.375,-2.976 2.064,-6.592 2.064,-10.853 V -3.862 H 0.133 C 0.133,-2.62 0.087,-1.332 0,0" /></g><path
         inkscape:connector-curvature="0"
         id="path1162"
         style="fill:#000000;fill-opacity:1;fill-rule:nonzero;stroke:none"
         d="m 1183.152,728.653 h 21.307 v -21.307 h -21.307 z m -1.865,76.44 h 25.036 l -1.864,-69.115 h -21.307 z" /></g></g></svg>