<?xml version="1.0" encoding="utf-8"?>
<!-- Generator: Adobe Illustrator 21.0.0, SVG Export Plug-In . SVG Version: 6.00 Build 0)  -->
<svg version="1.1" id="Capa_1" xmlns="http://www.w3.org/2000/svg" xmlns:xlink="http://www.w3.org/1999/xlink" x="0px" y="0px"
	 viewBox="0 0 50 50" style="enable-background:new 0 0 50 50;" xml:space="preserve">
<style type="text/css">
	.st0{fill:#FFFFFF;}
	.st1{fill:#686868;}
	.st2{fill:#898989;}
</style>
<g>
	<g>
		<path class="st0" d="M-87.8-15.8c-0.7,0-1.5-0.1-2.3-0.5c-2.2-1.1-4-3-5.5-5.5c-0.4-0.7-0.8-1.5-1-2.2c-2.1-5-4.2-9.9-6.3-14.9
			c-0.4-1.1-0.4-2.2,0.2-3.1c0.6-0.9,1.5-1.5,2.6-1.5c0.5,0,0.9,0,1.3,0.2l-0.3-1.1c-0.4-1-0.4-2-0.1-2.8c0.3-0.8,1-1.4,1.8-1.7
			c0.7-0.3,1.5-0.3,2.1,0c-0.1-0.2-0.2-0.4-0.3-0.6c-0.4-0.9-0.4-1.6-0.3-2.4c0.3-1.3,1.4-2.3,2.7-2.5c1.5-0.2,2.8,0.5,3.4,1.8
			c0,0.1,0.1,0.1,0.1,0.2v-0.1c0.8-1.3,1.9-2,3.2-2c0,0,0,0,0.1,0c1.4,0,2.5,0.8,3,2.1c0.6,1.5,1.3,3,1.9,4.5l4.6,11
			c0.3-0.7,0.5-1.3,0.8-2c0.6-1.3,1.7-2.2,3-2.5c1.2-0.3,2.3,0,3.2,0.8c0.5,0.4,1.3,1.4,0.8,3.1c-0.2,0.5-0.4,1-0.6,1.3
			c-0.9,1.1-1.4,2.6-1.8,4.5c-0.3,1.9-0.7,3.8-0.8,5.8c-0.2,2.8-1.6,5-4.1,6.6l-0.1,0.1c-0.2,0.1-4.8,2.1-8.2,0.2
			c-1.7-1-2.7-2.7-3-5.1c-0.1-0.5,0.3-1,0.9-1.1c0.5-0.1,1,0.3,1.1,0.9c0.2,1.8,0.9,3,2,3.7c2,1.1,5.2,0.2,6.3-0.3
			c2-1.3,3-2.9,3.1-5c0.2-2,0.5-4.1,0.9-6c0.4-2.3,1.1-4,2.2-5.4c0.1-0.2,0.2-0.4,0.3-0.7c0.2-0.6,0-0.9-0.2-1
			c-0.5-0.4-0.9-0.5-1.5-0.4c-0.7,0.2-1.3,0.6-1.6,1.4c-0.4,0.8-0.7,1.7-1,2.6c-0.2,0.4-0.3,0.8-0.5,1.2c0,0.1-0.1,0.2-0.1,0.3
			l-0.1,0.1c-0.2,0.4-0.5,0.6-0.9,0.6s-0.8-0.2-0.9-0.6l-5.6-13.3c-0.6-1.5-1.3-3-1.9-4.5c-0.4-0.8-0.9-0.9-1.3-0.9
			c-0.6,0-0.9,0.2-1.2,0.7c0,0.3-0.1,0.7,0.1,1.3c1.3,3.1,2.6,6.3,4,9.4l1.6,3.8c0.1,0.2,0.1,0.5,0,0.8c-0.1,0.2-0.3,0.4-0.5,0.5
			l-0.9,0.4c-0.2,0.1-0.5,0.1-0.8,0c-0.2-0.1-0.4-0.3-0.5-0.5l-5.5-13.1c-0.4-0.9-0.7-1.8-1.2-2.6c-0.2-0.5-0.7-0.8-1.3-0.7
			c-0.5,0.1-0.9,0.5-1.1,1c-0.1,0.3,0,0.7,0.2,1.1c1.6,3.9,3.3,7.7,4.9,11.6l1.5,3.7c0.2,0.5,0,1.1-0.5,1.3l-0.8,0.3
			c-0.2,0.1-0.5,0.1-0.8,0c-0.2-0.1-0.4-0.3-0.5-0.5l-5-11.9c-0.1-0.3-0.2-0.5-0.3-0.6c-0.3-0.5-1-0.8-1.5-0.6
			c-0.3,0.1-0.6,0.4-0.7,0.6c-0.2,0.4-0.1,0.8,0.1,1.3l5.1,12.2c0.1,0.2,0.1,0.5,0,0.8c-0.1,0.2-0.3,0.4-0.5,0.5l-0.8,0.4
			c-0.2,0.1-0.5,0.1-0.8,0c-0.2-0.1-0.5-0.3-0.6-0.5l-1.3-3c-0.8-2-1.7-4-2.5-6c-0.3-0.6-0.8-1-1.4-0.9c-0.4,0-0.8,0.2-1,0.6
			c-0.2,0.4-0.3,0.9-0.1,1.3c2.1,5,4.2,9.9,6.3,14.9c0.3,0.6,0.6,1.3,0.9,2c1.3,2.2,2.8,3.8,4.6,4.8c1.4,0.7,3.1,0,3.1,0
			c0.5-0.2,1.1,0,1.3,0.5c0.2,0.5,0,1.1-0.5,1.3C-85.4-16.3-86.5-15.8-87.8-15.8z"/>
	</g>
</g>
<polygon class="st1" points="32.2,16.1 25,4.6 17.8,16.1 2.5,19 13,30 10.6,45.3 25,39.1 39.4,45.3 37,30 47.5,19 "/>
<g>
	<path class="st2" d="M149.8,34.3c-0.1-1.4,0.3-2.3,1.5-3.2c3.3-2.4,5-5.7,4.8-9.8c-0.2-3.5-0.3-7-0.5-10.4
		c-0.1-2.1-0.1-4.3-0.4-6.4c-0.1-0.5-0.7-1-1-1.5c-0.4,0.4-0.9,0.8-1.2,1.4c-0.2,0.4-0.1,1.1-0.1,1.6c0,4.8,0.1,9.6,0,14.5
		c0,0.7-0.7,1.4-1,2.1c-0.3-0.7-1-1.4-1-2.1c-0.1-3.8,0-7.6,0-11.5c0-1.5,0.1-3-0.1-4.4c0-0.5-0.6-1-0.9-1.5c-0.4,0.5-1,0.9-1.2,1.5
		c-0.2,0.4-0.1,1.1-0.1,1.6c0,4.8,0,9.5,0,14.3c0,0.7-0.6,1.4-1,2.1c-0.4-0.7-1-1.4-1-2.1c-0.1-3.4,0-6.8-0.1-10.2
		c0-1.9,0-3.9-0.1-5.8c0-0.5-0.6-0.9-0.9-1.3c-0.4,0.4-0.9,0.8-1.2,1.3c-0.2,0.2,0,0.6,0,1c0,4.9,0,9.8,0,14.7c0,0.6,0,1.2-0.2,1.8
		c-0.1,0.3-0.6,0.8-0.8,0.7c-0.4-0.1-0.9-0.4-1-0.8c-0.2-0.5-0.1-1-0.1-1.6c0-4.9,0-9.8,0-14.7c0-0.5,0.1-1-0.1-1.4
		c-0.2-0.4-0.6-0.9-1-1c-0.3-0.1-0.8,0.4-1,0.7c-0.2,0.5-0.3,1-0.3,1.6c-0.3,5.1-0.6,10.2-1,15.2c-0.3,4.7,1.6,8.1,5.2,10.9
		c0.7,0.5,1.2,1.6,1.2,2.4c-0.1,3.6-0.2,7.3-0.4,10.9h5.5C150.1,41.2,149.9,37.7,149.8,34.3z"/>
</g>
<g>
	<path class="st2" d="M196.6,46.7c0-0.3,0-0.6,0-0.9c-0.2,0-0.4,0-0.7-0.1c0-12.8,0-25.6,0-38.4c0.3,0,0.6,0,1-0.1
		c0-0.2,0-0.3,0-0.5c0-1.7,0-3.5,0-5.2c0-1,0.4-1.5,1.5-1.5c4.1,0,8.2,0,12.3,0c1.1,0,1.5,0.4,1.5,1.5c0,1.7,0,3.5,0,5.2
		c0,0.2,0,0.3,0,0.5c0.3,0,0.6,0,1,0c0,12.8,0,25.6,0,38.4c-0.2,0-0.4,0-0.7,0.1c0,0.3,0,0.6,0,0.9c-0.7,0-1.4,0-2.1,0
		c0-0.3,0-0.6,0-0.9c-3.9,0-7.7,0-11.6,0c0,0.3,0,0.6,0,0.9C198,46.7,197.3,46.7,196.6,46.7z M209.8,2.3c-3.6,0-7.1,0-10.6,0
		c0,1.6,0,3.3,0,4.9c3.6,0,7.1,0,10.6,0C209.8,5.6,209.8,4,209.8,2.3z M207.7,20.7c-0.7-1.7-1.3-3.4-2-5.1c-1.2,0.5-2.4,0.9-3.6,1.4
		c0.7,1.7,1.3,3.4,2,5.1c1.2-0.5,2.3-0.9,3.4-1.3C207.6,20.8,207.6,20.8,207.7,20.7z M203.5,25c0-0.9-0.3-1.6-0.7-2.1
		c-0.6-0.7-1.5-0.7-2.2,0c-1,1-1,3.2,0,4.2c0.7,0.7,1.6,0.7,2.2,0C203.3,26.4,203.5,25.7,203.5,25z M206.6,15.6c0,1,0.8,1.8,1.8,1.8
		c1,0,1.8-0.8,1.8-1.8c0-1-0.8-1.8-1.8-1.8C207.3,13.8,206.5,14.6,206.6,15.6z M200.5,29.6c0,0.4,0,0.8,0,1.2c0,0.3,0.1,0.4,0.4,0.4
		c1.4,0,2.9,0,4.3,0c0.1,0,0.2,0,0.3,0c0-0.6,0-1.1,0-1.6C203.9,29.6,202.3,29.6,200.5,29.6z M210.2,24.5c-1.7,0-3.4,0-5.1,0
		c0,0.6,0,1.1,0,1.6c1.7,0,3.4,0,5.1,0C210.2,25.6,210.2,25,210.2,24.5z M201.4,18.6c-0.7-0.2-1.4-0.3-2.2-0.5
		c-0.2,0.7-0.3,1.4-0.5,2.2c0.7,0.2,1.4,0.3,2.2,0.5C201.1,20.1,201.2,19.4,201.4,18.6z"/>
	<path class="st2" d="M193.3,45.6c-2.4-0.3-4-2.1-4.1-4.5c0-0.1,0-0.2,0-0.4c0-9.6,0-19.1,0-28.7c0-1.9,0.7-3.3,2.4-4.3
		c0.5-0.3,1.1-0.4,1.8-0.7C193.3,20.1,193.3,32.8,193.3,45.6z"/>
	<path class="st2" d="M215.7,45.7c0-12.8,0-25.6,0-38.3c1.6,0,3.4,1.3,3.8,3c0.2,0.6,0.3,1.2,0.3,1.7c0,9.6,0,19.3,0,28.9
		c0,2.2-1.1,3.8-3.1,4.5C216.4,45.5,216.1,45.6,215.7,45.7z"/>
	<path class="st2" d="M214.9,7.3c0,12.8,0,25.6,0,38.4c-0.3,0.1-0.4,0.1-0.4-0.3c0-0.1,0-0.1,0-0.2c0-12.5,0-25,0-37.4
		C214.4,7.5,214.3,7.1,214.9,7.3z"/>
	<path class="st2" d="M194.1,45.7c0-12.8,0-25.6,0-38.4c0.2-0.1,0.4-0.1,0.4,0.2c0,0.1,0,0.2,0,0.2c0,12.5,0,25,0,37.4
		C194.5,45.4,194.6,45.8,194.1,45.7z"/>
</g>
<path class="st2" d="M290,30.5c-0.8-3-2.1-6-3.8-8.5c-2.9-4.1-6.5-7.8-9.8-11.6c-3-3.5-6.6-6-11.4-6.3c-3.2-0.2-6.1,1.1-7,3.8
	c-0.7,2.3,0.1,5.3,1,7.7c1,2.6,3.8,1.8,6,1.7c0.7,0,1.4-0.2,2.1-0.5c2.2-1.1,3.7,0,5,1.5c2.1,2.5,2.1,5.3,1.2,8.5
	c-5.6-1.7-8.2-1.9-11.6-0.5c-1.6,0.7-2.5,0.6-4-0.4c-5.5-3.9-10.6-1.7-11.4,4.9c-0.3,2.4-0.4,4.9-0.1,7.3c0.8,5.5,4.9,8.4,10.4,7.9
	c1.8-0.2,3.7-0.5,5.4-0.1c7.9,1.8,15.2,1.1,22.3-3C289.4,39.8,291.6,36.1,290,30.5z"/>
<g>
	<path class="st2" d="M315.8,23.6l-3.9,0.2l0.3-10.7l3.3-0.1L315.8,23.6z M315.5,11.8l-3.3,0.1V8.6l3.3-0.1V11.8z"/>
	<path class="st2" d="M327.5,19.8v3.3l-9.3,0.4V8.4l3.7-0.1v11.8L327.5,19.8z"/>
	<path class="st2" d="M334.1,19.7c1.1,0,1.7-0.7,1.7-1.1V7.7l3.7-0.1v11.3c0,2.9-2.4,4.3-5.4,4.4c-3,0.1-5.4-1.1-5.4-4V8l3.7-0.1
		v10.9C332.4,19.1,333,19.8,334.1,19.7z"/>
	<path class="st2" d="M341.1,17.3v-4.6c0-3.1,1.6-5.7,5.5-5.9c4.4-0.2,5.2,2.9,5.3,5.4l-3.7,0.1c0-0.6-0.1-2.3-1.6-2.3
		c-1.2,0-1.9,1.4-1.9,2.8v3.7c0,1.5,0.6,2.8,1.9,2.7c1.5-0.1,1.6-1.8,1.6-2.4l3.7-0.1c-0.1,2.6-0.9,5.7-5.4,5.9
		C342.7,22.9,341.1,20.4,341.1,17.3z"/>
	<path class="st2" d="M353.5,7l3.7-0.1v5.8l2.7-5.9l3.7-0.1l-3.1,6.9l3.3,8.2l-4,0.2l-2.6-6.3V22l-3.7,0.1V7z"/>
	<path class="st2" d="M375.6,6.1l-3.9,8.9v6.3l-3.7,0.1v-6.3l-3.9-8.6l3.8-0.2l1.9,4.8l1.9-4.9L375.6,6.1z"/>
	<path class="st2" d="M311.5,28.9l7.1-0.3c6-0.2,6.9,4,7,8.7v0c-0.1,4.7-1,9-7,9.3l-7.1,0.3V28.9z M316,42.8l2.6-0.1
		c2-0.1,2.5-4,2.5-5.2c0-1.2-0.1-5-2.5-4.9l-2.6,0.1V42.8z"/>
	<path class="st2" d="M335.8,39.9l-4,0.2v6l-4.4,0.2V32.8c0-3.4,2.8-5.1,6.4-5.3c3.6-0.1,6.5,1.3,6.5,4.7v13.4l-4.4,0.2V39.9z
		 M335.8,36v-3c0-0.5-0.7-1.2-2-1.2c-1.3,0.1-2,0.9-2,1.3v3L335.8,36z"/>
	<path class="st2" d="M354.2,27.2l-4.6,10.7v7.5l-4.4,0.2V38l-4.6-10.3l4.5-0.2l2.3,5.7l2.3-5.9L354.2,27.2z"/>
	<path class="st2" d="M358.6,31.8v0.6c0,2.2,7.9,1.2,7.9,6.7v1c0,3.4-2.7,5.1-6.1,5.2c-3.5,0.1-6.2-1.3-6.2-4.8v-1.3l4.4-0.2v1.2
		c0,0.5,0.6,1.2,1.7,1.2c1.2,0,1.8-0.9,1.8-1.3v-0.6c0-2.2-7.9-1.2-7.9-6.7v-1c0-3.4,2.7-5.1,6.1-5.2c3.5-0.1,6.2,1.3,6.2,4.8v1.3
		l-4.4,0.2v-1.2c0-0.5-0.6-1.2-1.7-1.2C359.3,30.5,358.6,31.3,358.6,31.8z"/>
	<path class="st2" d="M368.9,26.6l4.6-0.2l-0.3,12.7l-3.9,0.2L368.9,26.6z M369.2,40.7l3.9-0.2v3.9l-3.9,0.2V40.7z"/>
</g>
<g>
	<path class="st2" d="M426.6,28.7v11.4h-9.9V28.7h-11.3v-9.9h11.3V7.5h9.9v11.3H438v9.9H426.6z"/>
</g>
</svg>
