<?xml version="1.0" encoding="UTF-8" standalone="no"?>
<!-- Generator: Adobe Illustrator 22.0.0, SVG Export Plug-In . SVG Version: 6.00 Build 0)  -->

<svg
   xmlns:dc="http://purl.org/dc/elements/1.1/"
   xmlns:cc="http://creativecommons.org/ns#"
   xmlns:rdf="http://www.w3.org/1999/02/22-rdf-syntax-ns#"
   xmlns:svg="http://www.w3.org/2000/svg"
   xmlns="http://www.w3.org/2000/svg"
   xmlns:sodipodi="http://sodipodi.sourceforge.net/DTD/sodipodi-0.dtd"
   xmlns:inkscape="http://www.inkscape.org/namespaces/inkscape"
   version="1.1"
   id="Capa_1"
   x="0px"
   y="0px"
   viewBox="0 0 16 16"
   xml:space="preserve"
   sodipodi:docname="favicon.svg"
   inkscape:version="0.92.3 (2405546, 2018-03-11)"
   width="16"
   height="16"><metadata
   id="metadata58"><rdf:RDF><cc:Work
       rdf:about=""><dc:format>image/svg+xml</dc:format><dc:type
         rdf:resource="http://purl.org/dc/dcmitype/StillImage" /><dc:title></dc:title></cc:Work></rdf:RDF></metadata><defs
   id="defs56" /><sodipodi:namedview
   pagecolor="#ffffff"
   bordercolor="#666666"
   borderopacity="1"
   objecttolerance="10"
   gridtolerance="10"
   guidetolerance="10"
   inkscape:pageopacity="0"
   inkscape:pageshadow="2"
   inkscape:window-width="1366"
   inkscape:window-height="743"
   id="namedview54"
   showgrid="false"
   inkscape:zoom="25.78125"
   inkscape:cx="7.3206775"
   inkscape:cy="8.9472109"
   inkscape:window-x="0"
   inkscape:window-y="25"
   inkscape:window-maximized="1"
   inkscape:current-layer="Capa_1" />
<style
   type="text/css"
   id="style2">
	.st0{fill:url(#SVGID_1_);}
	.st1{fill:url(#SVGID_2_);}
	.st2{fill:url(#SVGID_3_);}
	.st3{fill:url(#SVGID_4_);}
	.st4{fill:url(#SVGID_5_);}
</style>
<textarea
   name=""
   id=""
   cols="30"
   rows="10">hola</textarea>
<g
   id="g51"
   transform="matrix(0.25848142,0,0,0.24236625,-4.9369951,-4.1159285)">
	<linearGradient
   id="SVGID_1_"
   gradientUnits="userSpaceOnUse"
   x1="14.0863"
   y1="62.2784"
   x2="70.729301"
   y2="1.3334">
		<stop
   offset="0"
   style="stop-color:#FD8725"
   id="stop4" />
		<stop
   offset="0.555"
   style="stop-color:#FE6E33"
   id="stop6" />
		<stop
   offset="1"
   style="stop-color:#FF5740"
   id="stop8" />
	</linearGradient>
	<path
   class="st0"
   d="m 49.6,36.2 v 11.2 c 0,7.1 -2.5,13.7 -14.8,14.2 C 23.6,62 19.1,55.2 19.1,46.6 V 34.1 c 0,-8.5 4.6,-15.6 15.7,-16 12.3,-0.4 14.4,6.1 14.8,13.2 l -10.2,0.3 c 0,-1.6 -0.2,-4.6 -4.6,-4.4 -3.7,0.1 -5.5,3.7 -5.5,7.7 V 45 c 0,4 1.9,7.6 5.5,7.4 4.4,-0.2 4.7,-3.2 4.7,-4.7 v -2.1 l -4.7,0.2 v -9.1 z"
   id="path11"
   style="fill:url(#SVGID_1_)"
   inkscape:connector-curvature="0" />
	<linearGradient
   id="SVGID_2_"
   gradientUnits="userSpaceOnUse"
   x1="30.282"
   y1="77.330803"
   x2="86.925003"
   y2="16.385799">
		<stop
   offset="0"
   style="stop-color:#FD8725"
   id="stop13" />
		<stop
   offset="0.555"
   style="stop-color:#FE6E33"
   id="stop15" />
		<stop
   offset="1"
   style="stop-color:#FF5740"
   id="stop17" />
	</linearGradient>
	<path
   class="st1"
   d="M 51.4,49.5 V 29 c 0,-7.8 6.5,-11.7 14.7,-12 8.2,-0.3 14.9,3.2 14.9,11 v 20.4 c 0,7.8 -6.5,11.7 -14.7,12 C 58,60.8 51.4,57.3 51.4,49.5 Z M 61.5,29.1 v 19.5 c 0,1.1 1.6,2.8 4.6,2.7 3,-0.1 4.7,-2 4.7,-3 V 28.8 c 0,-1.2 -1.7,-2.8 -4.6,-2.7 -3,0.1 -4.7,2 -4.7,3 z"
   id="path20"
   style="fill:url(#SVGID_2_)"
   inkscape:connector-curvature="0" />
	<g
   id="g49">
		<linearGradient
   id="SVGID_3_"
   gradientUnits="userSpaceOnUse"
   x1="77.905602"
   y1="64.2976"
   x2="79.757797"
   y2="62.304699">
			<stop
   offset="0"
   style="stop-color:#FD8725"
   id="stop22" />
			<stop
   offset="0.555"
   style="stop-color:#FE6E33"
   id="stop24" />
			<stop
   offset="1"
   style="stop-color:#FF5740"
   id="stop26" />
		</linearGradient>
		<polygon
   class="st2"
   points=""
   id="polygon29"
   style="fill:url(#SVGID_3_)" />
		<linearGradient
   id="SVGID_4_"
   gradientUnits="userSpaceOnUse"
   x1="35.481201"
   y1="82.163002"
   x2="92.124199"
   y2="21.218">
			<stop
   offset="0"
   style="stop-color:#FD8725"
   id="stop31" />
			<stop
   offset="0.555"
   style="stop-color:#FE6E33"
   id="stop33" />
			<stop
   offset="1"
   style="stop-color:#FF5740"
   id="stop35" />
		</linearGradient>
		<path
   class="st3"
   d="m 78.5,62.2 c 0,-0.1 -0.1,-0.1 -0.1,-0.2 0,-0.1 -0.1,-0.1 -0.1,-0.2 0,0 -0.1,-0.1 -0.1,-0.1 0,0 -0.1,-0.1 -0.1,-0.1 0,0 -0.1,-0.1 -0.1,-0.1 0,0 -0.1,-0.1 -0.1,-0.1 0,0 -0.1,-0.1 -0.1,-0.1 0,0 -0.1,-0.1 -0.1,-0.1 0,0 -0.1,0 -0.1,-0.1 0,0 -0.1,0 -0.1,-0.1 0,0 -0.1,0 -0.1,0 0,0 -0.1,0 -0.1,0 0,0 -0.1,0 -0.1,0 0,0 -0.1,0 -0.1,0 0,0 -0.1,0 -0.1,0 0,0 -0.1,0 -0.1,0 0,0 -0.1,0 -0.1,0 0,0 -0.1,0 -0.1,0 0,0 -0.1,0 -0.1,0 0,0 -0.1,0 -0.1,0 0,0 -0.1,0 -0.1,0 0,0 0,0 -0.1,0 0,0 0,0 -0.1,0 0,0 -0.1,0 -0.1,0 0,0 -0.1,0 -0.1,0 0,0 -0.1,0 -0.1,0 0,0 -0.1,0 -0.1,0 0,0 -0.1,0 -0.1,0 0,0 -0.1,0 -0.1,0 0,0 -0.1,0 -0.1,0 0,0 -0.1,0 -0.1,0.1 0,0 -0.1,0 -0.1,0.1 0,0 -0.1,0 -0.1,0.1 0,0 -0.1,0 -0.1,0.1 0,0 -0.1,0.1 -0.1,0.1 0,0 -0.1,0.1 -0.1,0.1 0,0 -0.1,0.1 -0.1,0.1 0,0 -0.1,0.1 -0.1,0.1 0,0 -0.1,0.1 -0.1,0.1 0,0 -0.1,0.1 -0.1,0.1 0,0 -0.1,0.1 -0.1,0.2 0,0.1 -0.1,0.1 -0.1,0.2 0,0.1 -0.1,0.1 -0.1,0.2 0,0.1 -0.1,0.2 -0.1,0.2 0,0.1 -0.1,0.2 -0.1,0.3 0,0.3 -0.1,0.5 0,0.8 0,0.3 0.1,0.5 0.2,0.8 0,0.1 0.1,0.2 0.2,0.3 0,0.1 0.1,0.1 0.1,0.2 -2.5,4.2 -9.5,13.6 -23.1,15.1 0,0 0,0 0,0 -14.1,1.5 -21.5,-6.7 -24,-10.2 0,-0.1 0.1,-0.2 0.1,-0.3 0,-0.3 0.1,-0.5 0,-0.8 0,-0.3 -0.1,-0.5 -0.2,-0.8 0,-0.1 -0.1,-0.2 -0.2,-0.3 0,-0.1 -0.1,-0.1 -0.1,-0.2 0,-0.1 -0.1,-0.1 -0.1,-0.2 0,0 -0.1,-0.1 -0.1,-0.1 0,0 -0.1,-0.1 -0.1,-0.1 0,0 -0.1,-0.1 -0.1,-0.1 0,0 -0.1,-0.1 -0.1,-0.1 0,0 -0.1,-0.1 -0.1,-0.1 0,0 -0.1,-0.1 -0.1,-0.1 0,0 -0.1,0 -0.1,-0.1 0,0 -0.1,0 -0.1,-0.1 0,0 -0.1,0 -0.1,0 0,0 -0.1,0 -0.1,0 0,0 -0.1,0 -0.1,0 0,0 -0.1,0 -0.1,0 0,0 -0.1,0 -0.1,0 0,0 -0.1,0 -0.1,0 0,0 -0.1,0 -0.1,0 0,0 -0.1,0 -0.1,0 0,0 -0.1,0 -0.1,0 0,0 -0.1,0 -0.1,0 0,0 -0.1,0 -0.1,0 v 0 c 0,0 0,0 -0.1,0 v 0 c 0,0 0,0.1 -0.1,0.1 l 0.2,1.6 c 0,0 0,0 0,0 l -0.2,-1.6 c 0,0 -0.1,0 -0.1,0 0,0 -0.1,0 -0.1,0 0,0 -0.1,0 -0.1,0 0,0 -0.1,0 -0.1,0 0,0 -0.1,0 -0.1,0 0,0 -0.1,0 -0.1,0 0,0 -0.1,0 -0.1,0 0,0 -0.1,0 -0.1,0.1 0,0 -0.1,0 -0.1,0.1 0,0 -0.1,0 -0.1,0.1 0,0 -0.1,0 -0.1,0.1 0,0 -0.1,0.1 -0.1,0.1 0,0 -0.1,0.1 -0.1,0.1 0,0 -0.1,0.1 -0.1,0.1 0,0 -0.1,0.1 -0.1,0.1 0,0 -0.1,0.1 -0.1,0.1 0,0 -0.1,0.1 -0.1,0.1 0,0 -0.1,0.1 -0.1,0.2 0,0.1 -0.1,0.1 -0.1,0.2 0,0.1 -0.1,0.1 -0.1,0.2 0,0.1 -0.1,0.2 -0.1,0.2 0,0.1 -0.1,0.2 -0.1,0.3 v 0.2 c 0,0.2 0,0.4 0,0.6 v 0 c 0,0.2 0.1,0.5 0.1,0.7 v 0.1 c 0,0.1 0.1,0.2 0.2,0.3 0,0.1 0.1,0.1 0.1,0.2 0,0.1 0.1,0.1 0.1,0.2 0,0 0.1,0.1 0.1,0.1 0,0 0.1,0.1 0.1,0.1 0,0 0.1,0.1 0.1,0.1 0,0 0.1,0.1 0.1,0.1 0,0 0.1,0.1 0.1,0.1 0,0 0.1,0.1 0.1,0.1 0,0 0.1,0 0.1,0.1 0,0 0.1,0 0.1,0.1 0,0 0.1,0 0.1,0 0,0 0.1,0 0.1,0 0,0 0.1,0 0.1,0 0,0 0.1,0 0.1,0 0,0 0.1,0 0.1,0 0,0 0.1,0 0.1,0 0,0 0.1,0 0.1,0 0,0 0.1,0 0.1,0 0,0 0.1,0 0.1,0 0,0 0.1,0 0.1,0 0,0 0.1,0 0.1,0 l -0.1,-1.1 c 0,0 0,0 0,0 l 0.1,1 c 0,0 0,0 0.1,0 0,0 0,0 0.1,0 v 0 c 0,0 0.1,0 0.1,0 0,0 0.1,0 0.1,0 0,0 0.1,0 0.1,0 0,0 0.1,0 0.1,0 0,0 0,0 0,0 3.1,4 11.4,12.5 26.1,10.9 0,0 0,0 0,0 C 66,81.2 73.5,71 76.1,66.3 c 0,0 0.1,0 0.1,0 0,0 0.1,0 0.1,0 0,0 0,0 0.1,0 0,0 0,0 0.1,0 0,0 0.1,0 0.1,0 0,0 0.1,0 0.1,0 0,0 0.1,0 0.1,0 0,0 0.1,0 0.1,0 0,0 0.1,0 0.1,0 0,0 0.1,0 0.1,0 0,0 0.1,0 0.1,0 0,0 0.1,0 0.1,-0.1 0,0 0.1,0 0.1,-0.1 0,0 0.1,0 0.1,-0.1 0,0 0.1,0 0.1,-0.1 0,0 0.1,-0.1 0.1,-0.1 0,0 0.1,-0.1 0.1,-0.1 0,0 0.1,-0.1 0.1,-0.1 0,0 0.1,-0.1 0.1,-0.1 0,0 0.1,-0.1 0.1,-0.1 0,0 0.1,-0.1 0.1,-0.1 0,0 0.1,-0.1 0.1,-0.2 0,-0.1 0.1,-0.1 0.1,-0.2 0,-0.1 0.1,-0.1 0.1,-0.2 0,-0.1 0.1,-0.2 0.1,-0.2 0,-0.1 0.1,-0.2 0.1,-0.3 l -0.2,-1.6 c 0.1,-0.2 0,-0.3 0,-0.4 z"
   id="path38"
   style="fill:url(#SVGID_4_)"
   inkscape:connector-curvature="0" />
		<linearGradient
   id="SVGID_5_"
   gradientUnits="userSpaceOnUse"
   x1="21.627001"
   y1="69.286797"
   x2="23.4792"
   y2="67.2939">
			<stop
   offset="0"
   style="stop-color:#FD8725"
   id="stop40" />
			<stop
   offset="0.555"
   style="stop-color:#FE6E33"
   id="stop42" />
			<stop
   offset="1"
   style="stop-color:#FF5740"
   id="stop44" />
		</linearGradient>
		<polygon
   class="st4"
   points=""
   id="polygon47"
   style="fill:url(#SVGID_5_)" />
	</g>
</g>
</svg>