<?xml version="1.0" encoding="utf-8"?>
<!-- Generator: Adobe Illustrator 22.0.0, SVG Export Plug-In . SVG Version: 6.00 Build 0)  -->
<svg version="1.1" id="Capa_1" xmlns="http://www.w3.org/2000/svg" xmlns:xlink="http://www.w3.org/1999/xlink" x="0px" y="0px"
	 viewBox="0 0 50 50" style="enable-background:new 0 0 50 50;" xml:space="preserve">
<style type="text/css">
	.st0{fill:#FFFFFF;}
</style>
<g>
	<g>
		<path class="st0" d="M23.3,44.7c-0.7,0-1.5-0.1-2.3-0.5c-2.2-1.1-4-3-5.5-5.5c-0.4-0.7-0.8-1.5-1-2.2c-2.1-5-4.2-9.9-6.3-14.9
			c-0.4-1.1-0.4-2.2,0.2-3.1c0.6-0.9,1.5-1.5,2.6-1.5c0.5,0,0.9,0,1.3,0.2L12,16.1c-0.4-1-0.4-2-0.1-2.8c0.3-0.8,1-1.4,1.8-1.7
			c0.7-0.3,1.5-0.3,2.1,0c-0.1-0.2-0.2-0.4-0.3-0.6c-0.4-0.9-0.4-1.6-0.3-2.4c0.3-1.3,1.4-2.3,2.7-2.5c1.5-0.2,2.8,0.5,3.4,1.8
			c0,0.1,0.1,0.1,0.1,0.2c0,0,0-0.1,0-0.1C22.2,6.7,23.3,6,24.6,6c0,0,0,0,0.1,0c1.4,0,2.5,0.8,3,2.1c0.6,1.5,1.3,3,1.9,4.5l4.6,11
			c0.3-0.7,0.5-1.3,0.8-2c0.6-1.3,1.7-2.2,3-2.5c1.2-0.3,2.3,0,3.2,0.8c0.5,0.4,1.3,1.4,0.8,3.1c-0.2,0.5-0.4,1-0.6,1.3
			c-0.9,1.1-1.4,2.6-1.8,4.5c-0.3,1.9-0.7,3.8-0.8,5.8c-0.2,2.8-1.6,5-4.1,6.6c0,0-0.1,0.1-0.1,0.1c-0.2,0.1-4.8,2.1-8.2,0.2
			c-1.7-1-2.7-2.7-3-5.1c-0.1-0.5,0.3-1,0.9-1.1c0.5-0.1,1,0.3,1.1,0.9c0.2,1.8,0.9,3,2,3.7c2,1.1,5.2,0.2,6.3-0.3
			c2-1.3,3-2.9,3.1-5c0.2-2,0.5-4.1,0.9-6c0.4-2.3,1.1-4,2.2-5.4c0.1-0.2,0.2-0.4,0.3-0.7c0.2-0.6,0-0.9-0.2-1
			c-0.5-0.4-0.9-0.5-1.5-0.4c-0.7,0.2-1.3,0.6-1.6,1.4c-0.4,0.8-0.7,1.7-1,2.6c-0.2,0.4-0.3,0.8-0.5,1.2c0,0.1-0.1,0.2-0.1,0.3
			l-0.1,0.1c-0.2,0.4-0.5,0.6-0.9,0.6c-0.4,0-0.8-0.2-0.9-0.6l-5.6-13.3c-0.6-1.5-1.3-3-1.9-4.5C25.5,8.1,25,8,24.6,8
			c-0.6,0-0.9,0.2-1.2,0.7C23.4,9,23.3,9.4,23.5,10c1.3,3.1,2.6,6.3,4,9.4l1.6,3.8c0.1,0.2,0.1,0.5,0,0.8c-0.1,0.2-0.3,0.4-0.5,0.5
			l-0.9,0.4c-0.2,0.1-0.5,0.1-0.8,0c-0.2-0.1-0.4-0.3-0.5-0.5l-5.5-13.1c-0.4-0.9-0.7-1.8-1.2-2.6C19.5,8.2,19,7.9,18.4,8
			c-0.5,0.1-0.9,0.5-1.1,1c-0.1,0.3,0,0.7,0.2,1.1c1.6,3.9,3.3,7.7,4.9,11.6l1.5,3.7c0.2,0.5,0,1.1-0.5,1.3L22.6,27
			c-0.2,0.1-0.5,0.1-0.8,0c-0.2-0.1-0.4-0.3-0.5-0.5l-5-11.9c-0.1-0.3-0.2-0.5-0.3-0.6c-0.3-0.5-1-0.8-1.5-0.6
			c-0.3,0.1-0.6,0.4-0.7,0.6c-0.2,0.4-0.1,0.8,0.1,1.3l5.1,12.2c0.1,0.2,0.1,0.5,0,0.8c-0.1,0.2-0.3,0.4-0.5,0.5l-0.8,0.4
			c-0.2,0.1-0.5,0.1-0.8,0c-0.2-0.1-0.5-0.3-0.6-0.5L15,25.7c-0.8-2-1.7-4-2.5-6c-0.3-0.6-0.8-1-1.4-0.9c-0.4,0-0.8,0.2-1,0.6
			c-0.2,0.4-0.3,0.9-0.1,1.3c2.1,5,4.2,9.9,6.3,14.9c0.3,0.6,0.6,1.3,0.9,2c1.3,2.2,2.8,3.8,4.6,4.8c1.4,0.7,3.1,0,3.1,0
			c0.5-0.2,1.1,0,1.3,0.5c0.2,0.5,0,1.1-0.5,1.3C25.7,44.2,24.6,44.7,23.3,44.7z"/>
	</g>
</g>
</svg>
