<?xml version="1.0" encoding="utf-8"?>
<!-- Generator: Adobe Illustrator 22.0.0, SVG Export Plug-In . SVG Version: 6.00 Build 0)  -->
<svg version="1.1" id="Capa_1" xmlns="http://www.w3.org/2000/svg" xmlns:xlink="http://www.w3.org/1999/xlink" x="0px" y="0px"
	 viewBox="0 0 100 100" style="enable-background:new 0 0 100 100;" xml:space="preserve">
<style type="text/css">
	.st0{fill:url(#SVGID_1_);}
	.st1{fill:url(#SVGID_2_);}
	.st2{fill:url(#SVGID_3_);}
	.st3{fill:url(#SVGID_4_);}
	.st4{fill:url(#SVGID_5_);}
</style>
<textarea name="" id="" cols="30" rows="10">hola</textarea>
<g>
	<linearGradient id="SVGID_1_" gradientUnits="userSpaceOnUse" x1="14.0863" y1="62.2784" x2="70.7293" y2="1.3334">
		<stop  offset="0" style="stop-color:#FD8725"/>
		<stop  offset="0.555" style="stop-color:#FE6E33"/>
		<stop  offset="1" style="stop-color:#FF5740"/>
	</linearGradient>
	<path class="st0" d="M49.6,36.2v11.2c0,7.1-2.5,13.7-14.8,14.2c-11.2,0.4-15.7-6.4-15.7-15V34.1c0-8.5,4.6-15.6,15.7-16
		c12.3-0.4,14.4,6.1,14.8,13.2l-10.2,0.3c0-1.6-0.2-4.6-4.6-4.4c-3.7,0.1-5.5,3.7-5.5,7.7V45c0,4,1.9,7.6,5.5,7.4
		c4.4-0.2,4.7-3.2,4.7-4.7v-2.1l-4.7,0.2v-9.1L49.6,36.2z"/>
	<linearGradient id="SVGID_2_" gradientUnits="userSpaceOnUse" x1="30.282" y1="77.3308" x2="86.925" y2="16.3858">
		<stop  offset="0" style="stop-color:#FD8725"/>
		<stop  offset="0.555" style="stop-color:#FE6E33"/>
		<stop  offset="1" style="stop-color:#FF5740"/>
	</linearGradient>
	<path class="st1" d="M51.4,49.5V29c0-7.8,6.5-11.7,14.7-12c8.2-0.3,14.9,3.2,14.9,11v20.4c0,7.8-6.5,11.7-14.7,12
		C58,60.8,51.4,57.3,51.4,49.5z M61.5,29.1v19.5c0,1.1,1.6,2.8,4.6,2.7c3-0.1,4.7-2,4.7-3V28.8c0-1.2-1.7-2.8-4.6-2.7
		C63.2,26.2,61.5,28.1,61.5,29.1z"/>
	<g>
		<linearGradient id="SVGID_3_" gradientUnits="userSpaceOnUse" x1="77.9056" y1="64.2976" x2="79.7578" y2="62.3047">
			<stop  offset="0" style="stop-color:#FD8725"/>
			<stop  offset="0.555" style="stop-color:#FE6E33"/>
			<stop  offset="1" style="stop-color:#FF5740"/>
		</linearGradient>
		<polygon class="st2" points="78.8,63.3 78.8,63.3 78.8,63.3 		"/>
		<linearGradient id="SVGID_4_" gradientUnits="userSpaceOnUse" x1="35.4812" y1="82.163" x2="92.1242" y2="21.218">
			<stop  offset="0" style="stop-color:#FD8725"/>
			<stop  offset="0.555" style="stop-color:#FE6E33"/>
			<stop  offset="1" style="stop-color:#FF5740"/>
		</linearGradient>
		<path class="st3" d="M78.5,62.2c0-0.1-0.1-0.1-0.1-0.2c0-0.1-0.1-0.1-0.1-0.2c0,0-0.1-0.1-0.1-0.1c0,0-0.1-0.1-0.1-0.1
			c0,0-0.1-0.1-0.1-0.1c0,0-0.1-0.1-0.1-0.1c0,0-0.1-0.1-0.1-0.1c0,0-0.1-0.1-0.1-0.1c0,0-0.1,0-0.1-0.1c0,0-0.1,0-0.1-0.1
			c0,0-0.1,0-0.1,0c0,0-0.1,0-0.1,0c0,0-0.1,0-0.1,0c0,0-0.1,0-0.1,0c0,0-0.1,0-0.1,0c0,0-0.1,0-0.1,0c0,0-0.1,0-0.1,0
			c0,0-0.1,0-0.1,0c0,0-0.1,0-0.1,0c0,0-0.1,0-0.1,0c0,0-0.1,0-0.1,0c0,0,0,0-0.1,0c0,0,0,0-0.1,0c0,0-0.1,0-0.1,0c0,0-0.1,0-0.1,0
			c0,0-0.1,0-0.1,0c0,0-0.1,0-0.1,0c0,0-0.1,0-0.1,0c0,0-0.1,0-0.1,0c0,0-0.1,0-0.1,0c0,0-0.1,0-0.1,0.1c0,0-0.1,0-0.1,0.1
			c0,0-0.1,0-0.1,0.1c0,0-0.1,0-0.1,0.1c0,0-0.1,0.1-0.1,0.1c0,0-0.1,0.1-0.1,0.1c0,0-0.1,0.1-0.1,0.1c0,0-0.1,0.1-0.1,0.1
			c0,0-0.1,0.1-0.1,0.1c0,0-0.1,0.1-0.1,0.1c0,0-0.1,0.1-0.1,0.2c0,0.1-0.1,0.1-0.1,0.2c0,0.1-0.1,0.1-0.1,0.2
			c0,0.1-0.1,0.2-0.1,0.2c0,0.1-0.1,0.2-0.1,0.3c0,0.3-0.1,0.5,0,0.8c0,0.3,0.1,0.5,0.2,0.8c0,0.1,0.1,0.2,0.2,0.3
			c0,0.1,0.1,0.1,0.1,0.2c-2.5,4.2-9.5,13.6-23.1,15.1c0,0,0,0,0,0c-14.1,1.5-21.5-6.7-24-10.2c0-0.1,0.1-0.2,0.1-0.3
			c0-0.3,0.1-0.5,0-0.8c0-0.3-0.1-0.5-0.2-0.8c0-0.1-0.1-0.2-0.2-0.3c0-0.1-0.1-0.1-0.1-0.2c0-0.1-0.1-0.1-0.1-0.2
			c0,0-0.1-0.1-0.1-0.1c0,0-0.1-0.1-0.1-0.1c0,0-0.1-0.1-0.1-0.1c0,0-0.1-0.1-0.1-0.1c0,0-0.1-0.1-0.1-0.1c0,0-0.1-0.1-0.1-0.1
			c0,0-0.1,0-0.1-0.1c0,0-0.1,0-0.1-0.1c0,0-0.1,0-0.1,0c0,0-0.1,0-0.1,0c0,0-0.1,0-0.1,0c0,0-0.1,0-0.1,0c0,0-0.1,0-0.1,0
			c0,0-0.1,0-0.1,0c0,0-0.1,0-0.1,0c0,0-0.1,0-0.1,0s-0.1,0-0.1,0c0,0-0.1,0-0.1,0c0,0-0.1,0-0.1,0l0,0c0,0,0,0-0.1,0h0
			c0,0,0,0.1-0.1,0.1l0.2,1.6c0,0,0,0,0,0l-0.2-1.6c0,0-0.1,0-0.1,0c0,0-0.1,0-0.1,0c0,0-0.1,0-0.1,0c0,0-0.1,0-0.1,0
			c0,0-0.1,0-0.1,0c0,0-0.1,0-0.1,0c0,0-0.1,0-0.1,0c0,0-0.1,0-0.1,0.1c0,0-0.1,0-0.1,0.1c0,0-0.1,0-0.1,0.1c0,0-0.1,0-0.1,0.1
			c0,0-0.1,0.1-0.1,0.1c0,0-0.1,0.1-0.1,0.1c0,0-0.1,0.1-0.1,0.1c0,0-0.1,0.1-0.1,0.1c0,0-0.1,0.1-0.1,0.1c0,0-0.1,0.1-0.1,0.1
			c0,0-0.1,0.1-0.1,0.2c0,0.1-0.1,0.1-0.1,0.2c0,0.1-0.1,0.1-0.1,0.2c0,0.1-0.1,0.2-0.1,0.2c0,0.1-0.1,0.2-0.1,0.3l0,0.2
			c0,0.2,0,0.4,0,0.6l0,0c0,0.2,0.1,0.5,0.1,0.7l0,0.1c0,0.1,0.1,0.2,0.2,0.3c0,0.1,0.1,0.1,0.1,0.2c0,0.1,0.1,0.1,0.1,0.2
			c0,0,0.1,0.1,0.1,0.1c0,0,0.1,0.1,0.1,0.1c0,0,0.1,0.1,0.1,0.1c0,0,0.1,0.1,0.1,0.1c0,0,0.1,0.1,0.1,0.1c0,0,0.1,0.1,0.1,0.1
			c0,0,0.1,0,0.1,0.1c0,0,0.1,0,0.1,0.1c0,0,0.1,0,0.1,0c0,0,0.1,0,0.1,0c0,0,0.1,0,0.1,0c0,0,0.1,0,0.1,0c0,0,0.1,0,0.1,0
			c0,0,0.1,0,0.1,0c0,0,0.1,0,0.1,0c0,0,0.1,0,0.1,0c0,0,0.1,0,0.1,0c0,0,0.1,0,0.1,0c0,0,0.1,0,0.1,0l-0.1-1.1c0,0,0,0,0,0l0.1,1
			c0,0,0,0,0.1,0c0,0,0,0,0.1,0l0,0c0,0,0.1,0,0.1,0c0,0,0.1,0,0.1,0c0,0,0.1,0,0.1,0c0,0,0.1,0,0.1,0c0,0,0,0,0,0
			c3.1,4,11.4,12.5,26.1,10.9c0,0,0,0,0,0C66,81.2,73.5,71,76.1,66.3c0,0,0.1,0,0.1,0c0,0,0.1,0,0.1,0c0,0,0,0,0.1,0c0,0,0,0,0.1,0
			c0,0,0.1,0,0.1,0c0,0,0.1,0,0.1,0c0,0,0.1,0,0.1,0c0,0,0.1,0,0.1,0c0,0,0.1,0,0.1,0c0,0,0.1,0,0.1,0c0,0,0.1,0,0.1,0
			c0,0,0.1,0,0.1-0.1c0,0,0.1,0,0.1-0.1c0,0,0.1,0,0.1-0.1c0,0,0.1,0,0.1-0.1c0,0,0.1-0.1,0.1-0.1c0,0,0.1-0.1,0.1-0.1
			c0,0,0.1-0.1,0.1-0.1c0,0,0.1-0.1,0.1-0.1c0,0,0.1-0.1,0.1-0.1c0,0,0.1-0.1,0.1-0.1c0,0,0.1-0.1,0.1-0.2c0-0.1,0.1-0.1,0.1-0.2
			c0-0.1,0.1-0.1,0.1-0.2c0-0.1,0.1-0.2,0.1-0.2c0-0.1,0.1-0.2,0.1-0.3l-0.2-1.6C78.6,62.4,78.5,62.3,78.5,62.2z"/>
		<linearGradient id="SVGID_5_" gradientUnits="userSpaceOnUse" x1="21.627" y1="69.2868" x2="23.4792" y2="67.2939">
			<stop  offset="0" style="stop-color:#FD8725"/>
			<stop  offset="0.555" style="stop-color:#FE6E33"/>
			<stop  offset="1" style="stop-color:#FF5740"/>
		</linearGradient>
		<polygon class="st4" points="21.4,69.6 21.4,69.6 21.4,69.6 		"/>
	</g>
</g>
</svg>
