<?xml version="1.0" encoding="utf-8"?>
<!-- Generator: Adobe Illustrator 21.0.0, SVG Export Plug-In . SVG Version: 6.00 Build 0)  -->
<svg version="1.1" id="Capa_1" xmlns="http://www.w3.org/2000/svg" xmlns:xlink="http://www.w3.org/1999/xlink" x="0px" y="0px"
	 viewBox="0 0 50 50" style="enable-background:new 0 0 50 50;" xml:space="preserve">
<style type="text/css">
	.st0{fill:#FFFFFF;}
	.st1{fill:#686868;}
</style>
<g>
	<g>
		<path class="st0" d="M-87.8-15.8c-0.7,0-1.5-0.1-2.3-0.5c-2.2-1.1-4-3-5.5-5.5c-0.4-0.7-0.8-1.5-1-2.2c-2.1-5-4.2-9.9-6.3-14.9
			c-0.4-1.1-0.4-2.2,0.2-3.1c0.6-0.9,1.5-1.5,2.6-1.5c0.5,0,0.9,0,1.3,0.2l-0.3-1.1c-0.4-1-0.4-2-0.1-2.8c0.3-0.8,1-1.4,1.8-1.7
			c0.7-0.3,1.5-0.3,2.1,0c-0.1-0.2-0.2-0.4-0.3-0.6c-0.4-0.9-0.4-1.6-0.3-2.4c0.3-1.3,1.4-2.3,2.7-2.5c1.5-0.2,2.8,0.5,3.4,1.8
			c0,0.1,0.1,0.1,0.1,0.2v-0.1c0.8-1.3,1.9-2,3.2-2c0,0,0,0,0.1,0c1.4,0,2.5,0.8,3,2.1c0.6,1.5,1.3,3,1.9,4.5l4.6,11
			c0.3-0.7,0.5-1.3,0.8-2c0.6-1.3,1.7-2.2,3-2.5c1.2-0.3,2.3,0,3.2,0.8c0.5,0.4,1.3,1.4,0.8,3.1c-0.2,0.5-0.4,1-0.6,1.3
			c-0.9,1.1-1.4,2.6-1.8,4.5c-0.3,1.9-0.7,3.8-0.8,5.8c-0.2,2.8-1.6,5-4.1,6.6l-0.1,0.1c-0.2,0.1-4.8,2.1-8.2,0.2
			c-1.7-1-2.7-2.7-3-5.1c-0.1-0.5,0.3-1,0.9-1.1c0.5-0.1,1,0.3,1.1,0.9c0.2,1.8,0.9,3,2,3.7c2,1.1,5.2,0.2,6.3-0.3
			c2-1.3,3-2.9,3.1-5c0.2-2,0.5-4.1,0.9-6c0.4-2.3,1.1-4,2.2-5.4c0.1-0.2,0.2-0.4,0.3-0.7c0.2-0.6,0-0.9-0.2-1
			c-0.5-0.4-0.9-0.5-1.5-0.4c-0.7,0.2-1.3,0.6-1.6,1.4c-0.4,0.8-0.7,1.7-1,2.6c-0.2,0.4-0.3,0.8-0.5,1.2c0,0.1-0.1,0.2-0.1,0.3
			l-0.1,0.1c-0.2,0.4-0.5,0.6-0.9,0.6s-0.8-0.2-0.9-0.6l-5.6-13.3c-0.6-1.5-1.3-3-1.9-4.5c-0.4-0.8-0.9-0.9-1.3-0.9
			c-0.6,0-0.9,0.2-1.2,0.7c0,0.3-0.1,0.7,0.1,1.3c1.3,3.1,2.6,6.3,4,9.4l1.6,3.8c0.1,0.2,0.1,0.5,0,0.8c-0.1,0.2-0.3,0.4-0.5,0.5
			l-0.9,0.4c-0.2,0.1-0.5,0.1-0.8,0c-0.2-0.1-0.4-0.3-0.5-0.5l-5.5-13.1c-0.4-0.9-0.7-1.8-1.2-2.6c-0.2-0.5-0.7-0.8-1.3-0.7
			c-0.5,0.1-0.9,0.5-1.1,1c-0.1,0.3,0,0.7,0.2,1.1c1.6,3.9,3.3,7.7,4.9,11.6l1.5,3.7c0.2,0.5,0,1.1-0.5,1.3l-0.8,0.3
			c-0.2,0.1-0.5,0.1-0.8,0c-0.2-0.1-0.4-0.3-0.5-0.5l-5-11.9c-0.1-0.3-0.2-0.5-0.3-0.6c-0.3-0.5-1-0.8-1.5-0.6
			c-0.3,0.1-0.6,0.4-0.7,0.6c-0.2,0.4-0.1,0.8,0.1,1.3l5.1,12.2c0.1,0.2,0.1,0.5,0,0.8c-0.1,0.2-0.3,0.4-0.5,0.5l-0.8,0.4
			c-0.2,0.1-0.5,0.1-0.8,0c-0.2-0.1-0.5-0.3-0.6-0.5l-1.3-3c-0.8-2-1.7-4-2.5-6c-0.3-0.6-0.8-1-1.4-0.9c-0.4,0-0.8,0.2-1,0.6
			c-0.2,0.4-0.3,0.9-0.1,1.3c2.1,5,4.2,9.9,6.3,14.9c0.3,0.6,0.6,1.3,0.9,2c1.3,2.2,2.8,3.8,4.6,4.8c1.4,0.7,3.1,0,3.1,0
			c0.5-0.2,1.1,0,1.3,0.5c0.2,0.5,0,1.1-0.5,1.3C-85.4-16.3-86.5-15.8-87.8-15.8z"/>
	</g>
</g>
<polygon class="st1" points="89.5,-100.5 82.3,-112 75.2,-100.5 59.8,-97.7 70.4,-86.6 68,-71.3 82.3,-77.5 96.7,-71.3 94.3,-86.6 
	104.8,-97.7 "/>
<g>
	<path class="st1" d="M145.5-88.5c-0.1-1.4,0.3-2.3,1.5-3.2c3.3-2.4,5-5.7,4.8-9.8c-0.2-3.5-0.3-7-0.5-10.4
		c-0.1-2.1-0.1-4.3-0.4-6.4c-0.1-0.5-0.7-1-1-1.5c-0.4,0.4-0.9,0.8-1.2,1.4c-0.2,0.4-0.1,1.1-0.1,1.6c0,4.8,0.1,9.6,0,14.5
		c0,0.7-0.7,1.4-1,2.1c-0.3-0.7-1-1.4-1-2.1c-0.1-3.8,0-7.6,0-11.5c0-1.5,0.1-3-0.1-4.4c0-0.5-0.6-1-0.9-1.5c-0.4,0.5-1,0.9-1.2,1.5
		c-0.2,0.4-0.1,1.1-0.1,1.6c0,4.8,0,9.5,0,14.3c0,0.7-0.6,1.4-1,2.1c-0.4-0.7-1-1.4-1-2.1c-0.1-3.4,0-6.8-0.1-10.2
		c0-1.9,0-3.9-0.1-5.8c0-0.5-0.6-0.9-0.9-1.3c-0.4,0.4-0.9,0.8-1.2,1.3c-0.2,0.2,0,0.6,0,1c0,4.9,0,9.8,0,14.7c0,0.6,0,1.2-0.2,1.8
		c-0.1,0.3-0.6,0.8-0.8,0.7c-0.4-0.1-0.9-0.4-1-0.8c-0.2-0.5-0.1-1-0.1-1.6c0-4.9,0-9.8,0-14.7c0-0.5,0.1-1-0.1-1.4
		c-0.2-0.4-0.6-0.9-1-1c-0.3-0.1-0.8,0.4-1,0.7c-0.2,0.5-0.3,1-0.3,1.6c-0.3,5.1-0.6,10.2-1,15.2c-0.3,4.7,1.6,8.1,5.2,10.9
		c0.7,0.5,1.2,1.6,1.2,2.4c-0.1,3.6-0.2,7.3-0.4,10.9h5.5C145.8-81.6,145.6-85.1,145.5-88.5z"/>
</g>
<g>
	<path class="st1" d="M183.2-69.8c0-0.3,0-0.5,0-0.8c-0.2,0-0.4,0-0.6-0.1c0-11.6,0-23.2,0-34.8c0.3,0,0.6,0,0.9,0
		c0-0.2,0-0.3,0-0.5c0-1.6,0-3.2,0-4.7c0-0.9,0.4-1.3,1.3-1.3c3.7,0,7.4,0,11.1,0c1,0,1.3,0.4,1.3,1.4c0,1.6,0,3.1,0,4.7
		c0,0.1,0,0.3,0,0.5c0.3,0,0.6,0,0.9,0c0,11.6,0,23.2,0,34.8c-0.2,0-0.4,0-0.6,0.1c0,0.3,0,0.6,0,0.8c-0.6,0-1.3,0-1.9,0
		c0-0.3,0-0.5,0-0.8c-3.5,0-7,0-10.5,0c0,0.3,0,0.6,0,0.8C184.4-69.8,183.8-69.8,183.2-69.8z M195.1-109.9c-3.2,0-6.4,0-9.6,0
		c0,1.5,0,3,0,4.4c3.2,0,6.4,0,9.6,0C195.1-107,195.1-108.4,195.1-109.9z M193.2-93.3c-0.6-1.5-1.2-3-1.8-4.6
		c-1.1,0.4-2.2,0.9-3.2,1.3c0.6,1.6,1.2,3.1,1.8,4.6c1.1-0.4,2.1-0.8,3.1-1.2C193.1-93.2,193.2-93.2,193.2-93.3z M189.4-89.4
		c0-0.8-0.2-1.5-0.7-1.9c-0.6-0.6-1.4-0.6-2,0c-0.9,0.9-0.9,2.9,0,3.8c0.6,0.6,1.4,0.6,2,0C189.3-88.1,189.4-88.7,189.4-89.4z
		 M192.2-97.9c0,0.9,0.7,1.6,1.6,1.6c0.9,0,1.6-0.7,1.6-1.6c0-0.9-0.7-1.6-1.6-1.6C192.9-99.5,192.2-98.8,192.2-97.9z M186.7-85.2
		c0,0.4,0,0.8,0,1.1c0,0.3,0.1,0.4,0.4,0.4c1.3,0,2.6,0,3.9,0c0.1,0,0.2,0,0.3,0c0-0.5,0-1,0-1.5C189.8-85.2,188.3-85.2,186.7-85.2z
		 M195.5-89.9c-1.6,0-3.1,0-4.6,0c0,0.5,0,1,0,1.5c1.5,0,3.1,0,4.6,0C195.5-88.9,195.5-89.4,195.5-89.9z M187.5-95.2
		c-0.7-0.2-1.3-0.3-2-0.4c-0.1,0.7-0.3,1.3-0.4,2c0.7,0.1,1.3,0.3,2,0.4C187.3-93.9,187.4-94.5,187.5-95.2z"/>
	<path class="st1" d="M180.2-70.7c-2.2-0.3-3.6-1.9-3.7-4c0-0.1,0-0.2,0-0.3c0-8.7,0-17.3,0-26c0-1.7,0.6-3,2.1-3.9
		c0.5-0.3,1-0.4,1.6-0.6C180.2-93.9,180.2-82.3,180.2-70.7z"/>
	<path class="st1" d="M200.5-70.7c0-11.6,0-23.1,0-34.7c1.4,0,3,1.2,3.5,2.7c0.2,0.5,0.2,1,0.2,1.6c0,8.7,0,17.4,0,26.1
		c0,2-1,3.4-2.8,4.1C201.1-70.8,200.8-70.8,200.5-70.7z"/>
	<path class="st1" d="M199.7-105.4c0,11.6,0,23.1,0,34.7c-0.2,0.1-0.4,0.1-0.4-0.2c0-0.1,0-0.1,0-0.2c0-11.3,0-22.6,0-33.9
		C199.3-105.2,199.2-105.6,199.7-105.4z"/>
	<path class="st1" d="M181-70.7c0-11.6,0-23.1,0-34.7c0.2-0.1,0.4-0.1,0.4,0.2c0,0.1,0,0.1,0,0.2c0,11.3,0,22.6,0,33.9
		C181.3-70.9,181.4-70.6,181-70.7z"/>
</g>
<path class="st1" d="M266.6-87.5c-0.7-2.4-1.7-4.9-3.1-6.9c-2.4-3.3-5.2-6.3-7.9-9.4c-2.4-2.8-5.3-4.9-9.2-5.1
	c-2.6-0.2-4.9,0.9-5.6,3.1c-0.6,1.8,0,4.3,0.8,6.2c0.8,2.1,3,1.4,4.8,1.3c0.6,0,1.2-0.1,1.7-0.4c1.8-0.9,3,0,4,1.2
	c1.7,2,1.7,4.3,1,6.8c-4.5-1.4-6.6-1.5-9.4-0.4c-1.3,0.5-2,0.5-3.2-0.4c-4.5-3.2-8.5-1.4-9.2,4c-0.2,1.9-0.4,3.9-0.1,5.9
	c0.7,4.4,4,6.7,8.4,6.3c1.5-0.1,3-0.4,4.4-0.1c6.3,1.5,12.3,0.9,18-2.4C266.1-80,267.8-83,266.6-87.5z"/>
<g>
	<path class="st1" d="M7,23.1l-2.5,0.1l0.2-6.9l2.1-0.1L7,23.1z M6.8,15.5l-2.1,0.1v-2.1l2.1-0.1V15.5z"/>
	<path class="st1" d="M14.6,20.7v2.2l-6,0.2v-9.8l2.4-0.1v7.7L14.6,20.7z"/>
	<path class="st1" d="M18.8,20.6c0.7,0,1.1-0.5,1.1-0.7v-7.1l2.4-0.1V20c0,1.9-1.5,2.8-3.5,2.9c-2,0.1-3.5-0.7-3.5-2.6V13l2.4-0.1
		V20C17.7,20.2,18.1,20.6,18.8,20.6z"/>
	<path class="st1" d="M23.4,19v-3c0-2,1-3.7,3.6-3.8c2.9-0.1,3.4,1.9,3.5,3.5L28,15.9c0-0.4-0.1-1.5-1-1.5c-0.8,0-1.2,0.9-1.2,1.8
		v2.4c0,0.9,0.4,1.8,1.2,1.8c0.9,0,1-1.2,1-1.6l2.4-0.1c-0.1,1.7-0.6,3.7-3.5,3.8C24.4,22.7,23.4,21.1,23.4,19z"/>
	<path class="st1" d="M31.4,12.3l2.4-0.1V16l1.8-3.8l2.4-0.1l-2,4.5l2.1,5.3L35.5,22l-1.7-4.1v4.2l-2.4,0.1V12.3z"/>
	<path class="st1" d="M45.8,11.8l-2.5,5.8v4.1l-2.4,0.1v-4.1l-2.5-5.6l2.5-0.1l1.2,3.1l1.2-3.2L45.8,11.8z"/>
	<path class="st1" d="M4.2,26.6l4.6-0.2c3.9-0.2,4.5,2.6,4.5,5.6v0c-0.1,3.1-0.6,5.8-4.5,6l-4.6,0.2V26.6z M7.1,35.6l1.7-0.1
		c1.3-0.1,1.6-2.6,1.6-3.4c0-0.7-0.1-3.3-1.6-3.2L7.1,29V35.6z"/>
	<path class="st1" d="M19.9,33.7l-2.6,0.1v3.9l-2.9,0.1v-8.7c0-2.2,1.8-3.3,4.1-3.4c2.3-0.1,4.2,0.9,4.2,3.1v8.7l-2.9,0.1V33.7z
		 M19.9,31.1v-2c0-0.3-0.5-0.8-1.3-0.8c-0.8,0-1.3,0.6-1.3,0.9v2L19.9,31.1z"/>
	<path class="st1" d="M31.9,25.4l-3,6.9v4.9L26,37.4v-4.9l-3-6.7l2.9-0.1l1.5,3.7l1.5-3.8L31.9,25.4z"/>
	<path class="st1" d="M34.8,28.4v0.4c0,1.4,5.2,0.8,5.2,4.4v0.7c0,2.2-1.8,3.3-4,3.4c-2.2,0.1-4-0.9-4-3.1v-0.9l2.9-0.1v0.7
		c0,0.3,0.4,0.8,1.1,0.8c0.7,0,1.2-0.6,1.2-0.9v-0.4c0-1.4-5.2-0.8-5.2-4.4v-0.7c0-2.2,1.8-3.3,4-3.4c2.2-0.1,4,0.9,4,3.1V29
		l-2.9,0.1v-0.7c0-0.3-0.4-0.8-1.1-0.8C35.2,27.6,34.8,28.1,34.8,28.4z"/>
	<path class="st1" d="M41.4,25.1l3-0.1l-0.2,8.3l-2.5,0.1L41.4,25.1z M41.7,34.2l2.5-0.1v2.5l-2.5,0.1V34.2z"/>
</g>
<g>
	<path class="st1" d="M426.6,28.7v11.4h-9.9V28.7h-11.3v-9.9h11.3V7.5h9.9v11.3H438v9.9H426.6z"/>
</g>
</svg>
