<?xml version="1.0" encoding="utf-8"?>
<!-- Generator: Adobe Illustrator 22.0.0, SVG Export Plug-In . SVG Version: 6.00 Build 0)  -->
<svg version="1.1" id="Capa_1" xmlns="http://www.w3.org/2000/svg" xmlns:xlink="http://www.w3.org/1999/xlink" x="0px" y="0px"
	 viewBox="0 0 50 50" style="enable-background:new 0 0 50 50;" xml:space="preserve">
<style type="text/css">
	.st0{fill:#FFFFFF;}
</style>
<g>
	<g>
		<path class="st0" d="M40.1,41.6H9.9c-0.4,0-0.8-0.4-0.8-0.8V24.8c0-0.4,0.4-0.8,0.8-0.8s0.8,0.4,0.8,0.8V40h28.6V24.8
			c0-0.4,0.4-0.8,0.8-0.8s0.8,0.4,0.8,0.8v15.9C40.9,41.2,40.5,41.6,40.1,41.6z"/>
	</g>
	<g>
		<path class="st0" d="M40,21.9c-0.2,0-0.5,0-0.7-0.1c-1-0.3-2-1.2-2.8-2.7c-0.4,0.7-0.9,1.5-1.7,2c-0.8,0.5-1.7,0.7-2.7,0.5
			c-1.7-0.3-2.7-1.3-3.3-2.3c-0.7,1.2-2,2.3-3.8,2.3s-3-1.1-3.8-2.3c-0.6,1-1.6,2-3.3,2.3c-1,0.2-1.9,0-2.7-0.5
			c-0.8-0.5-1.3-1.3-1.7-2c-0.8,1.5-1.8,2.4-2.8,2.7c-1,0.3-1.7-0.1-2-0.2c-3.2-1.6-3-4.9-2.4-6.3l2.8-6.7C9.3,8.2,9.6,8,9.9,8h30.2
			c0.3,0,0.6,0.2,0.7,0.5l2.8,6.7c0,0,0,0,0,0c0.6,1.5,0.8,4.7-2.4,6.3C41.1,21.6,40.6,21.9,40,21.9z M10.4,9.6l-2.6,6.2
			c-0.1,0.3-1,2.9,1.7,4.3c0,0,0.1,0,0.1,0.1c0,0,0.3,0.2,0.7,0c0.5-0.2,1.5-0.8,2.6-3.6c0.1-0.3,0.5-0.5,0.8-0.5
			c0.4,0,0.6,0.3,0.7,0.6c0,0.2,0.8,3.7,3.1,3.2c2.5-0.5,2.8-3,2.8-3.1c0-0.4,0.3-0.7,0.7-0.7c0.4,0,0.8,0.2,0.8,0.6
			C22,17,22.6,20,25,20c2.4,0,3-3.1,3.1-3.2c0.1-0.4,0.4-0.7,0.8-0.6c0.4,0,0.7,0.3,0.7,0.7c0,0.1,0.2,2.6,2.8,3.1
			c0.6,0.1,1,0,1.5-0.3c1-0.7,1.6-2.4,1.7-3c0.1-0.3,0.4-0.6,0.7-0.6c0.4,0,0.7,0.2,0.8,0.5c1.1,2.7,2.1,3.4,2.6,3.6
			c0.4,0.1,0.7,0,0.7,0c0,0,0.1,0,0.1-0.1c2.7-1.4,1.8-4.1,1.7-4.3l-2.6-6.2H10.4z"/>
	</g>
</g>
</svg>
