<?xml version="1.0" encoding="utf-8"?>
<!-- Generator: Adobe Illustrator 22.0.0, SVG Export Plug-In . SVG Version: 6.00 Build 0)  -->
<svg version="1.1" id="Capa_1" xmlns="http://www.w3.org/2000/svg" xmlns:xlink="http://www.w3.org/1999/xlink" x="0px" y="0px"
	 viewBox="0 0 50 50" style="enable-background:new 0 0 50 50;" xml:space="preserve">
<style type="text/css">
	.st0{fill:url(#SVGID_1_);}
	.st1{fill:url(#SVGID_2_);}
</style>
<g>
	<g>
		<linearGradient id="SVGID_1_" gradientUnits="userSpaceOnUse" x1="9.0856" y1="33.0269" x2="40.9144" y2="33.0269">
			<stop  offset="0" style="stop-color:#FD8725"/>
			<stop  offset="0.2499" style="stop-color:#FE772E"/>
			<stop  offset="0.7125" style="stop-color:#FF603B"/>
			<stop  offset="1" style="stop-color:#FF5740"/>
		</linearGradient>
		<path class="st0" d="M40.1,41.8H9.9c-0.4,0-0.8-0.4-0.8-0.8V25.1c0-0.4,0.4-0.8,0.8-0.8c0.4,0,0.8,0.4,0.8,0.8v15.1h28.6V25.1
			c0-0.4,0.4-0.8,0.8-0.8s0.8,0.4,0.8,0.8V41C40.9,41.4,40.6,41.8,40.1,41.8z"/>
	</g>
	<g>
		<linearGradient id="SVGID_2_" gradientUnits="userSpaceOnUse" x1="5.9746" y1="15.1345" x2="44.0254" y2="15.1345">
			<stop  offset="0" style="stop-color:#FD8725"/>
			<stop  offset="0.2499" style="stop-color:#FE772E"/>
			<stop  offset="0.7125" style="stop-color:#FF603B"/>
			<stop  offset="1" style="stop-color:#FF5740"/>
		</linearGradient>
		<path class="st1" d="M40,22.1c-0.2,0-0.5,0-0.7-0.1c-1-0.3-2-1.2-2.8-2.7c-0.4,0.7-0.9,1.5-1.7,2c-0.8,0.5-1.7,0.7-2.7,0.5
			c-1.7-0.3-2.7-1.3-3.3-2.3c-0.7,1.2-2,2.3-3.8,2.3s-3-1.1-3.8-2.3c-0.6,1-1.7,2-3.3,2.3c-1,0.2-1.9,0-2.7-0.5
			c-0.8-0.5-1.3-1.3-1.7-2c-0.8,1.5-1.8,2.4-2.8,2.7c-1,0.3-1.7-0.1-2-0.2c-3.2-1.7-3-4.9-2.4-6.3l2.8-6.7c0.1-0.3,0.4-0.5,0.7-0.5
			h30.2c0.3,0,0.6,0.2,0.7,0.5l2.8,6.7c0,0,0,0,0,0c0.6,1.5,0.8,4.7-2.4,6.3C41.1,21.8,40.6,22.1,40,22.1z M10.4,9.8L7.8,16
			c-0.1,0.3-1,2.9,1.7,4.3c0,0,0.1,0,0.1,0.1c0,0,0.3,0.2,0.7,0c0.5-0.2,1.5-0.8,2.6-3.6c0.1-0.3,0.5-0.5,0.8-0.5
			c0.4,0,0.6,0.3,0.7,0.6c0,0.2,0.8,3.7,3.1,3.2c2.6-0.5,2.8-3,2.8-3.1c0-0.4,0.3-0.7,0.7-0.7c0.4,0,0.8,0.2,0.8,0.6
			c0,0.1,0.7,3.2,3.1,3.2c2.4,0,3.1-3.1,3.1-3.2c0.1-0.4,0.4-0.7,0.8-0.6c0.4,0,0.7,0.3,0.7,0.8c0,0.1,0.2,2.6,2.8,3.1
			c0.6,0.1,1,0,1.5-0.3c1-0.7,1.6-2.4,1.7-3c0.1-0.4,0.4-0.6,0.7-0.6c0.4,0,0.7,0.2,0.8,0.5c1.1,2.7,2.1,3.4,2.6,3.6
			c0.4,0.1,0.7,0,0.7,0c0,0,0.1,0,0.1-0.1c2.8-1.4,1.8-4.1,1.7-4.3l-2.6-6.2H10.4z"/>
	</g>
</g>
</svg>
