<?xml version="1.0" encoding="utf-8"?>
<!-- Generator: Adobe Illustrator 21.0.0, SVG Export Plug-In . SVG Version: 6.00 Build 0)  -->
<svg version="1.1" id="Capa_1" xmlns="http://www.w3.org/2000/svg" xmlns:xlink="http://www.w3.org/1999/xlink" x="0px" y="0px"
	 viewBox="0 0 50 50" style="enable-background:new 0 0 50 50;" xml:space="preserve">
<style type="text/css">
	.st0{fill:#FFFFFF;}
	.st1{fill:#686868;}
</style>
<g>
	<g>
		<path class="st0" d="M-87.8-15.8c-0.7,0-1.5-0.1-2.3-0.5c-2.2-1.1-4-3-5.5-5.5c-0.4-0.7-0.8-1.5-1-2.2c-2.1-5-4.2-9.9-6.3-14.9
			c-0.4-1.1-0.4-2.2,0.2-3.1c0.6-0.9,1.5-1.5,2.6-1.5c0.5,0,0.9,0,1.3,0.2l-0.3-1.1c-0.4-1-0.4-2-0.1-2.8c0.3-0.8,1-1.4,1.8-1.7
			c0.7-0.3,1.5-0.3,2.1,0c-0.1-0.2-0.2-0.4-0.3-0.6c-0.4-0.9-0.4-1.6-0.3-2.4c0.3-1.3,1.4-2.3,2.7-2.5c1.5-0.2,2.8,0.5,3.4,1.8
			c0,0.1,0.1,0.1,0.1,0.2v-0.1c0.8-1.3,1.9-2,3.2-2c0,0,0,0,0.1,0c1.4,0,2.5,0.8,3,2.1c0.6,1.5,1.3,3,1.9,4.5l4.6,11
			c0.3-0.7,0.5-1.3,0.8-2c0.6-1.3,1.7-2.2,3-2.5c1.2-0.3,2.3,0,3.2,0.8c0.5,0.4,1.3,1.4,0.8,3.1c-0.2,0.5-0.4,1-0.6,1.3
			c-0.9,1.1-1.4,2.6-1.8,4.5c-0.3,1.9-0.7,3.8-0.8,5.8c-0.2,2.8-1.6,5-4.1,6.6l-0.1,0.1c-0.2,0.1-4.8,2.1-8.2,0.2
			c-1.7-1-2.7-2.7-3-5.1c-0.1-0.5,0.3-1,0.9-1.1c0.5-0.1,1,0.3,1.1,0.9c0.2,1.8,0.9,3,2,3.7c2,1.1,5.2,0.2,6.3-0.3
			c2-1.3,3-2.9,3.1-5c0.2-2,0.5-4.1,0.9-6c0.4-2.3,1.1-4,2.2-5.4c0.1-0.2,0.2-0.4,0.3-0.7c0.2-0.6,0-0.9-0.2-1
			c-0.5-0.4-0.9-0.5-1.5-0.4c-0.7,0.2-1.3,0.6-1.6,1.4c-0.4,0.8-0.7,1.7-1,2.6c-0.2,0.4-0.3,0.8-0.5,1.2c0,0.1-0.1,0.2-0.1,0.3
			l-0.1,0.1c-0.2,0.4-0.5,0.6-0.9,0.6s-0.8-0.2-0.9-0.6l-5.6-13.3c-0.6-1.5-1.3-3-1.9-4.5c-0.4-0.8-0.9-0.9-1.3-0.9
			c-0.6,0-0.9,0.2-1.2,0.7c0,0.3-0.1,0.7,0.1,1.3c1.3,3.1,2.6,6.3,4,9.4l1.6,3.8c0.1,0.2,0.1,0.5,0,0.8c-0.1,0.2-0.3,0.4-0.5,0.5
			l-0.9,0.4c-0.2,0.1-0.5,0.1-0.8,0c-0.2-0.1-0.4-0.3-0.5-0.5l-5.5-13.1c-0.4-0.9-0.7-1.8-1.2-2.6c-0.2-0.5-0.7-0.8-1.3-0.7
			c-0.5,0.1-0.9,0.5-1.1,1c-0.1,0.3,0,0.7,0.2,1.1c1.6,3.9,3.3,7.7,4.9,11.6l1.5,3.7c0.2,0.5,0,1.1-0.5,1.3l-0.8,0.3
			c-0.2,0.1-0.5,0.1-0.8,0c-0.2-0.1-0.4-0.3-0.5-0.5l-5-11.9c-0.1-0.3-0.2-0.5-0.3-0.6c-0.3-0.5-1-0.8-1.5-0.6
			c-0.3,0.1-0.6,0.4-0.7,0.6c-0.2,0.4-0.1,0.8,0.1,1.3l5.1,12.2c0.1,0.2,0.1,0.5,0,0.8c-0.1,0.2-0.3,0.4-0.5,0.5l-0.8,0.4
			c-0.2,0.1-0.5,0.1-0.8,0c-0.2-0.1-0.5-0.3-0.6-0.5l-1.3-3c-0.8-2-1.7-4-2.5-6c-0.3-0.6-0.8-1-1.4-0.9c-0.4,0-0.8,0.2-1,0.6
			c-0.2,0.4-0.3,0.9-0.1,1.3c2.1,5,4.2,9.9,6.3,14.9c0.3,0.6,0.6,1.3,0.9,2c1.3,2.2,2.8,3.8,4.6,4.8c1.4,0.7,3.1,0,3.1,0
			c0.5-0.2,1.1,0,1.3,0.5c0.2,0.5,0,1.1-0.5,1.3C-85.4-16.3-86.5-15.8-87.8-15.8z"/>
	</g>
</g>
<polygon class="st1" points="89.5,-100.5 82.3,-112 75.2,-100.5 59.8,-97.7 70.4,-86.6 68,-71.3 82.3,-77.5 96.7,-71.3 94.3,-86.6 
	104.8,-97.7 "/>
<g>
	<path class="st1" d="M145.5-88.5c-0.1-1.4,0.3-2.3,1.5-3.2c3.3-2.4,5-5.7,4.8-9.8c-0.2-3.5-0.3-7-0.5-10.4
		c-0.1-2.1-0.1-4.3-0.4-6.4c-0.1-0.5-0.7-1-1-1.5c-0.4,0.4-0.9,0.8-1.2,1.4c-0.2,0.4-0.1,1.1-0.1,1.6c0,4.8,0.1,9.6,0,14.5
		c0,0.7-0.7,1.4-1,2.1c-0.3-0.7-1-1.4-1-2.1c-0.1-3.8,0-7.6,0-11.5c0-1.5,0.1-3-0.1-4.4c0-0.5-0.6-1-0.9-1.5c-0.4,0.5-1,0.9-1.2,1.5
		c-0.2,0.4-0.1,1.1-0.1,1.6c0,4.8,0,9.5,0,14.3c0,0.7-0.6,1.4-1,2.1c-0.4-0.7-1-1.4-1-2.1c-0.1-3.4,0-6.8-0.1-10.2
		c0-1.9,0-3.9-0.1-5.8c0-0.5-0.6-0.9-0.9-1.3c-0.4,0.4-0.9,0.8-1.2,1.3c-0.2,0.2,0,0.6,0,1c0,4.9,0,9.8,0,14.7c0,0.6,0,1.2-0.2,1.8
		c-0.1,0.3-0.6,0.8-0.8,0.7c-0.4-0.1-0.9-0.4-1-0.8c-0.2-0.5-0.1-1-0.1-1.6c0-4.9,0-9.8,0-14.7c0-0.5,0.1-1-0.1-1.4
		c-0.2-0.4-0.6-0.9-1-1c-0.3-0.1-0.8,0.4-1,0.7c-0.2,0.5-0.3,1-0.3,1.6c-0.3,5.1-0.6,10.2-1,15.2c-0.3,4.7,1.6,8.1,5.2,10.9
		c0.7,0.5,1.2,1.6,1.2,2.4c-0.1,3.6-0.2,7.3-0.4,10.9h5.5C145.8-81.6,145.6-85.1,145.5-88.5z"/>
</g>
<g>
	<path class="st1" d="M17.8,46.1c0-0.3,0-0.5,0-0.8c-0.2,0-0.4,0-0.6-0.1c0-11.6,0-23.2,0-34.8c0.3,0,0.6,0,0.9,0c0-0.2,0-0.3,0-0.5
		c0-1.6,0-3.2,0-4.7c0-0.9,0.4-1.3,1.3-1.3c3.7,0,7.4,0,11.1,0c1,0,1.3,0.4,1.3,1.4c0,1.6,0,3.1,0,4.7c0,0.1,0,0.3,0,0.5
		c0.3,0,0.6,0,0.9,0c0,11.6,0,23.2,0,34.8c-0.2,0-0.4,0-0.6,0.1c0,0.3,0,0.6,0,0.8c-0.6,0-1.3,0-1.9,0c0-0.3,0-0.5,0-0.8
		c-3.5,0-7,0-10.5,0c0,0.3,0,0.6,0,0.8C19.1,46.1,18.5,46.1,17.8,46.1z M29.8,6c-3.2,0-6.4,0-9.6,0c0,1.5,0,3,0,4.4
		c3.2,0,6.4,0,9.6,0C29.8,8.9,29.8,7.5,29.8,6z"/>
	<path class="st1" d="M14.9,45.2c-2.2-0.3-3.6-1.9-3.7-4c0-0.1,0-0.2,0-0.3c0-8.7,0-17.3,0-26c0-1.7,0.6-3,2.1-3.9
		c0.5-0.3,1-0.4,1.6-0.6C14.9,22.1,14.9,33.6,14.9,45.2z"/>
	<path class="st1" d="M35.1,45.2c0-11.6,0-23.1,0-34.7c1.4,0,3,1.2,3.5,2.7c0.2,0.5,0.2,1,0.2,1.6c0,8.7,0,17.4,0,26.1
		c0,2-1,3.4-2.8,4.1C35.8,45.1,35.5,45.1,35.1,45.2z"/>
	<path class="st1" d="M34.4,10.5c0,11.6,0,23.1,0,34.7c-0.2,0.1-0.4,0.1-0.4-0.2c0-0.1,0-0.1,0-0.2c0-11.3,0-22.6,0-33.9
		C34,10.7,33.9,10.4,34.4,10.5z"/>
	<path class="st1" d="M15.6,45.2c0-11.6,0-23.1,0-34.7c0.2-0.1,0.4-0.1,0.4,0.2c0,0.1,0,0.1,0,0.2c0,11.3,0,22.6,0,33.9
		C16,45,16.1,45.3,15.6,45.2z"/>
</g>
<path class="st1" d="M266.6-87.5c-0.7-2.4-1.7-4.9-3.1-6.9c-2.4-3.3-5.2-6.3-7.9-9.4c-2.4-2.8-5.3-4.9-9.2-5.1
	c-2.6-0.2-4.9,0.9-5.6,3.1c-0.6,1.8,0,4.3,0.8,6.2c0.8,2.1,3,1.4,4.8,1.3c0.6,0,1.2-0.1,1.7-0.4c1.8-0.9,3,0,4,1.2
	c1.7,2,1.7,4.3,1,6.8c-4.5-1.4-6.6-1.5-9.4-0.4c-1.3,0.5-2,0.5-3.2-0.4c-4.5-3.2-8.5-1.4-9.2,4c-0.2,1.9-0.4,3.9-0.1,5.9
	c0.7,4.4,4,6.7,8.4,6.3c1.5-0.1,3-0.4,4.4-0.1c6.3,1.5,12.3,0.9,18-2.4C266.1-80,267.8-83,266.6-87.5z"/>
<g>
	<path class="st1" d="M283.5-92.8l-2.5,0.1l0.2-6.9l2.1-0.1L283.5-92.8z M283.4-100.4l-2.1,0.1v-2.1l2.1-0.1V-100.4z"/>
	<path class="st1" d="M291.2-95.2v2.2l-6,0.2v-9.8l2.4-0.1v7.7L291.2-95.2z"/>
	<path class="st1" d="M295.4-95.3c0.7,0,1.1-0.5,1.1-0.7v-7.1l2.4-0.1v7.3c0,1.9-1.5,2.8-3.5,2.9c-2,0.1-3.5-0.7-3.5-2.6v-7.3
		l2.4-0.1v7.1C294.3-95.7,294.7-95.3,295.4-95.3z"/>
	<path class="st1" d="M300-96.9v-3c0-2,1-3.7,3.6-3.8c2.9-0.1,3.4,1.9,3.5,3.5l-2.4,0.1c0-0.4-0.1-1.5-1-1.5c-0.8,0-1.2,0.9-1.2,1.8
		v2.4c0,0.9,0.4,1.8,1.2,1.8c0.9,0,1-1.2,1-1.6l2.4-0.1c-0.1,1.7-0.6,3.7-3.5,3.8C301-93.2,300-94.8,300-96.9z"/>
	<path class="st1" d="M308-103.6l2.4-0.1v3.8l1.8-3.8l2.4-0.1l-2,4.5l2.1,5.3l-2.6,0.1l-1.7-4.1v4.2l-2.4,0.1V-103.6z"/>
	<path class="st1" d="M322.3-104.1l-2.5,5.8v4.1l-2.4,0.1v-4.1l-2.5-5.6l2.5-0.1l1.2,3.1l1.2-3.2L322.3-104.1z"/>
	<path class="st1" d="M280.8-89.4l4.6-0.2c3.9-0.2,4.5,2.6,4.5,5.6v0c-0.1,3.1-0.6,5.8-4.5,6l-4.6,0.2V-89.4z M283.6-80.4l1.7-0.1
		c1.3-0.1,1.6-2.6,1.6-3.4c0-0.7-0.1-3.3-1.6-3.2l-1.7,0.1V-80.4z"/>
	<path class="st1" d="M296.5-82.2l-2.6,0.1v3.9l-2.9,0.1v-8.7c0-2.2,1.8-3.3,4.1-3.4c2.3-0.1,4.2,0.9,4.2,3.1v8.7l-2.9,0.1V-82.2z
		 M296.5-84.8v-2c0-0.3-0.5-0.8-1.3-0.8c-0.8,0-1.3,0.6-1.3,0.9v2L296.5-84.8z"/>
	<path class="st1" d="M308.4-90.5l-3,6.9v4.9l-2.9,0.1v-4.9l-3-6.7l2.9-0.1l1.5,3.7l1.5-3.8L308.4-90.5z"/>
	<path class="st1" d="M311.3-87.5v0.4c0,1.4,5.2,0.8,5.2,4.4v0.7c0,2.2-1.8,3.3-4,3.4c-2.2,0.1-4-0.9-4-3.1v-0.9l2.9-0.1v0.7
		c0,0.3,0.4,0.8,1.1,0.8c0.7,0,1.2-0.6,1.2-0.9v-0.4c0-1.4-5.2-0.8-5.2-4.4v-0.7c0-2.2,1.8-3.3,4-3.4c2.2-0.1,4,0.9,4,3.1v0.9
		l-2.9,0.1v-0.7c0-0.3-0.4-0.8-1.1-0.8C311.7-88.3,311.3-87.8,311.3-87.5z"/>
	<path class="st1" d="M318-90.8l3-0.1l-0.2,8.3l-2.5,0.1L318-90.8z M318.2-81.7l2.5-0.1v2.5l-2.5,0.1V-81.7z"/>
</g>
<g>
	<path class="st1" d="M357.3-84.7v11.4h-9.9v-11.4h-11.3v-9.9h11.3v-11.3h9.9v11.3h11.4v9.9H357.3z"/>
</g>
<polygon class="st0" points="89.5,-39.1 82.3,-50.6 75.2,-39.1 59.8,-36.2 70.4,-25.2 68,-9.9 82.3,-16.1 96.7,-9.9 94.3,-25.2 
	104.8,-36.2 "/>
<g>
	<path class="st0" d="M145.5-27.1c-0.1-1.4,0.3-2.3,1.5-3.2c3.3-2.4,5-5.7,4.8-9.8c-0.2-3.5-0.3-7-0.5-10.4
		c-0.1-2.1-0.1-4.3-0.4-6.4c-0.1-0.5-0.7-1-1-1.5c-0.4,0.4-0.9,0.8-1.2,1.4c-0.2,0.4-0.1,1.1-0.1,1.6c0,4.8,0.1,9.6,0,14.5
		c0,0.7-0.7,1.4-1,2.1c-0.3-0.7-1-1.4-1-2.1c-0.1-3.8,0-7.6,0-11.5c0-1.5,0.1-3-0.1-4.4c0-0.5-0.6-1-0.9-1.5c-0.4,0.5-1,0.9-1.2,1.5
		c-0.2,0.4-0.1,1.1-0.1,1.6c0,4.8,0,9.5,0,14.3c0,0.7-0.6,1.4-1,2.1c-0.4-0.7-1-1.4-1-2.1c-0.1-3.4,0-6.8-0.1-10.2
		c0-1.9,0-3.9-0.1-5.8c0-0.5-0.6-0.9-0.9-1.3c-0.4,0.4-0.9,0.8-1.2,1.3c-0.2,0.2,0,0.6,0,1c0,4.9,0,9.8,0,14.7c0,0.6,0,1.2-0.2,1.8
		c-0.1,0.3-0.6,0.8-0.8,0.7c-0.4-0.1-0.9-0.4-1-0.8c-0.2-0.5-0.1-1-0.1-1.6c0-4.9,0-9.8,0-14.7c0-0.5,0.1-1-0.1-1.4
		c-0.2-0.4-0.6-0.9-1-1c-0.3-0.1-0.8,0.4-1,0.7c-0.2,0.5-0.3,1-0.3,1.6c-0.3,5.1-0.6,10.2-1,15.2c-0.3,4.7,1.6,8.1,5.2,10.9
		c0.7,0.5,1.2,1.6,1.2,2.4c-0.1,3.6-0.2,7.3-0.4,10.9h5.5C145.8-20.1,145.6-23.6,145.5-27.1z"/>
</g>
<g>
	<path class="st0" d="M183.2-8.3c0-0.3,0-0.5,0-0.8c-0.2,0-0.4,0-0.6-0.1c0-11.6,0-23.2,0-34.8c0.3,0,0.6,0,0.9,0c0-0.2,0-0.3,0-0.5
		c0-1.6,0-3.2,0-4.7c0-0.9,0.4-1.3,1.3-1.3c3.7,0,7.4,0,11.1,0c1,0,1.3,0.4,1.3,1.4c0,1.6,0,3.1,0,4.7c0,0.1,0,0.3,0,0.5
		c0.3,0,0.6,0,0.9,0c0,11.6,0,23.2,0,34.8c-0.2,0-0.4,0-0.6,0.1c0,0.3,0,0.6,0,0.8c-0.6,0-1.3,0-1.9,0c0-0.3,0-0.5,0-0.8
		c-3.5,0-7,0-10.5,0c0,0.3,0,0.6,0,0.8C184.4-8.3,183.8-8.3,183.2-8.3z M195.1-48.5c-3.2,0-6.4,0-9.6,0c0,1.5,0,3,0,4.4
		c3.2,0,6.4,0,9.6,0C195.1-45.5,195.1-47,195.1-48.5z M193.2-31.8c-0.6-1.5-1.2-3-1.8-4.6c-1.1,0.4-2.2,0.9-3.2,1.3
		c0.6,1.6,1.2,3.1,1.8,4.6c1.1-0.4,2.1-0.8,3.1-1.2C193.1-31.7,193.2-31.7,193.2-31.8z M189.4-28c0-0.8-0.2-1.5-0.7-1.9
		c-0.6-0.6-1.4-0.6-2,0c-0.9,0.9-0.9,2.9,0,3.8c0.6,0.6,1.4,0.6,2,0C189.3-26.6,189.4-27.3,189.4-28z M192.2-36.4
		c0,0.9,0.7,1.6,1.6,1.6c0.9,0,1.6-0.7,1.6-1.6c0-0.9-0.7-1.6-1.6-1.6C192.9-38.1,192.2-37.3,192.2-36.4z M186.7-23.7
		c0,0.4,0,0.8,0,1.1c0,0.3,0.1,0.4,0.4,0.4c1.3,0,2.6,0,3.9,0c0.1,0,0.2,0,0.3,0c0-0.5,0-1,0-1.5C189.8-23.7,188.3-23.7,186.7-23.7z
		 M195.5-28.4c-1.6,0-3.1,0-4.6,0c0,0.5,0,1,0,1.5c1.5,0,3.1,0,4.6,0C195.5-27.4,195.5-27.9,195.5-28.4z M187.5-33.7
		c-0.7-0.2-1.3-0.3-2-0.4c-0.1,0.7-0.3,1.3-0.4,2c0.7,0.1,1.3,0.3,2,0.4C187.3-32.4,187.4-33,187.5-33.7z"/>
	<path class="st0" d="M180.2-9.3c-2.2-0.3-3.6-1.9-3.7-4c0-0.1,0-0.2,0-0.3c0-8.7,0-17.3,0-26c0-1.7,0.6-3,2.1-3.9
		c0.5-0.3,1-0.4,1.6-0.6C180.2-32.4,180.2-20.8,180.2-9.3z"/>
	<path class="st0" d="M200.5-9.2c0-11.6,0-23.1,0-34.7c1.4,0,3,1.2,3.5,2.7c0.2,0.5,0.2,1,0.2,1.6c0,8.7,0,17.4,0,26.1
		c0,2-1,3.4-2.8,4.1C201.1-9.4,200.8-9.3,200.5-9.2z"/>
	<path class="st0" d="M199.7-44c0,11.6,0,23.1,0,34.7c-0.2,0.1-0.4,0.1-0.4-0.2c0-0.1,0-0.1,0-0.2c0-11.3,0-22.6,0-33.9
		C199.3-43.8,199.2-44.1,199.7-44z"/>
	<path class="st0" d="M181-9.2c0-11.6,0-23.1,0-34.7c0.2-0.1,0.4-0.1,0.4,0.2c0,0.1,0,0.1,0,0.2c0,11.3,0,22.6,0,33.9
		C181.3-9.4,181.4-9.1,181-9.2z"/>
</g>
<path class="st0" d="M266.6-26c-0.7-2.4-1.7-4.9-3.1-6.9c-2.4-3.3-5.2-6.3-7.9-9.4c-2.4-2.8-5.3-4.9-9.2-5.1
	c-2.6-0.2-4.9,0.9-5.6,3.1c-0.6,1.8,0,4.3,0.8,6.2c0.8,2.1,3,1.4,4.8,1.3c0.6,0,1.2-0.1,1.7-0.4c1.8-0.9,3,0,4,1.2
	c1.7,2,1.7,4.3,1,6.8c-4.5-1.4-6.6-1.5-9.4-0.4c-1.3,0.5-2,0.5-3.2-0.4c-4.5-3.2-8.5-1.4-9.2,4c-0.2,1.9-0.4,3.9-0.1,5.9
	c0.7,4.4,4,6.7,8.4,6.3c1.5-0.1,3-0.4,4.4-0.1c6.3,1.5,12.3,0.9,18-2.4C266.1-18.5,267.8-21.5,266.6-26z"/>
<g>
	<path class="st0" d="M283.5-31.3l-2.5,0.1l0.2-6.9l2.1-0.1L283.5-31.3z M283.4-39l-2.1,0.1V-41l2.1-0.1V-39z"/>
	<path class="st0" d="M291.2-33.8v2.2l-6,0.2v-9.8l2.4-0.1v7.7L291.2-33.8z"/>
	<path class="st0" d="M295.4-33.8c0.7,0,1.1-0.5,1.1-0.7v-7.1l2.4-0.1v7.3c0,1.9-1.5,2.8-3.5,2.9c-2,0.1-3.5-0.7-3.5-2.6v-7.3
		l2.4-0.1v7.1C294.3-34.2,294.7-33.8,295.4-33.8z"/>
	<path class="st0" d="M300-35.4v-3c0-2,1-3.7,3.6-3.8c2.9-0.1,3.4,1.9,3.5,3.5l-2.4,0.1c0-0.4-0.1-1.5-1-1.5c-0.8,0-1.2,0.9-1.2,1.8
		v2.4c0,0.9,0.4,1.8,1.2,1.8c0.9,0,1-1.2,1-1.6l2.4-0.1c-0.1,1.7-0.6,3.7-3.5,3.8C301-31.8,300-33.4,300-35.4z"/>
	<path class="st0" d="M308-42.1l2.4-0.1v3.8l1.8-3.8l2.4-0.1l-2,4.5l2.1,5.3l-2.6,0.1l-1.7-4.1v4.2l-2.4,0.1V-42.1z"/>
	<path class="st0" d="M322.3-42.7l-2.5,5.8v4.1l-2.4,0.1v-4.1l-2.5-5.6l2.5-0.1l1.2,3.1l1.2-3.2L322.3-42.7z"/>
	<path class="st0" d="M280.8-27.9l4.6-0.2c3.9-0.2,4.5,2.6,4.5,5.6v0c-0.1,3.1-0.6,5.8-4.5,6l-4.6,0.2V-27.9z M283.6-18.9l1.7-0.1
		c1.3-0.1,1.6-2.6,1.6-3.4c0-0.7-0.1-3.3-1.6-3.2l-1.7,0.1V-18.9z"/>
	<path class="st0" d="M296.5-20.7l-2.6,0.1v3.9l-2.9,0.1v-8.7c0-2.2,1.8-3.3,4.1-3.4c2.3-0.1,4.2,0.9,4.2,3.1v8.7l-2.9,0.1V-20.7z
		 M296.5-23.3v-2c0-0.3-0.5-0.8-1.3-0.8c-0.8,0-1.3,0.6-1.3,0.9v2L296.5-23.3z"/>
	<path class="st0" d="M308.4-29l-3,6.9v4.9l-2.9,0.1V-22l-3-6.7l2.9-0.1l1.5,3.7l1.5-3.8L308.4-29z"/>
	<path class="st0" d="M311.3-26v0.4c0,1.4,5.2,0.8,5.2,4.4v0.7c0,2.2-1.8,3.3-4,3.4c-2.2,0.1-4-0.9-4-3.1v-0.9l2.9-0.1v0.7
		c0,0.3,0.4,0.8,1.1,0.8c0.7,0,1.2-0.6,1.2-0.9V-21c0-1.4-5.2-0.8-5.2-4.4V-26c0-2.2,1.8-3.3,4-3.4c2.2-0.1,4,0.9,4,3.1v0.9
		l-2.9,0.1v-0.7c0-0.3-0.4-0.8-1.1-0.8C311.7-26.9,311.3-26.3,311.3-26z"/>
	<path class="st0" d="M318-29.4l3-0.1l-0.2,8.3l-2.5,0.1L318-29.4z M318.2-20.3l2.5-0.1v2.5l-2.5,0.1V-20.3z"/>
</g>
<g>
	<path class="st0" d="M357.3-23.2v11.4h-9.9v-11.4h-11.3v-9.9h11.3v-11.3h9.9v11.3h11.4v9.9H357.3z"/>
</g>
</svg>
