<?xml version="1.0" encoding="utf-8"?>
<!-- Generator: Adobe Illustrator 22.0.0, SVG Export Plug-In . SVG Version: 6.00 Build 0)  -->
<svg version="1.1" id="Capa_1" xmlns="http://www.w3.org/2000/svg" xmlns:xlink="http://www.w3.org/1999/xlink" x="0px" y="0px"
	 viewBox="0 0 50 50" style="enable-background:new 0 0 50 50;" xml:space="preserve">
<style type="text/css">
	.st0{fill:url(#SVGID_1_);}
	.st1{fill-rule:evenodd;clip-rule:evenodd;fill:#FCFCFC;}
</style>
<g>
	<linearGradient id="SVGID_1_" gradientUnits="userSpaceOnUse" x1="41.8277" y1="-4.5222" x2="9.5456" y2="52.113">
		<stop  offset="0" style="stop-color:#FD8725"/>
		<stop  offset="0.2499" style="stop-color:#FE772E"/>
		<stop  offset="0.7125" style="stop-color:#FF603B"/>
		<stop  offset="1" style="stop-color:#FF5740"/>
	</linearGradient>
	<circle class="st0" cx="25" cy="25" r="23"/>
	<path class="st1" d="M25.2,36.1c-2.3,0-4.5-0.7-6.4-1.9l-4.4,1.4l1.4-4.3c-1.4-1.9-2.2-4.2-2.2-6.7c0-0.4,0-0.7,0.1-1.1
		c0.6-5.8,5.5-10.4,11.5-10.4c6.1,0,11.1,4.7,11.5,10.6c0,0.3,0,0.6,0,0.9C36.8,31,31.6,36.1,25.2,36.1L25.2,36.1z M31.6,27.4
		c-0.4-0.2-2-1-2.3-1.1c-0.3-0.1-0.5-0.2-0.8,0.2c-0.2,0.3-0.9,1.1-1.1,1.3C27.2,28,27,28,26.7,27.9c-0.4-0.2-1.4-0.5-2.7-1.7
		c-1-0.9-1.7-2-1.9-2.3c-0.2-0.4,0-0.5,0.1-0.7c0.2-0.1,0.4-0.4,0.5-0.6c0,0,0.1-0.1,0.1-0.1c0.1-0.1,0.1-0.3,0.2-0.4
		c0.1-0.2,0.1-0.4,0-0.6c-0.1-0.2-0.8-1.8-1-2.5c-0.3-0.7-0.6-0.6-0.8-0.6c-0.2,0-0.4,0-0.7,0c-0.2,0-0.6,0.1-0.9,0.4
		c-0.3,0.3-1.2,1.1-1.2,2.8c0,0.4,0.1,0.8,0.2,1.1c0.3,1.2,1.1,2.2,1.2,2.3c0.2,0.2,2.3,3.7,5.7,5c3.4,1.3,3.4,0.9,4.1,0.8
		c0.6,0,2-0.8,2.3-1.6c0.3-0.8,0.3-1.5,0.2-1.6C32.1,27.7,31.9,27.6,31.6,27.4L31.6,27.4z M39,24.3C38.8,16.9,32.7,11,25.2,11
		c-7.4,0-13.4,5.8-13.7,13c0,0.2,0,0.4,0,0.6c0,2.6,0.7,5,2,7.1L11,39l7.6-2.4c2,1.1,4.2,1.7,6.6,1.7c7.6,0,13.8-6.1,13.8-13.7
		C39,24.5,39,24.4,39,24.3L39,24.3z"/>
</g>
</svg>
